{
.formatVersion = 3;
DisplayStrings = (
"ŉ̦",
"ŉ̦",
"‘,",
"Ț̦"
);
axes = (
{
name = Weight;
tag = wght;
}
);
classes = (
{
code = "six nine A B C D E F G H I J K L M N O P Q S T V W X Y Z";
name = aalt;
},
{
code = "six.alt1 nine.alt1 A.alt1 B.alt1 C.alt1 D.alt1 E.alt1 F.alt1 G.alt1 H.alt1 I.alt1 J.alt1 K.alt1 L.alt1 M.alt1 N.alt1 O.alt1 P.alt1 Q.alt1 S.alt1 T.alt1 V.alt1 W.alt1 X.alt1 Y.alt1 Z.alt1";
name = aalt2;
}
);
familyName = Oceane;
customParameters = (
{
name = glyphOrder;
value = (
.notdef,
.null,
controlCR,
space,
exclam,
quotedbl,
numbersign,
dollar,
percent,
ampersand,
quotesingle,
parenleft,
parenright,
asterisk,
plus,
comma,
hyphen,
period,
slash,
zero,
one,
two,
three,
four,
five,
six,
seven,
eight,
nine,
colon,
semicolon,
less,
equal,
greater,
question,
at,
A,
B,
C,
D,
E,
F,
G,
H,
I,
J,
K,
L,
M,
N,
O,
P,
Q,
R,
S,
T,
U.alt1,
V,
W,
X,
Y,
Z,
bracketleft,
backslash,
bracketright,
asciicircum,
underscore,
grave,
a,
b,
c,
d,
e,
f,
g,
h,
i,
j,
k,
l,
m,
n,
o,
p,
q,
r,
s,
t,
u,
v,
w,
x,
y,
z,
braceleft,
verticalbar,
braceright,
asciitilde,
nonbreakingspace,
exclamdown,
cent,
sterling,
currency,
yen,
section,
dieresis,
copyright,
guillemotleft,
softhyphen,
registered,
degree,
plusminus,
twosuperior,
threesuperior,
acute,
paragraph,
cedilla,
onesuperior,
guillemotright,
questiondown,
Agrave,
Aacute,
Acircumflex,
Atilde,
Adieresis,
Aring,
AE,
Ccedilla,
Egrave,
Eacute,
Ecircumflex,
Edieresis,
Igrave,
Iacute,
Icircumflex,
Idieresis,
Eth,
Ntilde,
Ograve,
Oacute,
Ocircumflex,
Otilde,
Odieresis,
multiply,
Oslash,
Ugrave,
Uacute,
Ucircumflex,
Udieresis,
Yacute,
Thorn,
germandbls,
agrave,
aacute,
acircumflex,
atilde,
adieresis,
aring,
ae,
ccedilla,
egrave,
eacute,
ecircumflex,
edieresis,
igrave,
iacute,
icircumflex,
idieresis,
eth,
ntilde,
ograve,
oacute,
ocircumflex,
otilde,
odieresis,
divide,
oslash,
ugrave,
uacute,
ucircumflex,
udieresis,
yacute,
thorn,
ydieresis,
dotlessi,
Lslash,
lslash,
OE,
oe,
Scaron,
scaron,
Ydieresis,
Zcaron,
zcaron,
circumflex,
caron,

glyphs = (
{
glyphname = .notdef;
layers = (
{
hints = (
{
place = (0,71);
type = Stem;
},
{
origin = (4,1);
target = (0,3);
type = Stem;
},
{
horizontal = 1;
origin = (0,1);
target = (3,2);
type = Stem;
},
{
horizontal = 1;
place = (0,21);
type = Stem;
}
);
layerId = "FF4B10EE-E0A2-40F6-A8A2-E17FFC9F153D";
shapes = (
{
closed = 1;
nodes = (
(50,700,l,{name = .dv02;}),
(50,0,l,{name = .ab01;}),
(477,0,l),
(477,700,l,{name = .sh01;})
);
},
{
closed = 1;
nodes = (
(77.982,679,l,{name = .dv01;}),
(448.021,679,l,{name = .sh04;}),
(262.503,370.469,l)
);
},
{
closed = 1;
nodes = (
(250.534,349.501,l),
(71,48.958,l),
(71,649.046,l,{name = .sh02;})
);
},
{
closed = 1;
nodes = (
(263.5,328.533,l),
(448.021,21,l,{name = .sv01;}),
(78.979,21,l,{name = .sh05;})
);
},
{
closed = 1;
nodes = (
(275.469,349.501,l),
(456,651.042,l,{name = .sh03;}),
(456,46.961,l)
);
}
);
width = 527;
},
{
hints = (
{
place = (0,101);
type = Stem;
},
{
origin = (4,1);
target = (0,3);
type = Stem;
},
{
horizontal = 1;
origin = (0,1);
target = (3,2);
type = Stem;
},
{
horizontal = 1;
place = (0,50);
type = Stem;
}
);
layerId = "70A4CCFB-79CB-4069-A047-BEFA4B9EF1C4";
shapes = (
{
closed = 1;
nodes = (
(50.656,697.188,l),
(50.656,0,l),
(487.641,0,l),
(487.641,697.188,l)
);
},
{
closed = 1;
nodes = (
(118.775,647.172,l),
(418.498,647.172,l),
(268.233,397.27,l)
);
},
{
closed = 1;
nodes = (
(239.31,348.105,l),
(100.672,116.023,l),
(100.672,579.417,l)
);
},
{
closed = 1;
nodes = (
(269.148,298.978,l),
(418.527,50.016,l),
(119.77,50.016,l)
);
},
{
closed = 1;
nodes = (
(298.032,348.105,l),
(437.625,581.268,l),
(437.625,114.17,l)
);
}
);
width = 538;
}
);
},
{
glyphname = exclam;
layers = (
{
hints = (
{
origin = (0,2);
target = (0,8);
type = Stem;
},
{
place = (89,28);
type = Stem;
},
{
horizontal = 1;
place = (0,60);
type = Stem;
},
{
horizontal = 1;
place = (0,-20);
target = down;
type = TopGhost;
}
);
layerId = "FF4B10EE-E0A2-40F6-A8A2-E17FFC9F153D";
shapes = (
{
closed = 1;
nodes = (
(86.432,59.994,o),
(73,46.562,o),
(73,29.997,cs,{name = .dh01;}),
(73,13.432,o),
(86.432,0,o),
(102.997,0,cs,{name = .ab01;}),
(119.562,0,o),
(132.994,13.432,o),
(132.994,29.997,cs,{name = .dh02;}),
(132.994,46.562,o),
(119.562,59.994,o),
(102.997,59.994,cs,{name = .sv01;})
);
},
{
closed = 1;
nodes = (
(117.093,640.396,l,{name = .at01;}),
(101.516,640.396,o),
(88.873,627.768,o),
(88.873,612.177,cs,{name = .ih01;}),
(88.873,160.441,l),
(104.45,160.441,o),
(117.093,173.083,o),
(117.093,188.66,c)
);
}
);
width = 206;
},
{
hints = (
{
origin = (0,2);
target = (0,8);
type = Stem;
},
{
place = (89,57);
type = Stem;
},
{
horizontal = 1;
place = (0,87);
type = Stem;
},
{
horizontal = 1;
place = (0,-20);
target = down;
type = TopGhost;
}
);
layerId = "70A4CCFB-79CB-4069-A047-BEFA4B9EF1C4";
shapes = (
{
closed = 1;
nodes = (
(93.097,87.182,o),
(73.578,67.663,o),
(73.578,43.591,cs),
(73.578,19.519,o),
(93.097,0,o),
(117.169,0,cs),
(141.241,0,o),
(160.76,19.519,o),
(160.76,43.591,cs),
(160.76,67.663,o),
(141.241,87.182,o),
(117.169,87.182,cs)
);
},
{
closed = 1;
nodes = (
(145.604,640.377,l),
(114.198,640.377,o),
(88.707,621.629,o),
(88.707,598.481,cs),
(88.707,152.92,l),
(120.113,152.92,o),
(145.604,171.69,o),
(145.604,194.817,cs)
);
}
);
width = 234;
}
);
unicode = 33;
},
{
glyphname = quotedbl;
layers = (
{
hints = (
{
origin = (0,7);
target = (0,4);
type = Stem;
},
{
origin = (1,7);
target = (1,4);
type = Stem;
},
{
horizontal = 1;
origin = (0,4);
target = down;
type = TopGhost;
}
);
layerId = "FF4B10EE-E0A2-40F6-A8A2-E17FFC9F153D";
shapes = (
{
closed = 1;
nodes = (
(57,480,l),
(72.58,480,o),
(85.22,492.64,o),
(85.22,508.22,cs),
(85.22,645.56,l,{name = .av01;}),
(69.64,645.56,o),
(57,632.93,o),
(57,617.34,cs,{name = .sh01;})
);
},
{
closed = 1;
nodes = (
(188.76,480,l),
(204.33,480,o),
(216.98,492.64,o),
(216.98,508.22,cs),
(216.98,645.56,l,{name = .av02;}),
(201.4,645.56,o),
(188.76,632.93,o),
(188.76,617.34,cs,{name = .sh02;})
);
}
);
width = 273;
},
{
hints = (
{
place = (0,114);
type = Stem;
},
{
origin = (1,7);
target = (1,4);
type = Stem;
},
{
horizontal = 1;
place = (0,21);
target = up;
type = BottomGhost;
},
{
horizontal = 1;
origin = (0,4);
target = down;
type = TopGhost;
}
);
layerId = "70A4CCFB-79CB-4069-A047-BEFA4B9EF1C4";
shapes = (
{
closed = 1;
nodes = (
(57.103,452.201,l),
(88.515,452.201,o),
(114,470.967,o),
(114,494.098,cs),
(114,640,l),
(82.588,640,o),
(57.103,621.249,o),
(57.103,598.103,cs)
);
},
{
closed = 1;
nodes = (
(182.687,452.201,l),
(214.079,452.201,o),
(239.584,470.967,o),
(239.584,494.098,cs),
(239.584,640,l),
(208.564,640,o),
(183.313,620.849,o),
(182.687,598.103,c)
);
}
);
width = 296;
}
);
leftKerningGroup = quotedbl;
unicode = 34;
},
{
glyphname = numbersign;
layers = (
{
hints = (
{
horizontal = 1;
origin = (0,31);
target = (0,42);
type = Stem;
},
{
horizontal = 1;
origin = (0,19);
target = (0,16);
type = Stem;
}
);
layerId = "FF4B10EE-E0A2-40F6-A8A2-E17FFC9F153D";
shapes = (
{
closed = 1;
nodes = (
(494.874,382.817,l,{name = .sv01;}),
(510.451,382.817,o),
(523.094,395.446,o),
(523.094,411.037,c,{name = .sv02;}),
(447.762,411.037,l,{name = .iv01;}),
(521.556,632.474,l),
(506.783,637.398,o),
(490.811,629.412,o),
(485.872,614.639,cs),
(418.019,411.051,l,{name = .sv03;}),
(234.48,411.051,l),
(308.274,632.474,l),
(293.501,637.398,o),
(277.529,629.412,o),
(272.59,614.639,cs),
(204.737,411.051,l),
(123.141,411.051,ls,{name = .dv02;}),
(107.564,411.051,o),
(94.921,398.409,o),
(94.921,382.832,c,{name = .dv01;}),
(195.34,382.832,l),
(155.932,264.592,l,{name = .sv04;}),
(96.219,264.494,l),
(80.642,264.494,o),
(68,251.851,o),
(68,236.274,c,{name = .sv05;}),
(146.534,236.415,l),
(68.24,1.461,l),
(83.013,-3.477,o),
(99,4.522,o),
(103.923,19.296,cs),
(176.292,236.458,l,{name = .dv03;}),
(359.943,236.782,l),
(281.508,1.461,l),
(296.28,-3.477,o),
(312.267,4.509,o),
(317.191,19.296,cs),
(389.701,236.839,l,{name = .sv06;}),
(480.764,236.994,l),
(496.342,236.994,o),
(508.984,249.622,o),
(508.984,265.213,c),
(399.084,265.016,l,{name = .dv04;}),
(438.351,382.817,l)
);
},
{
closed = 1;
nodes = (
(369.34,264.959,l,{name = .sv07;}),
(185.689,264.635,l,{name = .iv02;}),
(225.083,382.817,l,{name = .sv08;}),
(408.622,382.817,l)
);
}
);
width = 592;
},
{
hints = (
{
horizontal = 1;
place = (0,283);
type = Stem;
},
{
horizontal = 1;
place = (225,57);
type = Stem;
},
{
horizontal = 1;
origin = (0,25);
target = (0,22);
type = Stem;
},
{
horizontal = 1;
origin = (0,26);
target = (0,17);
type = Stem;
}
);
layerId = "70A4CCFB-79CB-4069-A047-BEFA4B9EF1C4";
shapes = (
{
closed = 1;
nodes = (
(493.677,364.872,ls),
(516.803,364.872,o),
(535.574,390.335,o),
(535.574,421.77,c),
(469.583,421.77,l),
(538.081,627.314,l),
(524.05,631.991,o),
(515.003,634.213,o),
(510.607,634.213,cs),
(493.076,634.213,o),
(476.733,623.117,o),
(470.869,605.577,cs),
(409.612,421.783,l),
(266.299,421.783,l),
(334.797,627.314,l),
(320.765,631.991,o),
(311.719,634.213,o),
(307.323,634.213,cs),
(289.792,634.213,o),
(273.448,623.117,o),
(267.584,605.577,cs),
(206.328,421.783,l),
(139.369,421.783,ls),
(116.242,421.783,o),
(97.472,396.294,o),
(97.472,364.887,c),
(187.373,364.887,l),
(159.805,282.171,l),
(113.684,282.096,ls),
(90.582,282.096,o),
(71.812,256.593,o),
(71.812,225.172,c),
(140.843,225.296,l),
(68.073,6.917,l),
(82.101,2.228,o),
(91.149,0.001,o),
(95.552,0.001,cs),
(113.087,0.001,o),
(129.438,11.11,o),
(135.283,28.649,cs),
(200.847,225.393,l),
(344.248,225.646,l),
(271.343,6.918,l),
(285.373,2.228,o),
(294.424,0,o),
(298.83,0,cs),
(316.362,0,o),
(332.71,11.099,o),
(338.555,28.652,cs),
(404.252,225.755,l),
(480.254,225.885,ls),
(503.357,225.885,o),
(522.126,251.358,o),
(522.126,282.808,c),
(423.201,282.631,l),
(450.615,364.872,l)
);
},
{
closed = 1;
nodes = (
(363.209,282.52,l),
(219.808,282.267,l),
(247.344,364.872,l),
(390.657,364.872,l)
);
}
);
width = 607;
}
);
unicode = 35;
},
{
glyphname = dollar;
layers = (
{
hints = (
{
place = (71,28);
type = Stem;
},
{
place = (284,28);
type = Stem;
},
{
origin = (2,6);
target = (0,9);
type = Stem;
},
{
horizontal = 1;
origin = (0,50);
target = (0,30);
type = Stem;
},
{
horizontal = 1;
origin = (2,3);
target = (0,59);
type = Stem;
},
{
horizontal = 1;
origin = (0,29);
target = (1,6);
type = Stem;
},
{
horizontal = 1;
place = (0,589);
type = Stem;
},
{
horizontal = 1;
origin = (0,16);
target = down;
type = TopGhost;
},
{
horizontal = 1;
origin = (0,46);
target = up;
type = BottomGhost;
}
);
layerId = "FF4B10EE-E0A2-40F6-A8A2-E17FFC9F153D";
shapes = (
{
closed = 1;
nodes = (
(312.02,560.83,l,{name = .dv01;}),
(362.1,559.62,o),
(410.99,549.02,o),
(446.15,528.68,cs),
(470.53,514.58,o),
(486.15,497.34,o),
(492.85,477.22,cs,{name = .sh03;}),
(497.52,463.19,o),
(510.04,453.36,o),
(524.82,453.33,c,{name = .sh04;}),
(524.89,494.15,o),
(502.59,528.65,o),
(460.29,553.11,cs),
(420.75,575.97,o),
(366.95,587.85,o),
(312.02,589.11,c,{name = .dv02;}),
(312.02,639.82,l,{name = .at01;}),
(296.44,639.82,o),
(283.8,627.18,o),
(283.8,611.6,cs),
(283.8,588.84,l,{name = .sv02;}),
(230.19,586.47,o),
(177.58,573.98,o),
(138.18,551.21,cs),
(94.15,525.77,o),
(70.93,490.3,o),
(71.03,447.7,c,{name = .sh05;}),
(78.13,343.71,o),
(180.87,324.86,o),
(283.79,309.57,c,{name = .dv05;}),
(283.79,78.94,l,{name = .dv04;}),
(233.81,79.96,o),
(185.02,90.4,o),
(150.04,110.61,cs),
(125.34,124.88,o),
(109.53,142.47,o),
(102.86,163.07,cs,{name = .sh07;}),
(98.33,177.1,o),
(85.74,186.91,o),
(71,186.94,c,{name = .sh01;}),
(70.94,145.6,o),
(93.39,110.76,o),
(135.93,86.17,cs),
(175.27,63.44,o),
(228.96,51.71,o),
(283.79,50.65,c,{name = .sv03;}),
(283.79,0,l,{name = .ab01;}),
(299.37,0,o),
(312.01,12.63,o),
(312.01,28.22,cs,{name = .sh08;}),
(312.01,50.99,l,{name = .dv03;}),
(365.1,53.55,o),
(417.18,66.12,o),
(456.31,88.74,cs),
(501.18,114.67,o),
(524.87,150.87,o),
(524.78,194.32,c,{name = .sh09;}),
(517.97,299.14,o),
(411.03,319.12,o),
(312.02,333.89,c,{name = .sv01;})
);
},
{
closed = 1;
nodes = (
(99.16,480.12,o),
(117.03,506.38,o),
(152.3,526.77,cs),
(187.33,547.03,o),
(235.03,558.25,o),
(283.8,560.56,c,{name = .sv04;}),
(283.8,338.1,l,{name = .dv06;}),
(189.82,352.16,o),
(104.71,368.84,o),
(99.22,448.69,c,{name = .sh06;})
);
},
{
closed = 1;
nodes = (
(407.42,93.07,o),
(360.26,81.81,o),
(312.02,79.34,c,{name = .sv05;}),
(312.02,305.39,l,{name = .sv06;}),
(406.23,291.25,o),
(491.31,274.26,o),
(496.6,193.4,c,{name = .sh02;}),
(496.65,161.06,o),
(478.35,134.08,o),
(442.2,113.17,cs)
);
}
);
width = 596;
},
{
hints = (
{
place = (71,57);
type = Stem;
},
{
origin = (0,20);
target = (2,0);
type = Stem;
},
{
origin = (2,3);
target = (0,38);
type = Stem;
},
{
horizontal = 1;
place = (49,58);
type = Stem;
},
{
horizontal = 1;
origin = (0,20);
target = (0,9);
type = Stem;
},
{
horizontal = 1;
origin = (1,3);
target = (0,9);
type = Stem;
},
{
horizontal = 1;
origin = (0,31);
target = up;
type = BottomGhost;
},
{
horizontal = 1;
origin = (0,10);
target = down;
type = TopGhost;
}
);
layerId = "70A4CCFB-79CB-4069-A047-BEFA4B9EF1C4";
shapes = (
{
closed = 1;
nodes = (
(330.394,533.847,l),
(374.37,530.932,o),
(457.072,514.493,o),
(473.516,465.111,cs),
(479.972,445.714,o),
(503.242,432.111,o),
(533.193,432.05,c),
(533.391,547.33,o),
(427.866,585.036,o),
(330.394,590.892,c),
(330.394,639.829,l),
(298.982,639.829,o),
(273.497,621.062,o),
(273.497,597.931,cs),
(273.497,590.337,l),
(189.057,583.747,o),
(70.476,544.104,o),
(70.718,441.186,c),
(77.98,334.821,o),
(174.161,312.417,o),
(273.487,297.153,c),
(273.487,105.876,l),
(229.058,108.662,o),
(146.53,124.948,o),
(130.309,175.047,cs),
(124.023,194.514,o),
(100.541,208.147,o),
(70.694,208.208,c),
(70.526,92.645,o),
(175.387,54.146,o),
(273.487,48.83,c),
(273.487,0,l),
(304.9,0,o),
(330.385,18.751,o),
(330.385,41.897,cs),
(330.385,49.558,l),
(415.585,56.546,o),
(533.379,97.339,o),
(533.165,200.713,c),
(526.208,307.802,o),
(426.611,331.232,o),
(330.394,346.133,c)
);
},
{
closed = 1;
nodes = (
(127.575,443.091,l),
(128.46,506.472,o),
(224.674,528.889,o),
(273.497,533.214,c),
(273.497,354.73,l),
(196.548,366.828,o),
(131.701,383.071,o),
(127.534,443.687,c)
);
},
{
closed = 1;
nodes = (
(330.394,288.584,l),
(406.533,276.55,o),
(470.847,258.423,o),
(476.315,198.784,c),
(475.43,134.707,o),
(380.163,111.478,o),
(330.394,106.779,c)
);
}
);
width = 605;
}
);
unicode = 36;
},
{
glyphname = percent;
layers = (
{
hints = (
{
origin = (0,8);
target = (1,8);
type = Stem;
},
{
origin = (1,2);
target = (0,2);
type = Stem;
},
{
origin = (2,2);
target = (3,2);
type = Stem;
},
{
origin = (3,8);
target = (2,8);
type = Stem;
},
{
horizontal = 1;
place = (9,28);
type = Stem;
},
{
horizontal = 1;
place = (141,28);
type = Stem;
},
{
horizontal = 1;
place = (0,518);
type = Stem;
},
{
horizontal = 1;
place = (0,649);
type = Stem;
}
);
layerId = "FF4B10EE-E0A2-40F6-A8A2-E17FFC9F153D";
shapes = (
{
closed = 1;
nodes = (
(197.225,489.496,o),
(233.036,525.315,o),
(233.036,569.492,cs,{name = .dh04;}),
(233.036,613.67,o),
(197.225,649.494,o),
(153.048,649.494,cs,{name = .dv02;}),
(108.871,649.494,o),
(73.046,613.684,o),
(73.046,569.506,cs,{name = .dh01;}),
(73.046,525.329,o),
(108.856,489.512,o),
(153.048,489.504,cs,{name = .dv03;})
);
},
{
closed = 1;
nodes = (
(181.592,621.275,o),
(204.816,598.05,o),
(204.816,569.506,cs,{name = .dh03;}),
(204.816,540.962,o),
(181.592,517.738,o),
(153.048,517.738,cs,{name = .dv04;}),
(124.504,517.738,o),
(101.28,540.962,o),
(101.28,569.506,cs,{name = .dh02;}),
(101.28,598.05,o),
(124.504,621.275,o),
(153.048,621.275,cs,{name = .dv01;})
);
},
{
closed = 1;
nodes = (
(588.825,168.918,o),
(553.015,133.108,o),
(553.015,88.931,cs,{name = .dh05;}),
(553.015,44.753,o),
(588.825,8.943,o),
(633.003,8.943,cs,{name = .dv05;}),
(677.18,8.943,o),
(712.991,44.753,o),
(712.991,88.931,cs,{name = .dh08;}),
(712.991,133.108,o),
(677.18,168.918,o),
(633.003,168.918,cs,{name = .dv08;})
);
},
{
closed = 1;
nodes = (
(604.459,37.148,o),
(581.234,60.373,o),
(581.234,88.917,cs,{name = .dh06;}),
(581.234,117.461,o),
(604.459,140.685,o),
(633.003,140.685,cs,{name = .dv07;}),
(661.547,140.685,o),
(684.771,117.46,o),
(684.771,88.917,cs,{name = .dh07;}),
(684.771,60.373,o),
(661.547,37.148,o),
(633.003,37.148,cs,{name = .dv06;})
);
},
{
closed = 1;
nodes = (
(63,8.096,l),
(74.104,-2.825,o),
(91.967,-2.683,o),
(102.888,8.435,cs),
(723.051,639.533,l),
(711.946,650.454,o),
(694.083,650.312,o),
(683.163,639.194,cs)
);
}
);
width = 785;
},
{
hints = (
{
origin = (0,8);
target = (1,8);
type = Stem;
},
{
origin = (1,2);
target = (0,2);
type = Stem;
},
{
origin = (2,2);
target = (3,2);
type = Stem;
},
{
origin = (3,8);
target = (2,8);
type = Stem;
},
{
horizontal = 1;
place = (0,183);
type = Stem;
},
{
horizontal = 1;
place = (126,57);
type = Stem;
},
{
horizontal = 1;
place = (0,514);
type = Stem;
},
{
horizontal = 1;
place = (0,640);
type = Stem;
},
{
horizontal = 1;
origin = (4,10);
target = down;
type = TopGhost;
}
);
layerId = "70A4CCFB-79CB-4069-A047-BEFA4B9EF1C4";
shapes = (
{
closed = 1;
nodes = (
(221.263,457.384,o),
(262.112,498.241,o),
(262.112,548.631,cs),
(262.112,599.022,o),
(221.265,639.883,o),
(170.874,639.883,cs),
(120.485,639.883,o),
(79.622,599.036,o),
(79.622,548.645,cs),
(79.622,498.256,o),
(120.466,457.401,o),
(170.871,457.393,cs)
);
},
{
closed = 1;
nodes = (
(189.809,582.987,o),
(205.215,567.58,o),
(205.215,548.645,cs),
(205.215,529.71,o),
(189.809,514.303,o),
(170.874,514.303,cs),
(151.939,514.303,o),
(136.533,529.71,o),
(136.533,548.645,cs),
(136.533,567.58,o),
(151.939,582.987,o),
(170.874,582.987,cs)
);
},
{
closed = 1;
nodes = (
(577.291,182.567,o),
(536.445,141.72,o),
(536.445,91.33,cs),
(536.445,40.938,o),
(577.291,0.091,o),
(627.683,0.091,cs),
(678.074,0.091,o),
(718.922,40.938,o),
(718.922,91.33,cs),
(718.922,141.72,o),
(678.074,182.567,o),
(627.683,182.567,cs)
);
},
{
closed = 1;
nodes = (
(609.231,57.53,o),
(593.341,72.732,o),
(593.341,91.316,cs),
(593.341,110.252,o),
(608.748,125.658,o),
(627.683,125.658,cs),
(646.618,125.658,o),
(662.025,110.251,o),
(662.025,91.316,cs),
(662.025,72.381,o),
(646.618,56.974,o),
(627.683,56.974,c)
);
},
{
closed = 1;
nodes = (
(63.839,22.536,l),
(79.125,7.502,o),
(93.293,0,o),
(103.896,0,cs),
(114.735,0,o),
(125.567,4.182,o),
(133.766,12.528,cs),
(735.366,624.736,l),
(720.08,639.77,o),
(705.911,647.272,o),
(695.308,647.272,cs),
(684.469,647.272,o),
(673.637,643.09,o),
(665.438,634.743,cs)
);
}
);
width = 797;
}
);
unicode = 37;
},
{
glyphname = ampersand;
layers = (
{
hints = (
{
origin = (0,36);
target = (1,2);
type = Stem;
},
{
origin = (0,30);
target = (0,33);
type = Stem;
},
{
origin = (0,15);
target = (0,24);
type = Stem;
},
{
horizontal = 1;
place = (1,28);
type = Stem;
},
{
horizontal = 1;
origin = (0,12);
target = (0,27);
type = Stem;
}
);
layerId = "FF4B10EE-E0A2-40F6-A8A2-E17FFC9F153D";
shapes = (
{
closed = 1;
nodes = (
(491.652,218.724,o),
(478.685,207.845,o),
(476.667,193.03,cs),
(471.517,155.146,o),
(455.122,120.774,o),
(430.98,93.416,c),
(181.225,392.922,ls),
(161.697,417.515,o),
(151.369,447.018,o),
(151.369,478.285,c,{name = .sh01;}),
(151.355,556.227,o),
(216.569,619.224,o),
(295.302,615.587,cs,{name = .dv01;}),
(371.437,612.071,o),
(431.571,543.74,o),
(425.858,467.746,cs,{name = .dh05;}),
(424.418,448.599,o),
(419.043,430.27,o),
(410.013,413.522,cs),
(403.043,400.598,o),
(406.966,384.456,o),
(418.479,375.313,c),
(442.028,404.943,o),
(454.473,440.528,o),
(454.473,478.271,c,{name = .dh06;}),
(454.487,572.82,o),
(374.894,649.137,o),
(279.188,643.693,cs,{name = .dv02;}),
(188.603,638.541,o),
(117.593,557.794,o),
(123.502,467.252,cs,{name = .dh03;}),
(125.395,438.242,o),
(134.79,410.771,o),
(150.96,386.615,c,{name = .dh04;}),
(100.828,345.358,o),
(71,283.798,o),
(71,218.738,cs,{name = .dh01;}),
(71,98.636,o),
(168.71,0.927,o),
(288.825,0.927,cs,{name = .ab01;}),
(342.061,0.927,o),
(390.923,20.13,o),
(428.807,51.976,c),
(463.701,10.141,ls),
(473.69,-1.824,o),
(491.468,-3.433,o),
(503.433,6.557,c,{name = .ab02;}),
(449.238,71.546,l),
(484.851,110.333,o),
(506.622,162.045,o),
(506.622,218.724,c)
);
},
{
closed = 1;
nodes = (
(184.272,29.122,o),
(99.205,114.171,o),
(99.205,218.724,cs,{name = .dh02;}),
(99.205,275.106,o),
(124.715,328.723,o),
(168.046,364.632,c),
(410.719,73.648,l),
(377.73,45.88,o),
(335.175,29.136,o),
(288.811,29.132,cs,{name = .sv01;})
);
}
);
width = 576;
},
{
hints = (
{
origin = (0,41);
target = (1,2);
type = Stem;
},
{
origin = (0,35);
target = (0,10);
type = Stem;
},
{
origin = (0,17);
target = (0,29);
type = Stem;
},
{
horizontal = 1;
place = (1,57);
type = Stem;
},
{
horizontal = 1;
origin = (0,13);
target = (0,32);
type = Stem;
},
{
horizontal = 1;
origin = (0,51);
target = up;
type = BottomGhost;
}
);
layerId = "70A4CCFB-79CB-4069-A047-BEFA4B9EF1C4";
shapes = (
{
closed = 1;
nodes = (
(516.874,238.471,l),
(486.708,238.471,o),
(461.403,222.608,o),
(458.46,201.004,cs),
(454.805,174.114,o),
(444.487,149.007,o),
(429.493,127.801,c),
(203.397,398.934,l),
(187.354,419.519,o),
(178.277,444.855,o),
(178.274,470.867,cs),
(178.265,534.834,o),
(230.308,586.874,o),
(294.28,586.874,c),
(299.768,586.747,ls),
(361.228,585.326,o),
(410.254,531.066,o),
(410.254,470.36,cs),
(410.254,451.553,o),
(405.517,432.813,o),
(396.59,416.257,cs),
(393.131,409.842,o),
(391.494,402.9,o),
(391.494,396.006,cs),
(391.494,382.732,o),
(401.862,366.273,o),
(420.276,351.649,c),
(450.957,390.252,o),
(467.165,431.452,o),
(467.17,470.85,cs),
(467.18,566.199,o),
(389.625,643.781,o),
(294.277,643.781,cs),
(199.826,643.781,o),
(121.385,564.873,o),
(121.385,470.394,cs),
(121.385,441.064,o),
(128.915,411.925,o),
(143.47,386.431,c),
(98.478,344.599,o),
(71.672,285.435,o),
(71.672,223.485,cs),
(71.672,100.741,o),
(171.53,0.884,o),
(294.286,0.884,cs),
(343.938,0.884,o),
(388.432,16.168,o),
(425.508,43.758,c),
(449.448,15.055,ls),
(457.493,5.418,o),
(469.998,0.293,o),
(481.624,0,c),
(490.756,0.22,o),
(504.642,6.556,o),
(519.955,19.342,c),
(466.852,83.022,l),
(497.748,121.246,o),
(516.874,170.607,o),
(516.874,223.47,cs)
);
},
{
closed = 1;
nodes = (
(202.904,57.758,o),
(128.555,132.091,o),
(128.555,223.471,cs),
(128.555,267.194,o),
(147.225,310.125,o),
(177.66,340.929,c),
(388.952,87.573,l),
(362.185,69.009,o),
(329.216,57.77,o),
(294.272,57.766,cs)
);
}
);
width = 589;
}
);
unicode = 38;
},
{
glyphname = quotesingle;
layers = (
{
hints = (
{
horizontal = 1;
origin = (0,3);
target = down;
type = TopGhost;
},
{
horizontal = 1;
origin = (0,10);
target = down;
type = TopGhost;
}
);
layerId = "70A4CCFB-79CB-4069-A047-BEFA4B9EF1C4";
shapes = (
{
closed = 1;
nodes = (
(46.791,530.413,l),
(62.195,521.527,o),
(73.589,517.304,o),
(80.705,517.304,cs),
(95.18,517.304,o),
(109.257,524.818,o),
(117.015,538.253,cs),
(168.209,626.951,l),
(153.235,635.588,o),
(141.447,639.829,o),
(134.299,640.058,c),
(120.188,639.709,o),
(105.556,632.219,o),
(97.983,619.091,cs)
);
}
);
width = 215;
},
{
layerId = "FF4B10EE-E0A2-40F6-A8A2-E17FFC9F153D";
shapes = (
{
closed = 1;
nodes = (
(47,543.782,l),
(60.503,535.993,o),
(77.759,540.621,o),
(85.548,554.11,cs),
(131.39,633.534,l),
(117.887,641.322,o),
(100.631,636.694,o),
(92.842,623.191,cs)
);
}
);
width = 178;
}
);
unicode = 39;
},
{
glyphname = parenleft;
layers = (
{
layerId = "FF4B10EE-E0A2-40F6-A8A2-E17FFC9F153D";
shapes = (
{
closed = 1;
nodes = (
(58.181,179.197,o),
(58.181,456.777,o),
(229.374,627.984,c),
(218.213,639.145,o),
(199.913,638.524,o),
(189.458,626.686,cs),
(34.181,450.879,o),
(34.181,185.081,o),
(189.458,9.289,cs),
(199.899,-2.549,o),
(218.213,-3.17,o),
(229.374,7.99,c)
);
}
);
width = 295;
},
{
hints = (
{
origin = (0,15);
target = (0,3);
type = Stem;
},
{
horizontal = 1;
origin = (0,9);
target = down;
type = TopGhost;
},
{
horizontal = 1;
origin = (0,21);
target = up;
type = BottomGhost;
}
);
layerId = "70A4CCFB-79CB-4069-A047-BEFA4B9EF1C4";
shapes = (
{
closed = 1;
nodes = (
(258.835,22.615,l),
(173.109,108.348,o),
(130.246,214.982,o),
(130.246,318.081,cs),
(130.246,421.18,o),
(173.109,527.815,o),
(258.835,613.548,c),
(243.699,628.683,o),
(229.695,636.163,o),
(219.215,636.163,cs),
(208.204,636.163,o),
(196.432,630.917,o),
(188.334,622.24,c),
(113.731,536.16,o),
(73.578,425.484,o),
(73.578,318.076,cs),
(73.578,210.668,o),
(113.726,100.003,o),
(188.329,13.93,c),
(196.422,5.247,o),
(208.195,0,o),
(219.211,0,cs),
(229.691,0,o),
(240.191,3.972,o),
(248.228,12.008,cs)
);
}
);
width = 324;
}
);
unicode = 40;
},
{
glyphname = parenright;
layers = (
{
layerId = "FF4B10EE-E0A2-40F6-A8A2-E17FFC9F153D";
shapes = (
{
closed = 1;
nodes = (
(236.207,456.777,o),
(236.207,179.197,o),
(65,7.991,c),
(76.161,-3.17,o),
(94.461,-2.549,o),
(104.916,9.289,cs),
(260.193,185.095,o),
(260.193,450.893,o),
(104.916,626.686,cs),
(94.475,638.524,o),
(76.161,639.145,o),
(65,627.984,c)
);
}
);
width = 295;
},
{
hints = (
{
origin = (0,3);
target = (0,15);
type = Stem;
},
{
horizontal = 1;
origin = (0,9);
target = up;
type = BottomGhost;
},
{
horizontal = 1;
origin = (0,21);
target = down;
type = TopGhost;
}
);
layerId = "70A4CCFB-79CB-4069-A047-BEFA4B9EF1C4";
shapes = (
{
closed = 1;
nodes = (
(65.74,613.547,l),
(151.473,527.814,o),
(194.339,421.18,o),
(194.339,318.081,cs),
(194.339,214.983,o),
(151.473,108.349,o),
(65.74,22.616,c),
(80.876,7.48,o),
(94.88,0,o),
(105.36,0,cs),
(116.372,0,o),
(128.143,5.246,o),
(136.241,13.924,c),
(210.844,100.003,o),
(250.997,210.678,o),
(250.997,318.086,cs),
(250.997,425.494,o),
(210.849,536.16,o),
(136.246,622.234,c),
(128.154,630.916,o),
(116.381,636.163,o),
(105.365,636.163,cs),
(94.884,636.163,o),
(84.384,632.191,o),
(76.347,624.153,cs)
);
}
);
width = 324;
}
);
unicode = 41;
},
{
glyphname = asterisk;
layers = (
{
hints = (
{
origin = (0,4);
target = (0,1);
type = Stem;
},
{
horizontal = 1;
origin = (0,1);
target = down;
type = TopGhost;
}
);
layerId = "FF4B10EE-E0A2-40F6-A8A2-E17FFC9F153D";
shapes = (
{
closed = 1;
nodes = (
(162.62,579.29,l),
(162.49,662.91,l,{name = .av01;}),
(146.9,662.89,o),
(134.284,650.23,o),
(134.31,634.64,cs,{name = .dh01;}),
(134.4,579.26,l),
(54.16,602.86,l),
(49.75,587.92,o),
(58.3,572.23,o),
(73.26,567.84,cs),
(125.47,552.49,l),
(77.42,485.26,l),
(90.11,476.2,o),
(107.72,479.14,o),
(116.78,491.82,cs),
(148.47,536.17,l,{name = .ih01;}),
(180.16,491.82,ls),
(189.21,479.15,o),
(206.84,476.21,o),
(219.51,485.26,c),
(171.46,552.49,l),
(223.66,567.84,ls),
(238.6,572.25,o),
(247.15,587.92,o),
(242.77,602.86,c)
);
}
);
width = 297;
},
{
hints = (
{
place = (130,57);
type = Stem;
},
{
horizontal = 1;
origin = (0,1);
target = down;
type = TopGhost;
},
{
horizontal = 1;
origin = (0,17);
target = down;
type = TopGhost;
}
);
layerId = "70A4CCFB-79CB-4069-A047-BEFA4B9EF1C4";
shapes = (
{
closed = 1;
nodes = (
(186.966,565.688,l),
(186.85,640.37,l),
(155.42,640.33,o),
(129.977,621.526,o),
(130.014,598.382,cs),
(130.067,565.679,l),
(58.477,586.735,l),
(54.439,573.055,o),
(52.515,564.43,o),
(52.515,560.502,cs),
(52.515,542.4,o),
(64.347,525.711,o),
(82.602,520.344,cs),
(112.119,511.666,l),
(69.861,452.54,l),
(85.491,441.382,o),
(97.968,436.016,o),
(106.402,436.016,cs),
(119.466,436.016,o),
(132.333,442.116,o),
(140.511,453.56,cs),
(158.51,478.751,l),
(176.51,453.56,ls),
(184.683,442.122,o),
(197.559,436.023,o),
(210.622,436.023,cs),
(219.056,436.023,o),
(231.53,441.387,o),
(247.148,452.543,c),
(204.892,511.667,l),
(234.415,520.349,ls),
(252.664,525.715,o),
(264.483,542.434,o),
(264.483,560.539,cs),
(264.483,564.445,o),
(262.572,573.06,o),
(258.561,586.742,c)
);
}
);
width = 318;
}
);
unicode = 42;
},
{
glyphname = plus;
layers = (
{
hints = (
{
origin = (0,4);
target = (0,1);
type = Stem;
},
{
horizontal = 1;
place = (271,28);
type = Stem;
},
{
horizontal = 1;
origin = (0,1);
target = down;
type = TopGhost;
},
{
horizontal = 1;
origin = (0,11);
target = up;
type = BottomGhost;
}
);
layerId = "FF4B10EE-E0A2-40F6-A8A2-E17FFC9F153D";
shapes = (
{
closed = 1;
nodes = (
(188.1,299.1,l,{name = .sv01;}),
(188.1,404.98,l,{name = .av02;}),
(172.51,404.98,o),
(159.88,392.35,o),
(159.88,376.76,cs,{name = .dh01;}),
(159.88,299.1,l),
(82.22,299.1,ls,{name = .dv02;}),
(66.63,299.1,o),
(54,286.47,o),
(54,270.88,c,{name = .dv01;}),
(159.88,270.88,l,{name = .sh01;}),
(159.88,165,l,{name = .av01;}),
(175.47,165,o),
(188.1,177.64,o),
(188.1,193.22,cs,{name = .sh02;}),
(188.1,270.88,l,{name = .sv02;}),
(265.76,270.88,ls),
(281.35,270.88,o),
(293.98,283.52,o),
(293.98,299.1,c)
);
}
);
width = 348;
},
{
hints = (
{
origin = (0,10);
target = (0,15);
type = Stem;
},
{
horizontal = 1;
origin = (0,9);
target = (0,6);
type = Stem;
},
{
horizontal = 1;
origin = (0,11);
target = down;
type = TopGhost;
},
{
horizontal = 1;
origin = (0,1);
target = down;
type = TopGhost;
}
);
layerId = "70A4CCFB-79CB-4069-A047-BEFA4B9EF1C4";
shapes = (
{
closed = 1;
nodes = (
(212.283,315.08,l),
(212.283,415.997,l),
(180.85,415.997,o),
(155.386,397.245,o),
(155.386,374.099,cs),
(155.386,315.08,l),
(96.366,315.08,ls),
(73.22,315.08,o),
(54.469,289.615,o),
(54.469,258.182,c),
(155.386,258.182,l),
(155.386,157.266,l),
(186.818,157.266,o),
(212.283,176.032,o),
(212.283,199.163,cs),
(212.283,258.182,l),
(271.303,258.182,ls),
(294.448,258.182,o),
(313.2,283.667,o),
(313.2,315.08,c)
);
}
);
width = 368;
}
);
unicode = 43;
},
{
glyphname = comma;
layers = (
{
hints = (
{
horizontal = 1;
origin = (0,3);
target = down;
type = TopGhost;
},
{
horizontal = 1;
origin = (0,10);
target = down;
type = TopGhost;
}
);
layerId = "70A4CCFB-79CB-4069-A047-BEFA4B9EF1C4";
shapes = (
{
closed = 1;
nodes = (
(20.856,-77.509,l),
(35.903,-85.033,o),
(46.51,-88.577,o),
(52.753,-88.577,cs),
(68.249,-88.577,o),
(83.199,-79.852,o),
(90.576,-65.099,cs),
(161.144,76.036,l),
(145.896,83.66,o),
(134.936,87.322,o),
(128.44,87.322,cs),
(113.245,87.322,o),
(98.705,79.24,o),
(91.384,64.599,cs)
);
}
);
width = 182;
},
{
layerId = "FF4B10EE-E0A2-40F6-A8A2-E17FFC9F153D";
shapes = (
{
closed = 1;
nodes = (
(-2,-90,l),
(12,-97,o),
(29,-91,o),
(36,-77,cs),
(103,57,l),
(89,64,o),
(72,59,o),
(65,45,c)
);
}
);
width = 146;
}
);
leftKerningGroup = comma2;
rightKerningGroup = comma;
unicode = 44;
},
{
glyphname = hyphen;
layers = (
{
hints = (
{
horizontal = 1;
place = (270,28);
type = Stem;
}
);
layerId = "FF4B10EE-E0A2-40F6-A8A2-E17FFC9F153D";
shapes = (
{
closed = 1;
nodes = (
(63,298,ls,{name = .dv00;}),
(48,298,o),
(35,286,o),
(35,270,c,{name = .dv03;}),
(167,270,ls),
(182,270,o),
(195,283,o),
(195,298,c)
);
}
);
width = 230;
},
{
hints = (
{
horizontal = 1;
place = (257,57);
type = Stem;
}
);
layerId = "70A4CCFB-79CB-4069-A047-BEFA4B9EF1C4";
shapes = (
{
closed = 1;
nodes = (
(76.938,314.031,ls),
(54.605,314.031,o),
(35.25,289.737,o),
(35.25,257.344,c),
(176.062,257.344,ls),
(198.395,257.344,o),
(217.75,283.663,o),
(217.75,314.031,c)
);
}
);
width = 253;
}
);
unicode = 45;
},
{
glyphname = period;
layers = (
{
hints = (
{
origin = (0,8);
target = (0,2);
type = Stem;
},
{
horizontal = 1;
place = (0,60);
type = Stem;
}
);
layerId = "FF4B10EE-E0A2-40F6-A8A2-E17FFC9F153D";
shapes = (
{
closed = 1;
nodes = (
(89.564,0,o),
(102.994,13.43,o),
(102.994,29.997,cs,{name = .dh02;}),
(102.994,46.564,o),
(89.564,59.994,o),
(72.997,59.994,cs,{name = .sv01;}),
(56.43,59.994,o),
(43,46.564,o),
(43,29.997,cs,{name = .dh01;}),
(43,13.43,o),
(56.43,0,o),
(72.997,0,cs,{name = .ab01;})
);
}
);
width = 146;
},
{
hints = (
{
origin = (0,8);
target = (0,2);
type = Stem;
},
{
horizontal = 1;
place = (0,87);
type = Stem;
}
);
layerId = "70A4CCFB-79CB-4069-A047-BEFA4B9EF1C4";
shapes = (
{
closed = 1;
nodes = (
(111.575,0,o),
(131.091,19.516,o),
(131.091,43.591,cs),
(131.091,67.666,o),
(111.575,87.182,o),
(87.5,87.182,cs),
(63.425,87.182,o),
(43.909,67.666,o),
(43.909,43.591,cs),
(43.909,19.516,o),
(63.425,0,o),
(87.5,0,cs)
);
}
);
width = 175;
}
);
leftKerningGroup = period;
rightKerningGroup = comma;
unicode = 46;
},
{
glyphname = slash;
layers = (
{
layerId = "FF4B10EE-E0A2-40F6-A8A2-E17FFC9F153D";
shapes = (
{
closed = 1;
nodes = (
(64,1,l),
(79,-3,o),
(94,6,o),
(98,21,cs),
(251,634,l),
(236,638,o),
(221,629,o),
(217,613,cs)
);
}
);
width = 316;
},
{
hints = (
{
horizontal = 1;
origin = (0,3);
target = down;
type = TopGhost;
},
{
horizontal = 1;
origin = (0,10);
target = down;
type = TopGhost;
}
);
layerId = "70A4CCFB-79CB-4069-A047-BEFA4B9EF1C4";
shapes = (
{
closed = 1;
nodes = (
(64.866,5.265,l),
(78.109,1.733,o),
(86.316,0.047,o),
(89.854,0.047,cs),
(108.329,0.047,o),
(124.928,12.509,o),
(129.93,31.267,cs),
(279.363,629.971,l),
(266.672,633.355,o),
(258.164,635.058,o),
(254.426,635.183,c),
(236.277,634.73,o),
(219.128,622.312,o),
(214.276,602.904,cs)
);
}
);
width = 345;
}
);
unicode = 47;
},
{
glyphname = zero;
layers = (
{
hints = (
{
place = (0,100);
type = Stem;
},
{
origin = (0,2);
target = (1,5);
type = Stem;
},
{
horizontal = 1;
origin = (1,2);
target = (0,5);
type = Stem;
},
{
horizontal = 1;
place = (0,640);
type = Stem;
}
);
layerId = "FF4B10EE-E0A2-40F6-A8A2-E17FFC9F153D";
shapes = (
{
closed = 1;
nodes = (
(387.365,611.711,o),
(470.401,480.83,o),
(470.401,319.965,cs,{name = .sh02;}),
(470.401,159.101,o),
(387.365,28.219,o),
(285.31,28.219,cs,{name = .sv02;}),
(183.255,28.219,o),
(100.219,159.087,o),
(100.219,319.965,cs,{name = .sh04;}),
(100.219,480.844,o),
(183.255,611.711,o),
(285.31,611.711,cs,{name = .sv01;})
);
},
{
closed = 1;
nodes = (
(72,143.256,o),
(167.508,0,o),
(285.31,0,cs,{name = .ab01;}),
(403.112,0,o),
(498.62,143.256,o),
(498.62,319.965,cs,{name = .sh01;}),
(498.62,496.675,o),
(403.126,639.93,o),
(285.31,639.93,cs,{name = .at01;}),
(167.508,639.93,o),
(72,496.675,o),
(72,319.965,c,{name = .sh03;})
);
}
);
width = 571;
},
{
hints = (
{
place = (0,130);
type = Stem;
},
{
origin = (0,2);
target = (1,5);
type = Stem;
},
{
horizontal = 1;
origin = (1,2);
target = (0,5);
type = Stem;
},
{
horizontal = 1;
place = (0,640);
type = Stem;
}
);
layerId = "70A4CCFB-79CB-4069-A047-BEFA4B9EF1C4";
shapes = (
{
closed = 1;
nodes = (
(379.937,583.037,o),
(452.351,465.02,o),
(452.351,319.967,cs),
(452.351,174.914,o),
(379.937,56.896,o),
(290.936,56.896,cs),
(201.936,56.896,o),
(129.521,174.901,o),
(129.521,319.967,cs),
(129.521,465.033,o),
(201.936,583.037,o),
(290.936,583.037,cs)
);
},
{
closed = 1;
nodes = (
(72.625,143.257,o),
(170.372,0,o),
(290.936,0,cs),
(411.5,0,o),
(509.247,143.257,o),
(509.247,319.967,cs),
(509.247,496.678,o),
(411.514,639.933,o),
(290.936,639.933,cs),
(170.372,639.933,o),
(72.625,496.678,o),
(72.625,319.967,cs)
);
}
);
width = 582;
}
);
unicode = 48;
},
{
glyphname = one;
layers = (
{
hints = (
{
origin = (0,7);
target = (0,12);
type = Stem;
},
{
horizontal = 1;
origin = (0,11);
target = up;
type = BottomGhost;
}
);
layerId = "FF4B10EE-E0A2-40F6-A8A2-E17FFC9F153D";
shapes = (
{
closed = 1;
nodes = (
(234.267,641.059,o),
(228.186,639.846,o),
(224.15,635.81,cs),
(61,472.646,l),
(72.02,461.626,o),
(89.882,461.627,o),
(100.902,472.646,cs),
(220.03,591.76,l,{name = .dh01;}),
(220.03,28.219,ls),
(220.03,12.642,o),
(232.672,0,o),
(248.25,0,c,{name = .ab01;}),
(248.25,625.835,ls,{name = .dh02;}),
(248.25,631.535,o),
(244.807,636.685,o),
(239.53,638.872,cs)
);
}
);
width = 329;
},
{
hints = (
{
origin = (0,10);
target = (0,15);
type = Stem;
},
{
horizontal = 1;
origin = (0,14);
target = up;
type = BottomGhost;
},
{
horizontal = 1;
place = (0,-20);
target = down;
type = TopGhost;
}
);
layerId = "70A4CCFB-79CB-4069-A047-BEFA4B9EF1C4";
shapes = (
{
closed = 1;
nodes = (
(240.763,639.95,o),
(233.478,637.055,o),
(228.036,631.613,cs),
(61.928,465.49,l),
(76.848,450.57,o),
(91.519,442.938,o),
(102.156,442.614,c),
(112.517,442.877,o),
(123.87,446.976,o),
(131.778,454.884,cs),
(219.716,542.811,l),
(219.716,41.896,ls),
(219.716,18.769,o),
(245.205,0,o),
(276.613,0,c),
(276.613,611.499,ls),
(276.613,627.18,o),
(263.661,639.95,o),
(248.165,639.95,cs)
);
}
);
width = 357;
}
);
unicode = 49;
},
{
glyphname = two;
layers = (
{
hints = (
{
horizontal = 1;
place = (0,28);
type = Stem;
},
{
horizontal = 1;
origin = (0,19);
target = (0,10);
type = Stem;
}
);
layerId = "FF4B10EE-E0A2-40F6-A8A2-E17FFC9F153D";
shapes = (
{
closed = 1;
nodes = (
(112.058,28.21,l),
(407.738,325.29,ls),
(459.865,377.663,o),
(475.888,453.68,o),
(449.548,523.67,cs),
(424.448,590.36,o),
(365.578,634.73,o),
(295.898,639.46,cs,{name = .at01;}),
(290.978,639.78,o),
(286.048,639.97,o),
(281.048,639.97,cs,{name = .at02;}),
(182.228,639.97,o),
(95.828,572.93,o),
(72.638,476.53,c),
(86.728,472.88,o),
(100.858,480.68,o),
(106.358,494.16,cs),
(135.068,564.49,o),
(203.668,611.75,o),
(281.048,611.75,cs,{name = .sv02;}),
(285.398,611.75,o),
(289.718,611.61,o),
(293.988,611.31,cs,{name = .sv03;}),
(353.378,607.27,o),
(401.658,570.79,o),
(423.138,513.73,cs),
(445.528,454.21,o),
(431.968,389.63,o),
(387.748,345.2,cs),
(68.108,24.06,ls),
(64.088,20.01,o),
(62.888,13.96,o),
(65.088,8.7,cs),
(67.278,3.44,o),
(72.408,0.01,o),
(78.108,0.01,cs,{name = .ab01;}),
(484.008,0.01,l),
(484.008,15.58,o),
(471.378,28.21,o),
(455.768,28.21,cs,{name = .sv01;})
);
}
);
width = 551;
},
{
hints = (
{
origin = (0,22);
target = (0,4);
type = Stem;
},
{
horizontal = 1;
place = (0,57);
type = Stem;
},
{
horizontal = 1;
origin = (0,19);
target = (0,7);
type = Stem;
}
);
layerId = "70A4CCFB-79CB-4069-A047-BEFA4B9EF1C4";
shapes = (
{
closed = 1;
nodes = (
(160.898,56.888,l),
(417.257,314.46,ls),
(453.981,351.359,o),
(473.368,399.636,o),
(473.368,449.574,cs),
(473.368,555.519,o),
(392.214,639.971,o),
(285.874,639.971,cs),
(184.779,639.971,o),
(94.968,565.481,o),
(69.201,458.369,c),
(82.342,454.965,o),
(90.454,453.337,o),
(93.901,453.337,cs),
(110.995,453.337,o),
(126.581,463.958,o),
(133.261,480.33,cs),
(158.346,541.78,o),
(218.277,583.074,o),
(285.874,583.074,cs),
(361.1,583.074,o),
(416.429,522.735,o),
(416.429,449.686,cs),
(416.429,414.982,o),
(402.164,380.443,o),
(376.941,354.6,cs),
(72.277,48.507,ls),
(66.874,43.064,o),
(64,35.823,o),
(64,28.453,cs),
(64,25.131,o),
(65,20.731,o),
(66.196,17.515,c),
(70.827,7.47,o),
(81.31,0.009,o),
(92.448,0.009,cs),
(494.321,0.009,l),
(494.321,31.413,o),
(475.575,56.888,o),
(452.405,56.888,cs)
);
}
);
width = 561;
}
);
unicode = 50;
},
{
glyphname = three;
layers = (
{
hints = (
{
origin = (0,18);
target = (0,34);
type = Stem;
},
{
horizontal = 1;
origin = (0,31);
target = (0,21);
type = Stem;
},
{
horizontal = 1;
origin = (0,15);
target = (0,8);
type = Stem;
},
{
horizontal = 1;
origin = (0,2);
target = (0,43);
type = Stem;
}
);
layerId = "FF4B10EE-E0A2-40F6-A8A2-E17FFC9F153D";
shapes = (
{
closed = 1;
nodes = (
(128.18,560.182,o),
(184.435,609.682,o),
(251.611,607.704,cs,{name = .dv01;}),
(321.976,605.632,o),
(379.275,544.619,o),
(377.088,474.254,cs),
(375.141,411.551,o),
(328.354,360.035,o),
(267.795,350.555,cs,{name = .dv04;}),
(262.01,349.649,o),
(257.579,344.953,o),
(257.579,339.084,cs),
(257.579,331.126,ls),
(257.579,324.918,o),
(262.32,319.933,o),
(268.486,319.133,cs,{name = .dv03;}),
(343.253,309.436,o),
(401.089,248.33,o),
(401.089,174.438,cs,{name = .dh01;}),
(401.089,93.829,o),
(332.29,28.233,o),
(247.717,28.233,cs,{name = .sv01;}),
(174.756,28.233,o),
(113.59,77.081,o),
(98.168,142.254,cs),
(96.024,151.312,o),
(87.981,157.718,o),
(78.669,157.718,cs),
(67,157.718,l),
(75.79,69.349,o),
(153.45,0,o),
(247.717,0,cs,{name = .ab01;}),
(347.839,0,o),
(429.308,78.238,o),
(429.308,174.424,cs,{name = .dh02;}),
(429.308,247.597,o),
(382.097,310.286,o),
(315.457,336.135,c,{name = .iv01;}),
(375.155,364.707,o),
(414.324,429.541,o),
(403.629,502.093,cs,{name = .sh01;}),
(393.357,571.696,o),
(335.719,627.124,o),
(265.834,634.964,cs,{name = .dv02;}),
(170.82,645.622,o),
(90.041,571.216,o),
(90.041,478.318,c),
(99.777,478.318,ls),
(109.823,478.318,o),
(118.091,485.838,o),
(119.446,495.8,cs)
);
}
);
width = 502;
},
{
hints = (
{
origin = (0,7);
target = (0,42);
type = Stem;
},
{
origin = (0,20);
target = (0,36);
type = Stem;
},
{
horizontal = 1;
origin = (0,33);
target = (0,23);
type = Stem;
},
{
horizontal = 1;
origin = (0,3);
target = (0,45);
type = Stem;
}
);
layerId = "70A4CCFB-79CB-4069-A047-BEFA4B9EF1C4";
shapes = (
{
closed = 1;
nodes = (
(155.791,537.736,o),
(202.187,578.267,o),
(256.064,579.272,c),
(259.421,579.222,l),
(315.538,576.409,o),
(363.284,526.69,o),
(364.469,470.789,c),
(364.417,467.435,l),
(361.885,415.839,o),
(322.987,371.779,o),
(272.922,363.942,cs),
(260.228,361.955,o),
(250.505,351.414,o),
(250.505,338.189,cs),
(250.505,330.604,ls),
(250.505,316.952,o),
(260.706,306.019,o),
(273.971,304.298,cs),
(337.864,296.011,o),
(387.288,244.051,o),
(387.288,181.261,cs),
(387.288,112.701,o),
(328.443,56.91,o),
(256.105,56.91,cs),
(193.627,56.91,o),
(141.301,98.522,o),
(128.163,154.04,cs),
(124.519,169.436,o),
(110.832,180.325,o),
(94.981,180.325,cs),
(67.293,180.325,l),
(77.343,79.289,o),
(158.499,0,o),
(256.105,0,cs),
(359.805,0,o),
(444.184,81.299,o),
(444.184,181.248,cs),
(444.184,246.915,o),
(406.708,305.013,o),
(352.341,336.789,c),
(394.344,366.745,o),
(421.385,415.422,o),
(421.385,470.868,cs),
(421.385,562.115,o),
(346.845,636.171,o),
(256.099,636.171,cs),
(164.964,636.171,o),
(90.82,555.29,o),
(90.82,455.897,c),
(115.1,455.897,ls),
(132.285,455.897,o),
(146.413,468.647,o),
(148.71,485.54,cs)
);
}
);
width = 517;
}
);
rightKerningGroup = three;
unicode = 51;
},
{
glyphname = four;
layers = (
{
hints = (
{
origin = (0,15);
target = (0,20);
type = Stem;
},
{
horizontal = 1;
origin = (0,14);
target = (1,1);
type = Stem;
},
{
horizontal = 1;
origin = (0,16);
target = down;
type = TopGhost;
}
);
layerId = "FF4B10EE-E0A2-40F6-A8A2-E17FFC9F153D";
shapes = (
{
closed = 1;
nodes = (
(397.014,214.74,l,{name = .sh01;}),
(397.014,627.22,ls),
(397.014,633.33,o),
(393.084,638.75,o),
(387.264,640.64,cs),
(381.454,642.52,o),
(375.094,640.46,o),
(371.494,635.51,cs),
(61.684,208.93,ls),
(58.574,204.64,o),
(58.134,198.95,o),
(60.534,194.23,cs),
(62.934,189.5,o),
(67.794,186.52,o),
(73.104,186.52,cs,{name = .dv01;}),
(368.794,186.52,l,{name = .dh01;}),
(368.794,0.01,l,{name = .ab01;}),
(384.374,0.01,o),
(397.014,12.64,o),
(397.014,28.23,cs),
(397.014,186.52,l,{name = .sv02;}),
(489.594,186.52,l),
(489.594,202.1,o),
(476.954,214.74,o),
(461.374,214.74,c,{name = .sv01;})
);
},
{
closed = 1;
nodes = (
(368.794,214.74,l,{name = .sh02;}),
(100.784,214.74,l,{name = .dv02;}),
(368.794,583.79,l,{name = .ih01;})
);
}
);
width = 552;
},
{
hints = (
{
origin = (0,18);
target = (0,23);
type = Stem;
},
{
horizontal = 1;
place = (178,57);
type = Stem;
},
{
horizontal = 1;
origin = (0,19);
target = down;
type = TopGhost;
},
{
horizontal = 1;
origin = (0,4);
target = down;
type = TopGhost;
}
);
layerId = "70A4CCFB-79CB-4069-A047-BEFA4B9EF1C4";
shapes = (
{
closed = 1;
nodes = (
(410.404,234.674,l),
(410.404,612.819,ls),
(410.404,629.221,o),
(397.672,640.658,o),
(381.964,641.266,c),
(373.406,640.956,o),
(364.202,636.766,o),
(358.946,629.539,cs),
(63.652,222.946,ls),
(60.061,217.993,o),
(58.234,212.125,o),
(58.234,206.233,cs),
(58.234,202.192,o),
(59.586,197.116,o),
(61.323,193.332,c),
(66.321,184.334,o),
(76.325,177.777,o),
(86.677,177.777,cs),
(353.507,177.777,l),
(353.507,0.01,l),
(384.919,0.01,o),
(410.404,18.761,o),
(410.404,41.907,cs),
(410.404,177.777,l),
(498.644,177.777,l),
(498.644,209.189,o),
(479.878,234.674,o),
(456.747,234.674,cs)
);
},
{
closed = 1;
nodes = (
(353.507,234.674,l),
(142.491,234.674,l),
(353.507,525.243,l)
);
}
);
width = 561;
}
);
unicode = 52;
},
{
glyphname = five;
layers = (
{
hints = (
{
origin = (0,11);
target = (0,3);
type = Stem;
},
{
origin = (0,24);
target = (0,45);
type = Stem;
},
{
horizontal = 1;
origin = (0,42);
target = (0,27);
type = Stem;
},
{
horizontal = 1;
place = (385,28);
type = Stem;
},
{
horizontal = 1;
origin = (0,3);
target = (0,8);
type = Stem;
}
);
layerId = "FF4B10EE-E0A2-40F6-A8A2-E17FFC9F153D";
shapes = (
{
closed = 1;
nodes = (
(192.349,413.498,o),
(157.286,404.835,o),
(125.92,388.27,c),
(125.92,610.554,l,{name = .sv01;}),
(400.085,610.554,ls),
(415.662,610.554,o),
(428.305,623.196,o),
(428.305,638.773,c,{name = .at01;}),
(111.811,638.773,ls),
(104.022,638.773,o),
(97.701,632.452,o),
(97.701,624.664,cs,{name = .sh01;}),
(97.701,363.225,ls),
(97.701,357.977,o),
(100.622,353.165,o),
(105.264,350.724,cs),
(109.906,348.283,o),
(115.521,348.636,o),
(119.839,351.613,cs,{name = .iv01;}),
(151.656,373.624,o),
(189.287,385.265,o),
(228.681,385.265,cs,{name = .dv01;}),
(331.371,385.265,o),
(414.915,305.178,o),
(414.915,206.735,cs,{name = .sh03;}),
(414.915,108.292,o),
(331.371,28.205,o),
(228.681,28.205,cs,{name = .sv02;}),
(190.289,28.205,o),
(153.434,39.309,o),
(122.082,60.319,cs,{name = .sh04;}),
(117.116,63.649,o),
(112.304,67.218,o),
(107.705,71,cs),
(96.036,80.566,o),
(79.118,80.002,o),
(68,69.815,c),
(79.358,57.426,o),
(92.269,46.35,o),
(106.378,36.897,cs),
(142.386,12.755,o),
(184.687,0,o),
(228.681,0,cs,{name = .ab01;}),
(346.92,0,o),
(443.134,92.743,o),
(443.134,206.749,cs,{name = .sh02;}),
(443.134,320.755,o),
(346.934,413.498,o),
(228.681,413.498,c,{name = .dv02;})
);
}
);
width = 514;
},
{
hints = (
{
origin = (0,11);
target = (0,3);
type = Stem;
},
{
origin = (0,24);
target = (0,42);
type = Stem;
},
{
horizontal = 1;
origin = (0,39);
target = (0,27);
type = Stem;
},
{
horizontal = 1;
place = (367,57);
type = Stem;
},
{
horizontal = 1;
origin = (0,3);
target = (0,8);
type = Stem;
}
);
layerId = "70A4CCFB-79CB-4069-A047-BEFA4B9EF1C4";
shapes = (
{
closed = 1;
nodes = (
(213.757,424.115,o),
(186.429,419.056,o),
(160.017,408.455,c),
(160.017,581.934,l),
(406.331,581.934,ls),
(429.458,581.934,o),
(448.228,607.424,o),
(448.228,638.83,c),
(131.57,638.83,ls),
(115.866,638.83,o),
(103.121,626.086,o),
(103.121,610.383,cs),
(103.121,361.199,ls),
(103.121,344.858,o),
(115.889,333.369,o),
(131.565,332.746,c),
(136.88,332.944,o),
(143.2,334.655,o),
(147.746,337.789,cs),
(175.559,357.03,o),
(208.479,367.206,o),
(242.962,367.206,cs),
(332.567,367.206,o),
(405.466,297.602,o),
(405.466,212.044,cs),
(405.466,126.487,o),
(332.567,56.883,o),
(242.962,56.883,cs),
(204.965,56.883,o),
(166.589,70.076,o),
(137.175,94.265,cs),
(129.078,100.902,o),
(119.248,104.181,o),
(109.433,104.181,cs),
(98.742,104.181,o),
(84.345,96.877,o),
(68.616,82.466,c),
(116.153,30.614,o),
(169.963,0,o),
(242.962,0,cs),
(363.928,0,o),
(462.362,95.124,o),
(462.362,212.058,cs),
(462.362,328.991,o),
(363.943,424.115,o),
(242.962,424.115,cs)
);
}
);
width = 533;
}
);
unicode = 53;
},
{
glyphname = six;
layers = (
{
hints = (
{
horizontal = 1;
origin = (0,8);
target = down;
type = TopGhost;
}
);
layerId = "FF4B10EE-E0A2-40F6-A8A2-E17FFC9F153D";
shapes = (
{
closed = 1;
nodes = (
(206.187,357.56,o),
(145.927,330.52,o),
(108.647,284.23,c),
(143.667,464.74,o),
(257.717,577.15,o),
(305.537,617.4,cs),
(317.397,627.39,o),
(319.787,644.66,o),
(311.077,657.5,c,{name = .av01;}),
(308.697,655.88,o),
(74.157,493.6,o),
(70.017,183.16,cs),
(68.727,87.39,o),
(141.847,4.01,o),
(237.547,0.15,cs),
(346.307,-4.26,o),
(434.467,91.32,o),
(417.467,202.3,cs),
(406.097,276.54,o),
(346.227,336.28,o),
(271.997,347.55,cs)
);
},
{
closed = 1;
nodes = (
(169.457,13.72,o),
(83.667,99.51,o),
(100.247,199.69,cs),
(110.287,260.37,o),
(159.227,309.32,o),
(219.927,319.35,cs),
(320.107,335.91,o),
(405.897,250.1,o),
(389.327,149.93,cs),
(379.297,89.25,o),
(330.337,40.3,o),
(269.637,30.27,cs)
);
}
);
width = 486;
},
{
hints = (
{
origin = (0,14);
target = (1,2);
type = Stem;
},
{
origin = (1,8);
target = (0,21);
type = Stem;
},
{
horizontal = 1;
place = (0,57);
type = Stem;
},
{
horizontal = 1;
place = (306,57);
type = Stem;
},
{
horizontal = 1;
origin = (0,11);
target = down;
type = TopGhost;
}
);
layerId = "70A4CCFB-79CB-4069-A047-BEFA4B9EF1C4";
shapes = (
{
closed = 1;
nodes = (
(214.447,363.236,o),
(178.028,350.698,o),
(148.927,330.803,c),
(189.319,473.41,o),
(279.405,557.921,o),
(319.876,591.985,cs),
(330.112,600.607,o),
(335.479,612.974,o),
(335.479,625.501,cs),
(335.479,634.01,o),
(330.254,646.643,o),
(319.475,662.533,c),
(317.017,660.86,o),
(74.786,493.403,o),
(70.736,189.725,c),
(70.719,187.247,ls),
(70.054,88.565,o),
(152.427,0.77,o),
(252.305,0.003,c),
(350.72,2.005,o),
(433.908,82.735,o),
(433.908,181.63,cs),
(433.908,280.098,o),
(351.399,363.236,o),
(252.299,363.236,cs)
);
},
{
closed = 1;
nodes = (
(183.533,56.891,o),
(127.581,112.833,o),
(127.581,181.604,cs),
(127.581,251.018,o),
(183.585,306.342,o),
(252.315,306.342,cs),
(321.091,306.342,o),
(377.042,250.385,o),
(377.042,181.614,cs),
(377.042,112.895,o),
(321.711,56.891,o),
(252.309,56.891,cs)
);
}
);
width = 500;
}
);
unicode = 54;
},
{
glyphname = seven;
layers = (
{
hints = (
{
horizontal = 1;
origin = (0,6);
target = (0,3);
type = Stem;
},
{
horizontal = 1;
origin = (0,8);
target = up;
type = BottomGhost;
}
);
layerId = "FF4B10EE-E0A2-40F6-A8A2-E17FFC9F153D";
shapes = (
{
closed = 1;
nodes = (
(485.735,638.251,o),
(481.333,640.608,o),
(476.62,640.608,c,{name = .at02;}),
(50,640.452,l),
(50,624.861,o),
(62.642,612.241,o),
(78.219,612.247,cs,{name = .sv01;}),
(455.456,612.388,l),
(200.339,0,l,{name = .ab01;}),
(218.851,0,o),
(235.556,11.133,o),
(242.668,28.219,cs),
(489.643,621.066,ls),
(491.464,625.426,o),
(490.97,630.406,o),
(488.359,634.329,cs,{name = .at01;})
);
}
);
width = 549;
},
{
hints = (
{
horizontal = 1;
origin = (0,7);
target = (0,2);
type = Stem;
},
{
horizontal = 1;
origin = (0,8);
target = up;
type = BottomGhost;
}
);
layerId = "70A4CCFB-79CB-4069-A047-BEFA4B9EF1C4";
shapes = (
{
closed = 1;
nodes = (
(490.654,635.828,o),
(481.778,640.583,o),
(472.273,640.579,cs),
(50.656,640.425,l),
(50.656,608.988,o),
(69.428,583.539,o),
(92.558,583.548,cs),
(429.605,583.674,l),
(186.45,0,l),
(223.768,0,o),
(254.035,14.255,o),
(263.141,36.132,cs),
(498.538,601.185,ls),
(499.857,604.343,o),
(500.596,608.788,o),
(500.727,612.124,c),
(500.537,617.311,o),
(498.91,623.465,o),
(495.944,627.921,cs)
);
}
);
width = 559;
}
);
unicode = 55;
},
{
glyphname = eight;
layers = (
{
hints = (
{
origin = (0,14);
target = (2,2);
type = Stem;
},
{
place = (113,28);
type = Stem;
},
{
origin = (1,5);
target = (0,2);
type = Stem;
},
{
origin = (2,8);
target = (0,20);
type = Stem;
},
{
horizontal = 1;
place = (0,28);
type = Stem;
},
{
horizontal = 1;
origin = (2,5);
target = (1,8);
type = Stem;
},
{
horizontal = 1;
origin = (1,2);
target = (0,5);
type = Stem;
}
);
layerId = "FF4B10EE-E0A2-40F6-A8A2-E17FFC9F153D";
shapes = (
{
closed = 1;
nodes = (
(392.277,366.696,o),
(428.172,420.214,o),
(428.172,482.241,c,{name = .dh06;}),
(428.186,569.34,o),
(357.582,639.944,o),
(270.483,639.944,cs,{name = .at01;}),
(183.384,639.944,o),
(112.779,569.34,o),
(112.779,482.241,cs,{name = .dh03;}),
(112.779,420.214,o),
(148.674,366.71,o),
(200.753,340.946,c,{name = .iv02;}),
(125.026,315.958,o),
(71,251.688,o),
(71,176.117,cs,{name = .dh01;}),
(71,78.845,o),
(160.314,0,o),
(270.483,0,cs,{name = .ab01;}),
(380.651,0,o),
(469.965,78.845,o),
(469.965,176.117,cs,{name = .dh08;}),
(469.965,251.688,o),
(415.953,315.958,o),
(340.213,340.946,c,{name = .iv01;})
);
},
{
closed = 1;
nodes = (
(140.998,553.635,o),
(199.088,611.725,o),
(270.483,611.725,cs,{name = .sv01;}),
(341.878,611.725,o),
(399.967,553.635,o),
(399.967,482.241,cs,{name = .dh05;}),
(399.967,410.846,o),
(341.878,352.756,o),
(270.483,352.756,cs,{name = .dv02;}),
(199.088,352.756,o),
(140.998,410.846,o),
(140.998,482.241,cs,{name = .dh04;})
);
},
{
closed = 1;
nodes = (
(176.047,28.233,o),
(99.219,94.577,o),
(99.219,176.131,cs,{name = .dh02;}),
(99.219,257.685,o),
(176.047,324.029,o),
(270.483,324.029,cs,{name = .dv01;}),
(364.919,324.029,o),
(441.746,257.685,o),
(441.746,176.131,cs,{name = .dh07;}),
(441.746,94.577,o),
(364.919,28.233,o),
(270.483,28.233,cs,{name = .sv02;})
);
}
);
width = 541;
},
{
hints = (
{
origin = (0,15);
target = (2,2);
type = Stem;
},
{
place = (111,57);
type = Stem;
},
{
origin = (1,5);
target = (0,3);
type = Stem;
},
{
origin = (2,8);
target = (0,21);
type = Stem;
},
{
horizontal = 1;
place = (0,57);
type = Stem;
},
{
horizontal = 1;
origin = (2,5);
target = (1,8);
type = Stem;
},
{
horizontal = 1;
origin = (1,2);
target = (0,6);
type = Stem;
}
);
layerId = "70A4CCFB-79CB-4069-A047-BEFA4B9EF1C4";
shapes = (
{
closed = 1;
nodes = (
(378.162,344.247,l),
(416.741,374.468,o),
(442.097,421.8,o),
(442.102,474.635,cs),
(442.11,565.936,o),
(368.106,639.947,o),
(276.804,639.947,cs),
(185.504,639.947,o),
(111.493,565.937,o),
(111.493,474.636,cs),
(111.493,420.175,o),
(136.841,372.773,o),
(177.478,342.688,c),
(112.935,311.929,o),
(71.672,252.749,o),
(71.672,182.862,cs),
(71.672,81.864,o),
(163.515,0,o),
(276.804,0,cs),
(390.092,0,o),
(481.935,81.864,o),
(481.935,182.862,cs),
(481.935,261.608,o),
(426.168,328.409,o),
(347.965,354.209,c)
);
},
{
closed = 1;
nodes = (
(168.389,534.413,o),
(217.026,583.05,o),
(276.804,583.05,cs),
(336.582,583.05,o),
(385.219,534.413,o),
(385.219,474.636,cs),
(385.219,414.858,o),
(336.582,366.221,o),
(276.804,366.221,cs),
(217.026,366.221,o),
(168.389,414.858,o),
(168.389,474.636,cs)
);
},
{
closed = 1;
nodes = (
(195.066,56.91,o),
(128.568,113.415,o),
(128.568,182.875,cs),
(128.568,252.335,o),
(195.066,308.84,o),
(276.804,308.84,cs),
(358.542,308.84,o),
(425.039,252.335,o),
(425.039,182.875,cs),
(425.039,113.415,o),
(358.542,56.91,o),
(276.804,56.91,cs)
);
}
);
width = 553;
}
);
rightKerningGroup = three;
unicode = 56;
},
{
glyphname = nine;
layers = (
{
hints = (
{
origin = (0,12);
target = (1,2);
type = Stem;
},
{
origin = (1,8);
target = (0,27);
type = Stem;
},
{
horizontal = 1;
place = (261,28);
type = Stem;
},
{
horizontal = 1;
origin = (1,5);
target = (0,9);
type = Stem;
},
{
horizontal = 1;
origin = (0,24);
target = up;
type = BottomGhost;
}
);
layerId = "FF4B10EE-E0A2-40F6-A8A2-E17FFC9F153D";
shapes = (
{
closed = 1;
nodes = (
(451.19,454.98,o),
(450.98,456.72,o),
(450.92,458.49,c,{name = .sh03;}),
(450.92,459.11,o),
(450.98,459.72,o),
(450.98,460.34,c,{name = .sh04;}),
(450.82,460.34,l),
(447.03,563.09,o),
(362.76,645.28,o),
(259.09,645.28,c,{name = .dv02;}),
(153,645.29,o),
(67,559.29,o),
(67,453.19,cs,{name = .sh05;}),
(67,347.08,o),
(153,261.09,o),
(259.09,261.09,cs,{name = .dv03;}),
(313.8,261.09,o),
(363.06,284.07,o),
(398.05,320.78,c,{name = .ih01;}),
(343.15,169.58,o),
(211.66,73.37,o),
(157.82,39.07,cs),
(144.7,30.72,o),
(140.14,13.79,o),
(147.38,0,c,{name = .ab01;}),
(150.31,1.54,o),
(432.62,153.06,o),
(450.13,433.04,c,{name = .sh01;}),
(450.82,439.66,o),
(451.19,446.36,o),
(451.19,453.19,cs,{name = .sh02;})
);
},
{
closed = 1;
nodes = (
(168.73,289.3,o),
(95.22,362.82,o),
(95.22,453.19,cs,{name = .sh06;}),
(95.22,543.56,o),
(168.73,617.07,o),
(259.09,617.07,cs,{name = .dv01;}),
(347.71,617.07,o),
(419.94,546.33,o),
(422.7,458.37,c,{name = .sh07;}),
(422.66,450.44,o),
(422.36,442.63,o),
(421.88,434.9,c,{name = .sh08;}),
(412.75,353.12,o),
(343.26,289.3,o),
(259.09,289.3,c,{name = .dv04;})
);
}
);
width = 521;
},
{
hints = (
{
origin = (0,10);
target = (1,2);
type = Stem;
},
{
origin = (1,8);
target = (0,28);
type = Stem;
},
{
horizontal = 1;
place = (249,57);
type = Stem;
},
{
horizontal = 1;
origin = (1,5);
target = (0,7);
type = Stem;
},
{
horizontal = 1;
origin = (0,25);
target = down;
type = TopGhost;
}
);
layerId = "70A4CCFB-79CB-4069-A047-BEFA4B9EF1C4";
shapes = (
{
closed = 1;
nodes = (
(464.04,448.226,o),
(463.878,450.731,o),
(463.795,452.132,c),
(464.335,468.762,l),
(462.6,468.762,l),
(452.932,569.131,o),
(368.852,645.028,o),
(265.946,645.033,cs),
(156.544,645.038,o),
(67.859,556.359,o),
(67.859,446.947,cs),
(67.859,337.525,o),
(156.544,248.851,o),
(265.945,248.851,cs),
(300.508,248.851,o),
(332.457,257.475,o),
(360.707,273.061,c),
(302.406,163.91,o),
(204.667,92.477,o),
(161.363,64.89,cs),
(148.415,56.649,o),
(141.201,42.641,o),
(141.201,28.21,cs),
(141.201,21.378,o),
(145.065,10.172,o),
(153.167,-5.26,c),
(156.172,-3.68,o),
(445.791,151.628,o),
(463,426.805,c),
(462.948,426.186,l),
(463.659,433,o),
(464.04,439.903,o),
(464.04,446.947,cs)
);
},
{
closed = 1;
nodes = (
(188.092,305.739,o),
(124.757,369.084,o),
(124.757,446.947,cs),
(124.757,524.809,o),
(188.092,588.145,o),
(265.945,588.145,cs),
(341.336,588.145,o),
(403.065,526.072,o),
(406.883,451.609,c),
(406.847,444.428,o),
(406.576,437.799,o),
(406.161,430.901,c),
(397.115,361.714,o),
(337.556,305.739,o),
(265.945,305.739,cs)
);
}
);
width = 534;
}
);
unicode = 57;
},
{
glyphname = colon;
layers = (
{
hints = (
{
origin = (0,8);
target = (0,2);
type = Stem;
},
{
horizontal = 1;
place = (0,215);
type = Stem;
},
{
horizontal = 1;
place = (0,475);
type = Stem;
}
);
layerId = "FF4B10EE-E0A2-40F6-A8A2-E17FFC9F153D";
shapes = (
{
closed = 1;
nodes = (
(98.56,414.97,o),
(111.99,428.4,o),
(111.99,444.97,cs,{name = .dh02;}),
(111.99,461.53,o),
(98.56,474.97,o),
(82,474.97,cs,{name = .dv04;}),
(65.43,474.97,o),
(52,461.53,o),
(52,444.97,cs,{name = .dh01;}),
(52,428.4,o),
(65.43,414.97,o),
(82,414.97,cs,{name = .dv03;})
);
},
{
closed = 1;
nodes = (
(98.56,155,o),
(111.99,168.43,o),
(111.99,185,cs,{name = .sh01;}),
(111.99,201.56,o),
(98.56,214.99,o),
(82,214.99,cs,{name = .dv02;}),
(65.43,214.99,o),
(52,201.56,o),
(52,185,cs,{name = .sh02;}),
(52,168.43,o),
(65.43,155,o),
(82,155,cs,{name = .dv01;})
);
}
);
width = 164;
},
{
hints = (
{
origin = (0,8);
target = (0,2);
type = Stem;
},
{
horizontal = 1;
place = (0,235);
type = Stem;
},
{
horizontal = 1;
place = (0,483);
type = Stem;
}
);
layerId = "70A4CCFB-79CB-4069-A047-BEFA4B9EF1C4";
shapes = (
{
closed = 1;
nodes = (
(120.223,395.518,o),
(139.74,415.034,o),
(139.74,439.112,cs),
(139.74,463.176,o),
(120.223,482.706,o),
(96.156,482.706,cs),
(72.078,482.706,o),
(52.562,463.176,o),
(52.562,439.112,cs),
(52.562,415.034,o),
(72.078,395.518,o),
(96.156,395.518,cs)
);
},
{
closed = 1;
nodes = (
(120.223,147.734,o),
(139.74,167.25,o),
(139.74,191.328,cs),
(139.74,215.395,o),
(120.223,234.912,o),
(96.156,234.912,cs),
(72.078,234.912,o),
(52.562,215.395,o),
(52.562,191.328,cs),
(52.562,167.25,o),
(72.078,147.734,o),
(96.156,147.734,cs)
);
}
);
width = 192;
}
);
unicode = 58;
},
{
glyphname = semicolon;
layers = (
{
hints = (
{
origin = (0,8);
target = (0,2);
type = Stem;
},
{
horizontal = 1;
place = (0,210);
type = Stem;
}
);
layerId = "FF4B10EE-E0A2-40F6-A8A2-E17FFC9F153D";
shapes = (
{
closed = 1;
nodes = (
(125.81,150.43,o),
(139.24,163.86,o),
(139.24,180.43,cs,{name = .dh02;}),
(139.24,196.99,o),
(125.81,210.42,o),
(109.24,210.42,cs,{name = .dv02;}),
(92.68,210.42,o),
(79.25,196.99,o),
(79.25,180.43,cs,{name = .dh01;}),
(79.25,163.86,o),
(92.68,150.43,o),
(109.24,150.43,cs,{name = .dv01;})
);
},
{
closed = 1;
nodes = (
(4,-90.01,l),
(17.94,-96.98,o),
(34.9,-91.34,o),
(41.87,-77.39,cs),
(109.24,57.36,l),
(95.3,64.33,o),
(78.36,58.69,o),
(71.37,44.73,c)
);
}
);
width = 189;
},
{
hints = (
{
origin = (0,8);
target = (0,2);
type = Stem;
},
{
horizontal = 1;
place = (0,231);
type = Stem;
},
{
horizontal = 1;
origin = (1,3);
target = down;
type = TopGhost;
}
);
layerId = "70A4CCFB-79CB-4069-A047-BEFA4B9EF1C4";
shapes = (
{
closed = 1;
nodes = (
(171.497,143.379,o),
(191.013,162.894,o),
(191.013,186.972,cs),
(191.013,211.039,o),
(171.497,230.557,o),
(147.419,230.557,cs),
(123.352,230.557,o),
(103.835,211.039,o),
(103.835,186.972,cs),
(103.835,162.894,o),
(123.352,143.379,o),
(147.419,143.379,cs)
);
},
{
closed = 1;
nodes = (
(26.987,-77.499,l),
(41.658,-84.834,o),
(52.751,-88.433,o),
(59.128,-88.638,c),
(74.113,-88.262,o),
(89.453,-79.821,o),
(96.625,-65.467,cs),
(167.543,76.38,l),
(152.429,83.937,o),
(141.718,87.518,o),
(135.408,87.518,cs),
(120.051,87.518,o),
(105.266,79.037,o),
(97.91,64.345,cs)
);
}
);
width = 218;
}
);
unicode = 59;
},
{
glyphname = less;
layers = (
{
layerId = "FF4B10EE-E0A2-40F6-A8A2-E17FFC9F153D";
shapes = (
{
closed = 1;
nodes = (
(101.602,283.399,l),
(476.398,471.114,l),
(469.414,485.054,o),
(452.44,490.698,o),
(438.499,483.714,cs),
(63.789,296.027,ls),
(59.019,293.628,o),
(56,288.732,o),
(56,283.399,cs),
(56,278.065,o),
(59.02,273.169,o),
(63.789,270.785,cs),
(438.527,83,ls),
(452.454,76.016,o),
(469.414,81.645,o),
(476.398,95.571,c)
);
}
);
width = 533;
},
{
hints = (
{
horizontal = 1;
origin = (0,4);
target = down;
type = TopGhost;
},
{
horizontal = 1;
origin = (0,18);
target = down;
type = TopGhost;
}
);
layerId = "70A4CCFB-79CB-4069-A047-BEFA4B9EF1C4";
shapes = (
{
closed = 1;
nodes = (
(148.539,285.111,l),
(492.409,457.337,l),
(480.803,480.503,o),
(463.546,493.895,o),
(448.187,493.895,cs),
(441.866,493.895,o),
(435.457,492.467,o),
(429.438,489.451,cs),
(72.282,310.557,ls),
(62.67,305.723,o),
(56.587,295.859,o),
(56.587,285.115,cs),
(56.587,274.36,o),
(62.681,264.486,o),
(72.304,259.675,cs),
(429.463,80.699,ls),
(435.48,77.681,o),
(441.892,76.251,o),
(448.216,76.251,cs),
(463.559,76.251,o),
(480.803,89.628,o),
(492.413,112.779,c)
);
}
);
width = 549;
}
);
unicode = 60;
},
{
glyphname = equal;
layers = (
{
hints = (
{
horizontal = 1;
origin = (0,7);
target = (0,4);
type = Stem;
},
{
horizontal = 1;
place = (350,28);
type = Stem;
}
);
layerId = "FF4B10EE-E0A2-40F6-A8A2-E17FFC9F153D";
shapes = (
{
closed = 1;
nodes = (
(254.76,200,ls),
(270.34,200,o),
(282.98,212.64,o),
(282.98,228.22,c),
(71.22,228.22,ls,{name = .dv02;}),
(55.64,228.22,o),
(43,215.59,o),
(43,200,c,{name = .dv01;})
);
},
{
closed = 1;
nodes = (
(71.22,377.73,ls,{name = .dv04;}),
(55.64,377.73,o),
(43,365.1,o),
(43,349.51,c,{name = .dv03;}),
(254.76,349.51,ls),
(270.34,349.51,o),
(282.98,362.15,o),
(282.98,377.73,c)
);
}
);
width = 326;
},
{
hints = (
{
horizontal = 1;
place = (0,248);
type = Stem;
},
{
horizontal = 1;
place = (333,57);
type = Stem;
}
);
layerId = "70A4CCFB-79CB-4069-A047-BEFA4B9EF1C4";
shapes = (
{
closed = 1;
nodes = (
(260.468,190.625,ls),
(283.599,190.625,o),
(302.365,216.11,o),
(302.365,247.522,c),
(85.532,247.522,ls),
(62.401,247.522,o),
(43.635,222.058,o),
(43.635,190.625,c)
);
},
{
closed = 1;
nodes = (
(85.532,390.024,ls),
(62.401,390.024,o),
(43.635,364.559,o),
(43.635,333.127,c),
(260.468,333.127,ls),
(283.599,333.127,o),
(302.365,358.612,o),
(302.365,390.024,c)
);
}
);
width = 346;
}
);
unicode = 61;
},
{
glyphname = greater;
layers = (
{
layerId = "FF4B10EE-E0A2-40F6-A8A2-E17FFC9F153D";
shapes = (
{
closed = 1;
nodes = (
(430.781,283.311,l),
(56,95.596,l),
(62.984,81.656,o),
(79.944,76.012,o),
(93.899,82.996,cs),
(468.609,270.683,ls),
(473.378,273.082,o),
(476.398,277.978,o),
(476.398,283.311,cs),
(476.398,288.645,o),
(473.378,293.541,o),
(468.609,295.925,cs),
(93.87,483.725,ls),
(79.944,490.695,o),
(62.984,485.065,o),
(56,471.139,c)
);
}
);
width = 533;
},
{
hints = (
{
horizontal = 1;
origin = (0,4);
target = down;
type = TopGhost;
},
{
horizontal = 1;
origin = (0,18);
target = down;
type = TopGhost;
}
);
layerId = "70A4CCFB-79CB-4069-A047-BEFA4B9EF1C4";
shapes = (
{
closed = 1;
nodes = (
(400.448,285.035,l),
(56.591,112.808,l),
(68.197,89.642,o),
(85.445,76.25,o),
(100.807,76.25,cs),
(107.126,76.25,o),
(113.536,77.678,o),
(119.559,80.693,cs),
(476.719,259.589,ls),
(486.328,264.423,o),
(492.413,274.287,o),
(492.413,285.031,cs),
(492.413,295.786,o),
(486.319,305.66,o),
(476.696,310.47,cs),
(119.533,489.462,ls),
(113.517,492.473,o),
(107.113,493.9,o),
(100.797,493.9,cs),
(85.45,493.9,o),
(68.2,480.523,o),
(56.587,457.367,c)
);
}
);
width = 549;
}
);
unicode = 62;
},
{
glyphname = question;
layers = (
{
hints = (
{
origin = (0,8);
target = (0,2);
type = Stem;
},
{
origin = (1,20);
target = (1,24);
type = Stem;
},
{
horizontal = 1;
place = (0,60);
type = Stem;
},
{
horizontal = 1;
place = (612,28);
type = Stem;
}
);
layerId = "FF4B10EE-E0A2-40F6-A8A2-E17FFC9F153D";
shapes = (
{
closed = 1;
nodes = (
(248.652,0,o),
(262.082,13.43,o),
(262.082,29.997,cs,{name = .dh02;}),
(262.082,46.564,o),
(248.652,59.994,o),
(232.085,59.994,cs,{name = .sv01;}),
(215.518,59.994,o),
(202.088,46.564,o),
(202.088,29.997,cs,{name = .dh01;}),
(202.088,13.43,o),
(215.518,0,o),
(232.085,0,cs,{name = .ab01;})
);
},
{
closed = 1;
nodes = (
(147.242,637.922,o),
(60.751,590.165,o),
(58,490.198,c),
(73.055,489.789,o),
(86.022,500.259,o),
(89.338,514.947,cs),
(103.899,579.484,o),
(166.183,609.96,o),
(227.147,611.654,cs,{name = .sv02;}),
(295.188,613.544,o),
(371.376,577.326,o),
(377.866,494.558,c),
(379.418,459.185,o),
(360.794,426.804,o),
(316.743,388.919,c),
(216.155,289.559,o),
(217.27,239.131,o),
(218.469,185.754,cs,{name = .ih01;}),
(218.653,177.443,o),
(218.681,168.822,o),
(218.469,159.99,c,{name = .sh01;}),
(221.094,159.99,ls),
(235.471,159.99,o),
(246.995,171.757,o),
(246.675,186.135,cs,{name = .sh02;}),
(245.528,237.593,o),
(244.629,278.031,o),
(335.848,368.178,c),
(367.228,395.142,o),
(408.611,437.696,o),
(406.029,496.294,c),
(398.071,597.855,o),
(307.006,641.859,o),
(226.441,639.874,cs,{name = .at01;})
);
}
);
width = 470;
},
{
hints = (
{
origin = (0,8);
target = (0,2);
type = Stem;
},
{
origin = (1,30);
target = (1,38);
type = Stem;
},
{
horizontal = 1;
place = (0,87);
type = Stem;
},
{
horizontal = 1;
origin = (1,10);
target = (1,48);
type = Stem;
}
);
layerId = "70A4CCFB-79CB-4069-A047-BEFA4B9EF1C4";
shapes = (
{
closed = 1;
nodes = (
(266.794,0,o),
(286.311,19.516,o),
(286.311,43.591,cs),
(286.311,67.666,o),
(266.794,87.182,o),
(242.72,87.182,cs),
(218.645,87.182,o),
(199.129,67.666,o),
(199.129,43.591,cs),
(199.129,19.516,o),
(218.645,0,o),
(242.72,0,cs)
);
},
{
closed = 1;
nodes = (
(237.063,639.877,l),
(154.677,637.847,o),
(64.56,582.916,o),
(61.382,467.428,c),
(77.505,467.21,ls),
(98.642,467.21,o),
(116.658,481.964,o),
(121.296,502.507,cs),
(133.252,555.498,o),
(186.984,580.968,o),
(238.373,582.986,c),
(242.891,583.049,l),
(298.391,582.306,o),
(360.126,550.35,o),
(366.683,485.503,c),
(366.751,482.418,l),
(366.346,455.301,o),
(349.818,428.162,o),
(313.248,396.711,c),
(223.303,307.863,o),
(214.496,257.179,o),
(214.496,208.464,cs),
(214.496,202.983,o),
(214.622,197.194,o),
(214.746,191.71,cs),
(214.836,187.615,o),
(214.884,183.767,o),
(214.884,179.522,cs),
(214.884,175.565,o),
(214.475,156.551,o),
(214.378,152.491,c),
(232.244,152.491,ls),
(254.074,152.491,o),
(271.631,170.16,o),
(271.631,191.936,c),
(271.623,192.661,l),
(271.504,198.01,o),
(271.39,202.983,o),
(271.39,208.157,cs),
(271.39,246.342,o),
(280.964,284.182,o),
(351.836,354.925,c),
(382.952,381.842,o),
(423.618,424.364,o),
(423.618,483.225,c),
(423.485,488.782,l),
(415.291,593.355,o),
(324.507,640.955,o),
(242.221,639.941,cs)
);
}
);
width = 485;
}
);
unicode = 63;
},
{
glyphname = at;
layers = (
{
hints = (
{
place = (0,125);
type = Stem;
},
{
origin = (0,7);
target = (1,3);
type = Stem;
},
{
origin = (1,9);
target = (0,19);
type = Stem;
},
{
origin = (2,23);
target = (2,36);
type = Stem;
},
{
horizontal = 1;
origin = (2,2);
target = (2,14);
type = Stem;
},
{
horizontal = 1;
origin = (0,18);
target = (0,14);
type = Stem;
},
{
horizontal = 1;
origin = (1,6);
target = (0,4);
type = Stem;
},
{
horizontal = 1;
origin = (2,20);
target = (2,39);
type = Stem;
}
);
layerId = "70A4CCFB-79CB-4069-A047-BEFA4B9EF1C4";
shapes = (
{
closed = 1;
nodes = (
(381.798,311.416,l),
(408.375,320.955,l),
(384.647,349.75,o),
(348.714,368.087,o),
(308.51,368.087,cs),
(237.065,368.087,o),
(179.138,310.18,o),
(179.138,238.73,cs),
(179.138,166.524,o),
(237.043,109.377,o),
(308.424,109.377,cs),
(348.71,109.377,o),
(384.65,127.835,o),
(408.385,156.7,c),
(381.798,166.227,l),
(381.798,155.263,ls),
(381.798,132.132,o),
(407.283,113.365,o),
(438.696,113.365,c),
(438.696,355.087,l),
(407.283,355.087,o),
(381.798,336.35,o),
(381.798,313.19,cs)
);
},
{
closed = 1;
nodes = (
(308.488,166.263,l),
(269.206,167.062,o),
(236.033,199.277,o),
(236.033,238.731,cs),
(236.033,278.68,o),
(268.543,311.19,o),
(308.501,311.19,cs),
(347.965,311.19,o),
(380.161,278.012,o),
(380.959,238.742,c),
(380.951,237.638,l),
(379.619,199.826,o),
(347.536,166.832,o),
(309.641,166.271,c)
);
},
{
closed = 1;
nodes = (
(67.768,111.723,o),
(180.343,0.002,o),
(311.489,0.002,cs),
(340.046,0.002,o),
(370.953,6.446,o),
(402.741,17.692,c),
(402.741,43.795,o),
(386.279,64.048,o),
(367.189,64.048,cs),
(364.236,64.048,o),
(361.23,63.677,o),
(358.223,62.893,cs),
(343.299,59.001,o),
(327.658,56.908,o),
(311.528,56.908,cs),
(208.267,56.908,o),
(124.665,141.052,o),
(124.665,243.731,cs),
(124.665,346.742,o),
(208.486,430.558,o),
(311.504,430.558,cs),
(413.507,430.558,o),
(498.325,344.993,o),
(498.325,243.726,cs),
(498.325,214.481,o),
(491.536,186.806,o),
(479.486,162.154,cs),
(477.165,157.389,o),
(476.097,152.431,o),
(476.097,147.58,cs),
(476.097,130.119,o),
(493.761,114.366,o),
(518.025,114.366,c),
(541.541,154.962,o),
(555.581,199.291,o),
(555.232,243.807,cs),
(555.202,247.549,l),
(553.121,379.822,o),
(441.842,487.442,o),
(311.044,487.442,cs),
(176.867,487.442,o),
(67.768,377.978,o),
(67.768,243.724,cs)
);
}
);
width = 623;
},
{
hints = (
{
origin = (1,8);
target = (0,16);
type = Stem;
},
{
origin = (1,8);
target = (2,32);
type = Stem;
},
{
horizontal = 1;
origin = (0,13);
target = (0,20);
type = Stem;
},
{
horizontal = 1;
origin = (0,3);
target = (2,20);
type = Stem;
},
{
horizontal = 1;
place = (450,30);
type = Stem;
},
{
horizontal = 1;
origin = (1,5);
target = (0,3);
type = Stem;
}
);
layerId = "FF4B10EE-E0A2-40F6-A8A2-E17FFC9F153D";
shapes = (
{
closed = 1;
nodes = (
(399.622,316.24,l,{name = .ih01;}),
(377.612,342.95,o),
(344.282,359.96,o),
(306.992,359.96,cs,{name = .sv02;}),
(232.862,359.96,o),
(174.422,292.75,o),
(189.332,215.93,cs),
(198.422,169.14,o),
(236.102,131.44,o),
(282.882,122.34,cs),
(329.752,113.23,o),
(372.972,131.5,o),
(399.622,163.91,c,{name = .sh01;}),
(399.622,148.21,ls,{name = .dv01;}),
(399.622,132.63,o),
(412.262,119.99,o),
(427.842,119.99,c,{name = .dh02;}),
(427.842,359.96,l,{name = .sv03;}),
(412.262,359.96,o),
(399.622,347.34,o),
(399.622,331.74,c,{name = .dv02;})
);
},
{
closed = 1;
nodes = (
(257.112,147.47,o),
(215.212,188.93,o),
(215.212,239.98,cs),
(215.212,290.57,o),
(256.382,331.74,o),
(306.982,331.74,cs,{name = .sv05;}),
(358.042,331.74,o),
(399.475,289.84,o),
(398.732,238.62,cs,{name = .dh01;}),
(398.025,189.93,o),
(357.022,148.94,o),
(308.352,148.22,cs,{name = .sv04;})
);
},
{
closed = 1;
nodes = (
(159.561,471.975,o),
(55.222,355.12,o),
(68.072,216.98,cs),
(77.822,112.2,o),
(157.702,25,o),
(260.912,4.56,cs),
(305.832,-4.35,o),
(348.502,0.34,o),
(386.972,13.95,c),
(386.972,28.1,o),
(373.672,38.59,o),
(359.972,35.02,cs),
(332.902,27.96,o),
(303.752,26.12,o),
(273.582,30.86,cs),
(180.912,45.4,o),
(107.442,121.72,o),
(96.672,214.9,cs),
(80.802,352.2,o),
(197.262,467.608,o),
(334.862,449.94,cs,{name = .sv01;}),
(425.842,438.258,o),
(500.462,366.79,o),
(515.672,276.32,cs),
(523.492,229.8,o),
(515.942,185.48,o),
(497.372,147.49,cs),
(491.172,134.76,o),
(500.422,119.99,o),
(514.592,119.99,c),
(535.642,156.33,o),
(547.643,198.59,o),
(546.932,243.8,cs,{name = .sh02;}),
(544.813,378.48,o),
(427.641,487.195,o),
(293.152,479.56,cs,{name = .at01;})
);
}
);
width = 614;
}
);
unicode = 64;
},
{
glyphname = A;
layers = (
{
hints = (
{
horizontal = 1;
place = (225,28);
type = Stem;
},
{
horizontal = 1;
place = (0,21);
target = up;
type = BottomGhost;
},
{
horizontal = 1;
place = (640,-20);
target = down;
type = TopGhost;
}
);
layerId = "FF4B10EE-E0A2-40F6-A8A2-E17FFC9F153D";
shapes = (
{
closed = 1;
nodes = (
(359,632,ls,{name = .at01;}),
(357,637,o),
(352,640,o),
(347,640,cs,{name = .at02;}),
(341,640,o),
(336.408,636.817,o),
(334,632,cs,{name = .at03;}),
(18,0,l,{name = .ab01;}),
(37,0,o),
(55.433,10.778,o),
(64,28,cs),
(162,225,l,{name = .dv01;}),
(531,225,l),
(630,28,ls),
(638,11,o),
(656,0,o),
(675,0,c,{name = .ab02;})
);
},
{
closed = 1;
nodes = (
(176,253,l,{name = .dv02;}),
(347,594,l),
(517,253,l)
);
}
);
width = 694;
},
{
hints = (
{
horizontal = 1;
place = (214,57);
type = Stem;
},
{
horizontal = 1;
origin = (0,7);
target = up;
type = BottomGhost;
},
{
horizontal = 1;
origin = (0,3);
target = down;
type = TopGhost;
}
);
layerId = "70A4CCFB-79CB-4069-A047-BEFA4B9EF1C4";
shapes = (
{
closed = 1;
nodes = (
(381.605,624.049,l),
(377.1,634.114,o),
(366.941,640,o),
(356.734,640,cs),
(344.835,640,o),
(335.719,633.666,o),
(330.927,624.083,cs),
(18.886,0,l),
(56.878,0,o),
(89.719,13.475,o),
(100.43,35.007,cs),
(189.698,214.453,l),
(522.86,214.453,l),
(613.066,34.952,l),
(612.896,35.301,l),
(622.982,13.868,o),
(655.347,0,o),
(693.63,0,c)
);
},
{
closed = 1;
nodes = (
(218.052,271.141,l),
(356.695,547.615,l),
(494.527,271.141,l)
);
}
);
width = 713;
}
);
leftKerningGroup = A2;
rightKerningGroup = A;
unicode = 65;
},
{
glyphname = B;
layers = (
{
hints = (
{
place = (79,28);
type = Stem;
},
{
origin = (1,4);
target = (0,3);
type = Stem;
},
{
place = (0,557);
type = Stem;
},
{
horizontal = 1;
origin = (0,14);
target = (2,4);
type = Stem;
},
{
horizontal = 1;
origin = (2,5);
target = (1,9);
type = Stem;
},
{
horizontal = 1;
place = (0,640);
type = Stem;
}
);
layerId = "FF4B10EE-E0A2-40F6-A8A2-E17FFC9F153D";
shapes = (
{
closed = 1;
nodes = (
(453.287,362.392,o),
(481.761,411.705,o),
(481.761,467.537,cs),
(481.761,478.218,ls,{name = .dh03;}),
(481.761,567.504,o),
(409.378,639.873,o),
(320.106,639.873,cs,{name = .at01;}),
(99.12,639.873,ls),
(88.002,639.873,o),
(79,630.871,o),
(79,619.752,cs,{name = .dh01;}),
(79,20.232,ls),
(79,9.128,o),
(88.002,0.126,o),
(99.106,0.126,cs,{name = .ab01;}),
(395.014,0.126,ls),
(484.3,0.126,o),
(556.669,72.509,o),
(556.669,161.781,cs,{name = .dh05;}),
(556.669,172.462,ls),
(556.669,256.499,o),
(492.188,325.707,o),
(410.112,333.34,c,{name = .sv01;})
);
},
{
closed = 1;
nodes = (
(107.219,611.654,l,{name = .sv02;}),
(320.106,611.654,ls),
(393.688,611.654,o),
(453.541,551.8,o),
(453.541,478.218,cs,{name = .dh02;}),
(453.541,467.537,ls),
(453.541,393.955,o),
(393.688,334.102,o),
(320.106,334.102,cs),
(107.219,334.102,l,{name = .dv02;})
);
},
{
closed = 1;
nodes = (
(528.45,161.766,ls,{name = .dh04;}),
(528.45,88.185,o),
(468.596,28.331,o),
(395.014,28.331,cs,{name = .sv03;}),
(107.219,28.331,l,{name = .sh01;}),
(107.219,305.883,l,{name = .dv01;}),
(395.014,305.883,ls),
(468.596,305.883,o),
(528.45,246.029,o),
(528.45,172.448,cs)
);
}
);
width = 599;
},
{
hints = (
{
place = (79,57);
type = Stem;
},
{
origin = (1,4);
target = (0,4);
type = Stem;
},
{
place = (0,565);
type = Stem;
},
{
horizontal = 1;
origin = (0,15);
target = (2,4);
type = Stem;
},
{
horizontal = 1;
origin = (2,5);
target = (0,23);
type = Stem;
},
{
horizontal = 1;
place = (0,640);
type = Stem;
}
);
layerId = "70A4CCFB-79CB-4069-A047-BEFA4B9EF1C4";
shapes = (
{
closed = 1;
nodes = (
(446.725,344.354,l),
(474.961,374.575,o),
(493.178,416.091,o),
(493.178,460.621,cs),
(493.178,470.802,ls),
(493.178,564.187,o),
(417.472,639.879,o),
(324.101,639.879,cs),
(113.474,639.879,ls),
(94.588,639.879,o),
(79.297,624.588,o),
(79.297,605.701,cs),
(79.297,34.284,ls),
(79.297,15.416,o),
(94.593,0.12,o),
(113.46,0.12,cs),
(395.498,0.12,ls),
(488.883,0.12,o),
(564.575,75.827,o),
(564.575,169.197,cs),
(564.575,179.378,ls),
(564.575,267.277,o),
(497.128,339.666,o),
(411.277,347.65,c)
);
},
{
closed = 1;
nodes = (
(136.193,582.983,l),
(324.101,582.983,ls),
(385.962,582.983,o),
(436.281,532.663,o),
(436.281,470.802,cs),
(436.281,460.621,ls),
(436.281,398.76,o),
(385.962,348.441,o),
(324.101,348.441,cs),
(136.193,348.441,l)
);
},
{
closed = 1;
nodes = (
(507.679,169.183,ls),
(507.679,107.323,o),
(457.359,57.003,o),
(395.498,57.003,cs),
(136.193,57.003,l),
(136.193,291.545,l),
(395.498,291.545,ls),
(457.359,291.545,o),
(507.679,241.225,o),
(507.679,179.365,cs)
);
}
);
width = 607;
}
);
leftKerningGroup = B;
unicode = 66;
},
{
glyphname = C;
layers = (
{
hints = (
{
origin = (0,20);
target = (0,5);
type = Stem;
},
{
horizontal = 1;
origin = (0,23);
target = (0,2);
type = Stem;
},
{
horizontal = 1;
origin = (0,8);
target = (0,17);
type = Stem;
}
);
layerId = "FF4B10EE-E0A2-40F6-A8A2-E17FFC9F153D";
shapes = (
{
closed = 1;
nodes = (
(452,38,o),
(410,28,o),
(367,28,cs,{name = .sv01;}),
(206,28,o),
(75,159,o),
(75,320,cs,{name = .dh02;}),
(75,481,o),
(206,612,o),
(367,612,cs,{name = .sv02;}),
(410,612,o),
(452,602,o),
(491,584,cs),
(505,578,o),
(521,582,o),
(529,596,c),
(480,625,o),
(424,640,o),
(367,640,c,{name = .at01;}),
(191,640,o),
(47,496,o),
(47,320,cs,{name = .dh01;}),
(47,144,o),
(191,0,o),
(367,0,cs,{name = .ab01;}),
(424,0,o),
(480,15,o),
(529,44,c),
(521,57,o),
(505,62,o),
(491,56,cs)
);
}
);
width = 557;
},
{
hints = (
{
origin = (0,23);
target = (0,5);
type = Stem;
},
{
horizontal = 1;
origin = (0,26);
target = (0,2);
type = Stem;
},
{
horizontal = 1;
origin = (0,8);
target = (0,20);
type = Stem;
}
);
layerId = "70A4CCFB-79CB-4069-A047-BEFA4B9EF1C4";
shapes = (
{
closed = 1;
nodes = (
(444.521,65.756,o),
(406.549,56.688,o),
(367.797,56.688,cs),
(222.614,56.688,o),
(104.484,174.817,o),
(104.484,320,cs),
(104.484,465.183,o),
(222.614,583.312,o),
(367.797,583.312,cs),
(406.549,583.312,o),
(444.521,574.244,o),
(479.887,557.922,c),
(485.907,555.342,o),
(492.157,554.052,o),
(498.251,554.052,cs),
(513,554.052,o),
(529.453,565.517,o),
(542.556,588.447,c),
(485.145,622.425,o),
(424.795,640,o),
(367.797,640,cs),
(191.797,640,o),
(47.797,496,o),
(47.797,320,cs),
(47.797,144,o),
(191.797,0,o),
(367.797,0,cs),
(424.795,0,o),
(485.288,17.66,o),
(542.976,51.802,c),
(529.567,73.591,o),
(512.46,85.776,o),
(497.584,85.776,cs),
(491.72,85.776,o),
(485.773,84.604,o),
(479.887,82.078,c)
);
}
);
width = 571;
}
);
leftKerningGroup = C2;
rightKerningGroup = C;
unicode = 67;
},
{
glyphname = D;
layers = (
{
hints = (
{
place = (0,108);
type = Stem;
},
{
origin = (0,3);
target = (1,5);
type = Stem;
},
{
horizontal = 1;
origin = (1,1);
target = (0,7);
type = Stem;
},
{
horizontal = 1;
place = (0,640);
type = Stem;
}
);
layerId = "FF4B10EE-E0A2-40F6-A8A2-E17FFC9F153D";
shapes = (
{
closed = 1;
nodes = (
(240,612,ls,{name = .sv01;}),
(401,612,o),
(532,481,o),
(532,320,cs,{name = .sh02;}),
(532,159,o),
(401,28,o),
(240,28,cs,{name = .sv02;}),
(108,28,l),
(108,612,l,{name = .sh03;})
);
},
{
closed = 1;
nodes = (
(80,640,l,{name = .at01;}),
(80,0,l,{name = .ab01;}),
(240,0,ls),
(417,0,o),
(560,143,o),
(560,320,cs,{name = .sh01;}),
(560,497,o),
(417,640,o),
(240,640,c)
);
}
);
width = 607;
},
{
hints = (
{
place = (0,137);
type = Stem;
},
{
origin = (0,3);
target = (1,5);
type = Stem;
},
{
horizontal = 1;
origin = (1,1);
target = (0,7);
type = Stem;
},
{
horizontal = 1;
place = (0,640);
type = Stem;
}
);
layerId = "70A4CCFB-79CB-4069-A047-BEFA4B9EF1C4";
shapes = (
{
closed = 1;
nodes = (
(247.75,583.312,ls),
(392.933,583.312,o),
(511.062,465.183,o),
(511.062,320,cs),
(511.062,174.817,o),
(392.933,56.688,o),
(247.75,56.688,cs),
(136.938,56.688,l),
(136.938,583.313,l)
);
},
{
closed = 1;
nodes = (
(80.25,640,l),
(80.25,0,l),
(247.75,0,ls),
(424.75,0,o),
(567.75,143,o),
(567.75,320,cs),
(567.75,497,o),
(424.75,640,o),
(247.75,640,cs)
);
}
);
width = 615;
}
);
rightKerningGroup = D;
unicode = 68;
},
{
glyphname = E;
layers = (
{
hints = (
{
origin = (0,15);
target = (0,7);
type = Stem;
},
{
horizontal = 1;
place = (0,28);
type = Stem;
},
{
horizontal = 1;
origin = (0,1);
target = (0,6);
type = Stem;
},
{
horizontal = 1;
origin = (0,7);
target = (0,12);
type = Stem;
}
);
layerId = "FF4B10EE-E0A2-40F6-A8A2-E17FFC9F153D";
shapes = (
{
closed = 1;
nodes = (
(108,28,l,{name = .sh01;}),
(108,306,l,{name = .dv01;}),
(373,306,ls),
(389,306,o),
(401,319,o),
(401,334,c),
(108,334,l,{name = .dv02;}),
(108,612,l,{name = .sv02;}),
(466,612,ls),
(481,612,o),
(494,624,o),
(494,640,c,{name = .at01;}),
(94,640,ls),
(86,640,o),
(80,634,o),
(80,626,cs,{name = .dh01;}),
(80,14,ls),
(80,6,o),
(86,0,o),
(94,0,cs,{name = .ab01;}),
(494,0,l),
(494,16,o),
(481,28,o),
(466,28,cs,{name = .sv01;})
);
}
);
width = 519;
},
{
hints = (
{
origin = (0,15);
target = (0,7);
type = Stem;
},
{
horizontal = 1;
place = (0,57);
type = Stem;
},
{
horizontal = 1;
origin = (0,1);
target = (0,6);
type = Stem;
},
{
horizontal = 1;
origin = (0,7);
target = (0,12);
type = Stem;
}
);
layerId = "70A4CCFB-79CB-4069-A047-BEFA4B9EF1C4";
shapes = (
{
closed = 1;
nodes = (
(136.938,56.688,l),
(136.938,291.656,l),
(374.516,291.656,ls),
(398.337,291.656,o),
(416.203,317.975,o),
(416.203,348.344,c),
(136.938,348.344,l),
(136.938,583.312,l),
(463.156,583.312,ls),
(485.489,583.312,o),
(504.844,607.607,o),
(504.844,640,c),
(108.594,640,ls),
(92.397,640,o),
(80.25,627.853,o),
(80.25,611.656,cs),
(80.25,28.344,ls),
(80.25,12.147,o),
(92.397,0,o),
(108.594,0,cs),
(504.844,0,l),
(504.844,32.393,o),
(485.489,56.688,o),
(463.156,56.688,cs)
);
}
);
width = 530;
}
);
leftKerningGroup = B;
rightKerningGroup = E;
unicode = 69;
},
{
glyphname = F;
layers = (
{
hints = (
{
origin = (0,3);
target = (0,14);
type = Stem;
},
{
horizontal = 1;
origin = (0,8);
target = (0,13);
type = Stem;
},
{
horizontal = 1;
origin = (0,17);
target = (0,21);
type = Stem;
},
{
horizontal = 1;
origin = (0,4);
target = up;
type = BottomGhost;
}
);
layerId = "FF4B10EE-E0A2-40F6-A8A2-E17FFC9F153D";
shapes = (
{
closed = 1;
nodes = (
(249,640,ls,{name = .at01;}),
(152,640,o),
(74,562,o),
(74,465,cs,{name = .dh01;}),
(74,0,l,{name = .ab01;}),
(90,0,o),
(102,13,o),
(102,28,cs,{name = .sh01;}),
(102,292,l,{name = .dv01;}),
(300,292,ls),
(315,292,o),
(328,304,o),
(328,320,c),
(102,320,l,{name = .dv02;}),
(102,465,ls,{name = .dh02;}),
(102,546,o),
(168,612,o),
(249,612,cs,{name = .sv01;}),
(380,612,ls),
(395,612,o),
(408,624,o),
(408,640,c)
);
}
);
width = 425;
},
{
hints = (
{
origin = (0,3);
target = (0,14);
type = Stem;
},
{
horizontal = 1;
origin = (0,8);
target = (0,13);
type = Stem;
},
{
horizontal = 1;
place = (583,57);
type = Stem;
},
{
horizontal = 1;
origin = (0,4);
target = up;
type = BottomGhost;
}
);
layerId = "70A4CCFB-79CB-4069-A047-BEFA4B9EF1C4";
shapes = (
{
closed = 1;
nodes = (
(256.328,640,ls),
(155.561,640,o),
(74.531,558.971,o),
(74.531,458.203,cs),
(74.531,0,l),
(106.924,0,o),
(131.219,19.355,o),
(131.219,41.688,cs),
(131.219,278.312,l),
(304.938,278.312,ls),
(327.27,278.312,o),
(346.625,302.607,o),
(346.625,335,c),
(131.219,335,l),
(131.219,458.203,ls),
(131.219,527.141,o),
(187.39,583.312,o),
(256.328,583.312,cs),
(381.188,583.312,ls),
(403.52,583.312,o),
(422.875,607.607,o),
(422.875,640,c)
);
}
);
width = 440;
}
);
unicode = 70;
},
{
glyphname = G;
layers = (
{
hints = (
{
origin = (0,25);
target = (0,10);
type = Stem;
},
{
horizontal = 1;
origin = (0,28);
target = (0,7);
type = Stem;
},
{
horizontal = 1;
place = (235,28);
type = Stem;
},
{
horizontal = 1;
origin = (0,13);
target = (0,22);
type = Stem;
}
);
layerId = "FF4B10EE-E0A2-40F6-A8A2-E17FFC9F153D";
shapes = (
{
closed = 1;
nodes = (
(433,263,l,{name = .dv02;}),
(433,247,o),
(446,235,o),
(461,235,cs,{name = .dv01;}),
(652,235,l),
(614,112,o),
(501,28,o),
(370,28,cs,{name = .sv01;}),
(207,28,o),
(75,159,o),
(75,320,cs,{name = .dh02;}),
(75,481,o),
(207,612,o),
(370,612,cs,{name = .sv02;}),
(494,612,o),
(604,535,o),
(646,422,cs),
(652,407,o),
(667,399,o),
(682,403,c),
(644,543,o),
(516,640,o),
(370,640,cs,{name = .at01;}),
(192,640,o),
(47,496,o),
(47,320,cs,{name = .dh01;}),
(47,144,o),
(192,0,o),
(370,0,cs,{name = .ab01;}),
(512,0,o),
(635,90,o),
(678,222,cs),
(682,235,o),
(684,249,o),
(684,263,c)
);
}
);
width = 730;
},
{
hints = (
{
origin = (0,28);
target = (0,10);
type = Stem;
},
{
horizontal = 1;
origin = (0,31);
target = (0,7);
type = Stem;
},
{
horizontal = 1;
place = (224,57);
type = Stem;
},
{
horizontal = 1;
origin = (0,13);
target = (0,25);
type = Stem;
}
);
layerId = "70A4CCFB-79CB-4069-A047-BEFA4B9EF1C4";
shapes = (
{
closed = 1;
nodes = (
(415.703,280.672,l),
(415.703,248.279,o),
(435.058,223.984,o),
(457.391,223.984,cs),
(618.242,223.984,l),
(578.86,123.13,o),
(482.218,56.688,o),
(370.656,56.688,cs),
(223.585,56.688,o),
(104.484,174.817,o),
(104.484,320,cs),
(104.484,465.183,o),
(223.585,583.312,o),
(370.656,583.312,cs),
(482.55,583.312,o),
(581.816,513.813,o),
(619.725,411.82,cs),
(626.835,394.046,o),
(642.94,383.133,o),
(660.66,383.133,cs),
(664.374,383.133,o),
(672.872,384.876,o),
(686.454,388.498,c),
(646.129,537.065,o),
(516.575,640,o),
(370.656,640,cs),
(192.734,640,o),
(47.797,496,o),
(47.797,320,cs),
(47.797,144,o),
(192.734,0,o),
(370.656,0,cs),
(522.832,0,o),
(684.937,119.934,o),
(684.937,280.672,c)
);
}
);
width = 733;
}
);
unicode = 71;
},
{
glyphname = H;
layers = (
{
hints = (
{
origin = (0,5);
target = (0,2);
type = Stem;
},
{
origin = (0,19);
target = (0,16);
type = Stem;
},
{
horizontal = 1;
origin = (0,10);
target = (0,1);
type = Stem;
},
{
horizontal = 1;
origin = (0,6);
target = up;
type = BottomGhost;
},
{
horizontal = 1;
origin = (0,2);
target = down;
type = TopGhost;
}
);
layerId = "FF4B10EE-E0A2-40F6-A8A2-E17FFC9F153D";
shapes = (
{
closed = 1;
nodes = (
(532,334,l),
(108,334,l,{name = .dv02;}),
(108,640,l,{name = .at01;}),
(93,640,o),
(80,627,o),
(80,612,cs,{name = .sh02;}),
(80,0,l,{name = .ab01;}),
(96,0,o),
(108,13,o),
(108,28,cs,{name = .sh03;}),
(108,306,l,{name = .dv01;}),
(532,306,l,{name = .sh04;}),
(532,0,l,{name = .ab02;}),
(547,0,o),
(560,13,o),
(560,28,cs),
(560,640,l,{name = .at02;}),
(544,640,o),
(532,627,o),
(532,612,c,{name = .sh01;})
);
}
);
width = 640;
},
{
hints = (
{
origin = (0,5);
target = (0,2);
type = Stem;
},
{
origin = (0,19);
target = (0,16);
type = Stem;
},
{
horizontal = 1;
origin = (0,10);
target = (0,1);
type = Stem;
},
{
horizontal = 1;
origin = (0,6);
target = up;
type = BottomGhost;
},
{
horizontal = 1;
origin = (0,2);
target = down;
type = TopGhost;
}
);
layerId = "70A4CCFB-79CB-4069-A047-BEFA4B9EF1C4";
shapes = (
{
closed = 1;
nodes = (
(511.062,348.344,l),
(136.938,348.344,l),
(136.938,640,l),
(106.569,640,o),
(80.25,620.645,o),
(80.25,598.312,cs),
(80.25,0,l),
(112.643,0,o),
(136.938,19.355,o),
(136.938,41.688,cs),
(136.938,291.656,l),
(511.062,291.656,l),
(511.062,0,l),
(541.431,0,o),
(567.75,19.355,o),
(567.75,41.688,cs),
(567.75,640,l),
(535.357,640,o),
(511.062,620.645,o),
(511.062,598.312,cs)
);
}
);
width = 648;
}
);
leftKerningGroup = B;
rightKerningGroup = H;
unicode = 72;
},
{
glyphname = I;
layers = (
{
hints = (
{
origin = (0,7);
target = (0,4);
type = Stem;
},
{
horizontal = 1;
place = (0,21);
target = up;
type = BottomGhost;
},
{
horizontal = 1;
origin = (0,4);
target = down;
type = TopGhost;
}
);
layerId = "FF4B10EE-E0A2-40F6-A8A2-E17FFC9F153D";
shapes = (
{
closed = 1;
nodes = (
(80,0,l,{name = .ab01;}),
(96,0,o),
(108,13,o),
(108,28,cs),
(108,640,l,{name = .at01;}),
(93,640,o),
(80,627,o),
(80,612,c,{name = .dh01;})
);
}
);
width = 189;
},
{
hints = (
{
place = (0,137);
type = Stem;
},
{
horizontal = 1;
place = (0,21);
target = up;
type = BottomGhost;
},
{
horizontal = 1;
origin = (0,4);
target = down;
type = TopGhost;
}
);
layerId = "70A4CCFB-79CB-4069-A047-BEFA4B9EF1C4";
shapes = (
{
closed = 1;
nodes = (
(80.25,0,l),
(112.643,0,o),
(136.938,19.355,o),
(136.938,41.688,cs),
(136.938,640,l),
(106.569,640,o),
(80.25,620.645,o),
(80.25,598.312,cs)
);
}
);
width = 218;
}
);
leftKerningGroup = B;
rightKerningGroup = H;
unicode = 73;
},
{
glyphname = J;
layers = (
{
hints = (
{
origin = (0,4);
target = (0,21);
type = Stem;
},
{
horizontal = 1;
origin = (0,17);
target = (0,8);
type = Stem;
},
{
horizontal = 1;
place = (612,28);
type = Stem;
}
);
layerId = "FF4B10EE-E0A2-40F6-A8A2-E17FFC9F153D";
shapes = (
{
closed = 1;
nodes = (
(199,640,l,{name = .at00;}),
(199,624,o),
(212,612,o),
(227,612,cs,{name = .sv00;}),
(345,612,l,{name = .dh00;}),
(345,178,ls),
(345,102,o),
(289.008,35.91,o),
(213,29,cs,{name = .sv02;}),
(135.008,21.91,o),
(68,76,o),
(55,149,c),
(53,164,o),
(40,174,o),
(25,174,c),
(25,73,o),
(111.967,-8.653,o),
(216,1,cs,{name = .ab00;}),
(305.968,9.348,o),
(373,89,o),
(373,179,cs),
(373,626,ls,{name = .dh02;}),
(373,634,o),
(367,640,o),
(359,640,c)
);
}
);
width = 448;
},
{
hints = (
{
origin = (0,4);
target = (0,22);
type = Stem;
},
{
horizontal = 1;
origin = (0,18);
target = (0,8);
type = Stem;
},
{
horizontal = 1;
place = (583,57);
type = Stem;
}
);
layerId = "70A4CCFB-79CB-4069-A047-BEFA4B9EF1C4";
shapes = (
{
closed = 1;
nodes = (
(191.672,640,l),
(191.672,607.607,o),
(211.027,583.312,o),
(233.359,583.312,cs),
(330.828,583.312,l),
(330.828,184.656,ls),
(330.828,114.729,o),
(277.229,57.683,o),
(206.942,57.045,c),
(146.694,58.131,o),
(94.463,101.957,o),
(84.19,159.645,c),
(84.29,158.998,l),
(81.343,181.105,o),
(55.95,195.844,o),
(25.828,195.844,c),
(25.828,88.283,o),
(106.704,0.213,o),
(206.962,0.213,cs),
(308.286,0.213,o),
(387.516,85.27,o),
(387.516,185.609,cs),
(387.516,611.656,ls),
(387.516,627.853,o),
(375.368,640,o),
(359.172,640,cs)
);
}
);
width = 463;
}
);
unicode = 74;
},
{
glyphname = K;
layers = (
{
hints = (
{
origin = (0,8);
target = (0,5);
type = Stem;
},
{
horizontal = 1;
origin = (0,17);
target = up;
type = BottomGhost;
},
{
horizontal = 1;
place = (0,-20);
target = down;
type = TopGhost;
}
);
layerId = "FF4B10EE-E0A2-40F6-A8A2-E17FFC9F153D";
shapes = (
{
closed = 1;
nodes = (
(581,640,l,{name = .at01;}),
(549,640,o),
(518,630,o),
(492,612,cs),
(108,344,l,{name = .iv01;}),
(108,640,l,{name = .at02;}),
(93,640,o),
(80,627,o),
(80,612,cs,{name = .dh01;}),
(80,0,l,{name = .ab01;}),
(96,0,o),
(108,13,o),
(108,28,cs,{name = .sh01;}),
(108,290,l,{name = .iv02;}),
(490,28,ls),
(517,10,o),
(548,0,o),
(581,0,c,{name = .ab02;}),
(119,317,l,{name = .iv03;})
);
}
);
width = 601;
},
{
hints = (
{
origin = (0,8);
target = (0,5);
type = Stem;
},
{
horizontal = 1;
origin = (0,9);
target = up;
type = BottomGhost;
},
{
horizontal = 1;
place = (0,-20);
target = down;
type = TopGhost;
}
);
layerId = "70A4CCFB-79CB-4069-A047-BEFA4B9EF1C4";
shapes = (
{
closed = 1;
nodes = (
(620.399,640,l),
(555.419,640,o),
(506.649,629.51,o),
(479.376,610.629,cs),
(136.937,371.636,l),
(136.937,640,l),
(106.569,640,o),
(80.25,620.645,o),
(80.25,598.312,cs),
(80.25,0,l),
(112.643,0,o),
(136.937,19.355,o),
(136.937,41.688,cs),
(136.937,262.929,l),
(477.629,29.262,ls),
(505.846,10.451,o),
(554.05,0,o),
(621.139,0,c),
(158.766,317.256,l)
);
}
);
width = 642;
}
);
leftKerningGroup = B;
unicode = 75;
},
{
glyphname = L;
layers = (
{
hints = (
{
origin = (0,4);
target = (0,1);
type = Stem;
},
{
horizontal = 1;
place = (0,28);
type = Stem;
},
{
horizontal = 1;
origin = (0,4);
target = down;
type = TopGhost;
}
);
layerId = "FF4B10EE-E0A2-40F6-A8A2-E17FFC9F153D";
shapes = (
{
closed = 1;
nodes = (
(108,28,l),
(108,611,ls,{name = .dh01;}),
(108,626,o),
(96,639,o),
(80,639,c,{name = .at01;}),
(80,14,ls),
(80,6,o),
(86,0,o),
(94,0,cs,{name = .ab01;}),
(400,0,l),
(400,16,o),
(387,28,o),
(372,28,c,{name = .sv01;})
);
}
);
width = 413;
},
{
hints = (
{
origin = (0,4);
target = (0,1);
type = Stem;
},
{
horizontal = 1;
place = (0,57);
type = Stem;
},
{
horizontal = 1;
origin = (0,4);
target = down;
type = TopGhost;
}
);
layerId = "70A4CCFB-79CB-4069-A047-BEFA4B9EF1C4";
shapes = (
{
closed = 1;
nodes = (
(136.938,56.688,l),
(136.938,597.359,ls),
(136.938,619.692,o),
(112.643,639.047,o),
(80.25,639.047,c),
(80.25,28.344,ls),
(80.25,12.147,o),
(92.397,0,o),
(108.594,0,cs),
(415.25,0,l),
(415.25,32.393,o),
(395.895,56.688,o),
(373.562,56.688,cs)
);
}
);
width = 429;
}
);
leftKerningGroup = B;
unicode = 76;
},
{
glyphname = M;
layers = (
{
hints = (
{
horizontal = 1;
origin = (0,12);
target = up;
type = BottomGhost;
},
{
horizontal = 1;
origin = (0,16);
target = down;
type = TopGhost;
}
);
layerId = "FF4B10EE-E0A2-40F6-A8A2-E17FFC9F153D";
shapes = (
{
closed = 1;
nodes = (
(202.785,577.664,l,{name = .iv01;}),
(344.997,191.68,ls),
(347.043,186.121,o),
(352.334,182.452,o),
(358.232,182.452,cs),
(364.129,182.452,o),
(369.435,186.135,o),
(371.466,191.68,cs),
(513.974,578.511,l,{name = .iv02;}),
(656.397,28.219,ls),
(660.701,11.612,o),
(675.685,0,o),
(692.843,0,c,{name = .ab01;}),
(529.989,629.249,ls),
(528.445,635.216,o),
(523.198,639.423,o),
(517.036,639.803,cs,{name = .at01;}),
(511.077,640.171,o),
(505.226,636.375,o),
(503.096,630.59,cs),
(358.232,237.367,l,{name = .iv03;}),
(213.368,630.59,ls),
(211.223,636.403,o),
(205.269,640.34,o),
(199.343,639.789,c,{name = .at02;}),
(193.163,639.465,o),
(187.917,635.104,o),
(186.432,629.094,cs),
(31,0,l,{name = .ab02;}),
(48.073,0,o),
(62.944,11.64,o),
(67.036,28.233,cs)
);
}
);
width = 723;
},
{
hints = (
{
horizontal = 1;
origin = (0,12);
target = up;
type = BottomGhost;
}
);
layerId = "70A4CCFB-79CB-4069-A047-BEFA4B9EF1C4";
shapes = (
{
closed = 1;
nodes = (
(217.112,514.512,l),
(335.75,192.509,ls),
(339.876,181.301,o),
(350.546,173.9,o),
(362.44,173.9,cs),
(374.332,173.9,o),
(385.037,181.338,o),
(389.138,192.536,cs),
(508.377,516.203,l),
(632.108,38.135,ls),
(637.924,15.693,o),
(666.14,0,o),
(700.742,0,c),
(540.667,618.511,ls),
(537.554,630.542,o),
(526.951,639.026,o),
(514.493,639.795,c),
(513.27,639.832,l),
(501.628,639.832,o),
(490.538,632.352,o),
(486.437,621.214,cs),
(362.44,284.632,l),
(238.44,621.22,ls),
(234.393,632.189,o),
(223.301,639.84,o),
(211.711,639.84,c),
(210.26,639.781,l),
(197.743,639.124,o),
(187.126,630.326,o),
(184.131,618.203,cs),
(31.39,0,l),
(65.812,0,o),
(93.904,15.798,o),
(99.457,38.318,cs)
);
}
);
width = 731;
}
);
unicode = 77;
},
{
glyphname = N;
layers = (
{
hints = (
{
origin = (0,4);
target = (0,9);
type = Stem;
},
{
origin = (0,17);
target = (0,14);
type = Stem;
},
{
horizontal = 1;
origin = (0,5);
target = up;
type = BottomGhost;
},
{
horizontal = 1;
origin = (0,14);
target = down;
type = TopGhost;
}
);
layerId = "FF4B10EE-E0A2-40F6-A8A2-E17FFC9F153D";
shapes = (
{
closed = 1;
nodes = (
(560,42,l,{name = .iv01;}),
(118,631,ls),
(106,648,o),
(80,639,o),
(80,619,cs,{name = .sh02;}),
(80,0,l,{name = .ab01;}),
(96,0,o),
(108,13,o),
(108,28,cs),
(108,598,l,{name = .iv02;}),
(550,9,ls),
(562.49,-7.644,o),
(588,1,o),
(588,21,cs),
(588,640,l,{name = .at01;}),
(573,640,o),
(560,627,o),
(560,612,c,{name = .sh01;})
);
}
);
width = 669;
},
{
hints = (
{
origin = (0,8);
target = (0,13);
type = Stem;
},
{
origin = (0,24);
target = (0,21);
type = Stem;
},
{
horizontal = 1;
origin = (0,9);
target = up;
type = BottomGhost;
},
{
horizontal = 1;
origin = (0,21);
target = down;
type = TopGhost;
}
);
layerId = "70A4CCFB-79CB-4069-A047-BEFA4B9EF1C4";
shapes = (
{
closed = 1;
nodes = (
(537.75,100.011,l),
(143.466,625.425,l),
(143.723,625.072,l),
(136.433,635.4,o),
(125.899,639.955,o),
(115.444,639.955,cs),
(97.64,639.955,o),
(80.25,626.166,o),
(80.25,604.984,cs),
(80.25,0,l),
(112.643,0,o),
(136.938,19.355,o),
(136.938,41.688,cs),
(136.938,539.989,l),
(531.221,14.575,ls),
(538.695,4.616,o),
(549.17,0.195,o),
(559.476,0.195,cs),
(577.319,0.195,o),
(594.438,13.783,o),
(594.438,35.016,cs),
(594.438,640,l),
(564.069,640,o),
(537.75,620.645,o),
(537.75,598.312,cs)
);
}
);
width = 676;
}
);
rightKerningGroup = H;
unicode = 78;
},
{
glyphname = O;
layers = (
{
hints = (
{
origin = (0,2);
target = (1,2);
type = Stem;
},
{
origin = (1,8);
target = (0,8);
type = Stem;
},
{
horizontal = 1;
place = (0,33);
type = Stem;
},
{
horizontal = 1;
place = (607,33);
type = Stem;
}
);
layerId = "FF4B10EE-E0A2-40F6-A8A2-E17FFC9F153D";
shapes = (
{
closed = 1;
nodes = (
(190,640,o),
(47,497,o),
(47,320,cs,{name = .sh01;}),
(47,143,o),
(190,0,o),
(367,0,cs,{name = .ab01;}),
(544,0,o),
(687,143,o),
(687,320,cs,{name = .sh02;}),
(687,497,o),
(544,640,o),
(367,640,cs,{name = .at01;})
);
},
{
closed = 1;
nodes = (
(208,33,o),
(80,161,o),
(80,320,cs,{name = .sh03;}),
(80,478,o),
(208,607,o),
(367,607,cs,{name = .sv02;}),
(525,607,o),
(654,478,o),
(654,320,cs,{name = .sh04;}),
(654,161,o),
(525,33,o),
(367,33,cs,{name = .sv01;})
);
}
);
width = 734;
},
{
hints = (
{
origin = (0,2);
target = (1,2);
type = Stem;
},
{
origin = (1,8);
target = (0,8);
type = Stem;
},
{
horizontal = 1;
place = (0,61);
type = Stem;
},
{
horizontal = 1;
place = (579,61);
type = Stem;
}
);
layerId = "70A4CCFB-79CB-4069-A047-BEFA4B9EF1C4";
shapes = (
{
closed = 1;
nodes = (
(190.797,640,o),
(47.797,497,o),
(47.797,320,cs),
(47.797,143,o),
(190.797,0,o),
(367.797,0,cs),
(544.797,0,o),
(687.797,143,o),
(687.797,320,cs),
(687.797,497,o),
(544.797,640,o),
(367.797,640,cs)
);
},
{
closed = 1;
nodes = (
(224.56,61.453,o),
(109.25,176.763,o),
(109.25,320,cs),
(109.25,462.336,o),
(224.56,578.547,o),
(367.797,578.547,cs),
(510.133,578.547,o),
(626.344,462.336,o),
(626.344,320,cs),
(626.344,176.763,o),
(510.133,61.453,o),
(367.797,61.453,cs)
);
}
);
width = 735;
}
);
leftKerningGroup = C2;
rightKerningGroup = D;
unicode = 79;
},
{
glyphname = P;
layers = (
{
hints = (
{
origin = (0,3);
target = (1,1);
type = Stem;
},
{
origin = (1,5);
target = (0,12);
type = Stem;
},
{
horizontal = 1;
place = (292,28);
type = Stem;
},
{
horizontal = 1;
place = (612,28);
type = Stem;
},
{
horizontal = 1;
origin = (0,4);
target = up;
type = BottomGhost;
}
);
layerId = "FF4B10EE-E0A2-40F6-A8A2-E17FFC9F153D";
shapes = (
{
closed = 1;
nodes = (
(100,640,ls),
(89,640,o),
(80,631,o),
(80,620,cs,{name = .sh01;}),
(80,0,l,{name = .ab01;}),
(96,0,o),
(108,13,o),
(108,28,cs,{name = .sh02;}),
(108,292,l,{name = .dv01;}),
(414,292,ls),
(510,292,o),
(588,370,o),
(588,466,cs,{name = .sh03;}),
(588,562,o),
(510,640,o),
(414,640,cs,{name = .at01;})
);
},
{
closed = 1;
nodes = (
(108,320,l,{name = .dv02;}),
(108,612,l,{name = .sv01;}),
(414,612,ls),
(495,612,o),
(560,546,o),
(560,466,cs,{name = .sh04;}),
(560,385,o),
(495,320,o),
(414,320,c)
);
}
);
width = 624;
},
{
hints = (
{
origin = (0,3);
target = (1,1);
type = Stem;
},
{
origin = (1,5);
target = (0,12);
type = Stem;
},
{
horizontal = 1;
place = (278,57);
type = Stem;
},
{
horizontal = 1;
place = (583,57);
type = Stem;
},
{
horizontal = 1;
origin = (0,4);
target = up;
type = BottomGhost;
}
);
layerId = "70A4CCFB-79CB-4069-A047-BEFA4B9EF1C4";
shapes = (
{
closed = 1;
nodes = (
(114.312,640,ls),
(95.578,640,o),
(80.25,624.672,o),
(80.25,605.938,cs),
(80.25,0,l),
(112.643,0,o),
(136.938,19.355,o),
(136.938,41.688,cs),
(136.938,278.312,l),
(413.594,278.312,ls),
(513.37,278.312,o),
(594.438,359.38,o),
(594.438,459.156,cs),
(594.438,558.932,o),
(513.37,640,o),
(413.594,640,cs)
);
},
{
closed = 1;
nodes = (
(136.938,335,l),
(136.938,583.312,l),
(413.594,583.312,ls),
(482.475,583.312,o),
(537.75,527.187,o),
(537.75,459.156,cs),
(537.75,390.275,o),
(482.475,335,o),
(413.594,335,cs)
);
}
);
width = 631;
}
);
unicode = 80;
},
{
glyphname = Q;
layers = (
{
hints = (
{
place = (49,31);
type = Stem;
},
{
origin = (1,5);
target = (0,5);
type = Stem;
},
{
horizontal = 1;
origin = (1,2);
target = (0,8);
type = Stem;
},
{
horizontal = 1;
origin = (0,14);
target = (1,11);
type = Stem;
},
{
horizontal = 1;
origin = (0,14);
target = (1,20);
type = Stem;
},
{
horizontal = 1;
origin = (0,20);
target = up;
type = BottomGhost;
}
);
layerId = "FF4B10EE-E0A2-40F6-A8A2-E17FFC9F153D";
shapes = (
{
closed = 1;
nodes = (
(541.074,-12,o),
(508.14,25,o),
(504.148,70,c),
(568.02,129,o),
(609,218.987,o),
(609,319.732,cs,{name = .sh01;}),
(609,496.285,o),
(484.188,640,o),
(329.499,640,cs,{name = .at01;}),
(174.81,640,o),
(49,496.285,o),
(49,319.732,cs,{name = .sh04;}),
(49,144,o),
(174.81,0,o),
(329.499,0,cs,{name = .ab01;}),
(384.389,0,o),
(435.287,18,o),
(478.2,50,c,{name = .iv01;}),
(492.172,-11,o),
(546.064,-54,o),
(609,-54,c,{name = .av01;}),
(609,-39,o),
(599,-26,o),
(584,-23,c,{name = .sh03;})
);
},
{
closed = 1;
nodes = (
(80,479.328,o),
(191.776,609,o),
(329.499,609,cs,{name = .sv02;}),
(467.222,609,o),
(578,479.328,o),
(578,319.732,cs,{name = .sh02;}),
(578,236.942,o),
(548.06,162,o),
(500.156,110,c,{name = .iv02;}),
(486.184,169,o),
(433.291,214,o),
(369.419,214,c,{name = .sv01;}),
(369.419,199,o),
(379.399,186,o),
(394.369,183,c),
(438.281,172,o),
(472.212,133,o),
(475.206,86,c),
(434.289,51,o),
(383.391,31,o),
(329.499,31,cs,{name = .sv03;}),
(191.776,31,o),
(80,161,o),
(80,319.732,cs,{name = .sh05;})
);
}
);
width = 660;
},
{
hints = (
{
place = (50,60);
type = Stem;
},
{
origin = (1,5);
target = (0,6);
type = Stem;
},
{
horizontal = 1;
origin = (1,2);
target = (0,9);
type = Stem;
},
{
horizontal = 1;
origin = (0,15);
target = (1,11);
type = Stem;
},
{
horizontal = 1;
origin = (0,15);
target = (1,21);
type = Stem;
},
{
horizontal = 1;
origin = (0,21);
target = up;
type = BottomGhost;
}
);
layerId = "70A4CCFB-79CB-4069-A047-BEFA4B9EF1C4";
shapes = (
{
closed = 1;
nodes = (
(578.049,7.69,l),
(545.938,16.453,o),
(520.129,43.104,o),
(514.388,76.116,c),
(574.134,135.049,o),
(613.453,223.16,o),
(613.453,319.745,cs),
(613.453,496.291,o),
(487.794,640,o),
(332.054,640,cs),
(176.343,640,o),
(49.703,496.291,o),
(49.703,319.745,cs),
(49.703,144.006,o),
(176.343,0,o),
(332.054,0,cs),
(380.063,0,o),
(426.174,14.279,o),
(465.515,38.798,c),
(486.557,-15.362,o),
(544.376,-51.469,o),
(613.453,-51.469,c),
(613.453,-21.424,o),
(599.099,3.48,o),
(577.567,7.787,c)
);
},
{
closed = 1;
nodes = (
(109.25,463.584,o),
(209.066,580.453,o),
(332.054,580.453,cs),
(455.008,580.453,o),
(553.906,463.584,o),
(553.906,319.745,cs),
(553.906,254.555,o),
(533.822,195.262,o),
(500.135,149.95,c),
(477.964,200.029,o),
(423.247,233.969,o),
(355.102,233.969,c),
(355.102,203.926,o),
(369.435,179.023,o),
(390.935,174.714,c),
(390.238,174.872,l),
(423.708,166.487,o),
(449.99,138.405,o),
(455.157,103.407,c),
(420.099,75.857,o),
(376.771,59.547,o),
(332.054,59.547,cs),
(209.066,59.547,o),
(109.25,176.7,o),
(109.25,319.745,cs)
);
}
);
width = 665;
}
);
leftKerningGroup = C2;
unicode = 81;
},
{
glyphname = R;
layers = (
{
hints = (
{
origin = (0,7);
target = (1,1);
type = Stem;
},
{
origin = (0,19);
target = (0,24);
type = Stem;
},
{
horizontal = 1;
origin = (0,16);
target = (1,9);
type = Stem;
},
{
horizontal = 1;
origin = (1,1);
target = (0,4);
type = Stem;
},
{
horizontal = 1;
origin = (0,23);
target = up;
type = BottomGhost;
}
);
layerId = "FF4B10EE-E0A2-40F6-A8A2-E17FFC9F153D";
shapes = (
{
closed = 1;
nodes = (
(586,475,ls),
(586,566,o),
(512,640,o),
(421,640,cs,{name = .at01;}),
(93,640,ls),
(85,640,o),
(79,634,o),
(79,626,cs,{name = .sh03;}),
(79,0,l,{name = .ab01;}),
(95,0,o),
(107,13,o),
(107,28,cs,{name = .sh04;}),
(107,301,l,{name = .sv01;}),
(421,301,ls),
(424,301,o),
(427,301,o),
(430,301,c,{name = .dv01;}),
(501,301,o),
(558,239,o),
(558,163,cs,{name = .sh05;}),
(558,28,ls),
(558,13,o),
(570,0,o),
(586,0,c,{name = .ab02;}),
(586,163,ls,{name = .sh01;}),
(586,232,o),
(546,291,o),
(490,316,c,{name = .iv01;}),
(547,342,o),
(586,399,o),
(586,466,c,{name = .sh02;})
);
},
{
closed = 1;
nodes = (
(107,329,l),
(107,612,l,{name = .sv02;}),
(421,612,ls),
(496,612,o),
(558,550,o),
(558,475,cs,{name = .sh06;}),
(558,466,ls),
(558,390,o),
(496,329,o),
(421,329,cs,{name = .dv02;})
);
}
);
width = 654;
},
{
hints = (
{
origin = (0,7);
target = (1,1);
type = Stem;
},
{
origin = (0,16);
target = (0,21);
type = Stem;
},
{
horizontal = 1;
place = (287,57);
type = Stem;
},
{
horizontal = 1;
origin = (1,1);
target = (0,4);
type = Stem;
},
{
horizontal = 1;
origin = (0,8);
target = up;
type = BottomGhost;
}
);
layerId = "70A4CCFB-79CB-4069-A047-BEFA4B9EF1C4";
shapes = (
{
closed = 1;
nodes = (
(592.531,467.734,ls),
(592.531,562.741,o),
(515.273,640,o),
(420.266,640,cs),
(107.641,640,ls),
(91.444,640,o),
(79.297,627.853,o),
(79.297,611.656,cs),
(79.297,0,l),
(111.69,0,o),
(135.984,19.355,o),
(135.984,41.688,cs),
(135.984,286.891,l),
(428.844,286.891,ls),
(488.195,286.891,o),
(535.844,234.536,o),
(535.844,170.359,cs),
(535.844,41.688,ls),
(535.844,19.355,o),
(560.138,0,o),
(592.531,0,c),
(592.531,170.359,ls),
(592.531,232.34,o),
(562.826,285.674,o),
(516.697,316.205,c),
(563.231,346.946,o),
(592.531,398.83,o),
(592.531,459.156,cs)
);
},
{
closed = 1;
nodes = (
(135.984,343.578,l),
(135.984,583.312,l),
(420.266,583.312,ls),
(483.538,583.312,o),
(535.844,531.007,o),
(535.844,467.734,cs),
(535.844,459.156,ls),
(535.844,395.04,o),
(483.538,343.578,o),
(420.266,343.578,cs)
);
}
);
width = 661;
}
);
unicode = 82;
},
{
glyphname = S;
layers = (
{
hints = (
{
origin = (0,41);
target = (0,2);
type = Stem;
},
{
origin = (0,29);
target = (0,14);
type = Stem;
},
{
horizontal = 1;
place = (309,27);
type = Stem;
},
{
horizontal = 1;
origin = (0,47);
target = up;
type = BottomGhost;
}
);
layerId = "FF4B10EE-E0A2-40F6-A8A2-E17FFC9F153D";
shapes = (
{
closed = 1;
nodes = (
(201.252,354,o),
(87.015,371,o),
(80,474,c,{name = .sh02;}),
(80,523,o),
(115.073,553,o),
(145.135,570,cs),
(239.331,624,o),
(408.682,626,o),
(500.873,573,c),
(531.938,554,o),
(551.979,531,o),
(558.994,505,cs,{name = .sh05;}),
(562.966,490,o),
(575.517,480,o),
(590,480,c,{name = .sh06;}),
(590,528,o),
(564.897,568,o),
(514.902,597,cs),
(413.692,655,o),
(234.32,654,o),
(131.106,595,cs),
(79,565,o),
(52,523,o),
(52,473,c,{name = .sh07;}),
(61,346,o),
(192.274,327.284,o),
(318.495,309,cs,{name = .dv01;}),
(440.79,291.284,o),
(555.988,274,o),
(562,169,c,{name = .sh04;}),
(562.965,119,o),
(525.925,88,o),
(495.863,70,cs),
(401.667,16,o),
(233.318,15,o),
(142.129,67,cs),
(110.062,86,o),
(91.023,109,o),
(83.006,136,c,{name = .sh08;}),
(80,151,o),
(67,161,o),
(52,161,c,{name = .sh01;}),
(52,113,o),
(78,72,o),
(128.1,43,cs),
(177.202,14,o),
(245.343,0,o),
(314.486,0,cs,{name = .ab01;}),
(385.634,0,o),
(457.784,16,o),
(509.892,46,cs),
(562.966,76,o),
(590,119,o),
(590,170,c,{name = .sh03;}),
(581.31,298,o),
(450.769,318,o),
(322.503,336,cs,{name = .dv02;})
);
}
);
width = 642;
},
{
hints = (
{
origin = (0,17);
target = (0,2);
type = Stem;
},
{
origin = (0,24);
target = (0,39);
type = Stem;
},
{
horizontal = 1;
origin = (0,36);
target = (0,27);
type = Stem;
},
{
horizontal = 1;
place = (295,55);
type = Stem;
},
{
horizontal = 1;
origin = (0,5);
target = (0,14);
type = Stem;
}
);
layerId = "70A4CCFB-79CB-4069-A047-BEFA4B9EF1C4";
shapes = (
{
closed = 1;
nodes = (
(220.93,365.455,o),
(117.406,385.032,o),
(109.26,467.344,c),
(110.987,560.036,o),
(263.366,582.976,o),
(330.963,582.976,cs),
(391.45,582.976,o),
(516.79,564.767,o),
(536.309,492.421,cs),
(541.849,471.495,o),
(565.775,457.5,o),
(595.344,457.5,c),
(595.344,601.032,o),
(446.923,639.888,o),
(329.16,639.888,cs),
(222.671,639.888,o),
(52.581,600.061,o),
(52.581,465.298,c),
(62.053,331.635,o),
(193.259,312.946,o),
(319.415,294.671,cs),
(428.354,278.89,o),
(531.264,260.482,o),
(538.662,175.44,c),
(538.673,174.233,l),
(536.86,81.511,o),
(385.258,57.389,o),
(317.448,57.389,cs),
(253.383,57.389,o),
(134.535,74.771,o),
(111.606,148.536,c),
(106.9,169.468,o),
(82.313,183.453,o),
(52.562,183.453,c),
(52.562,41.306,o),
(200.917,0,o),
(317.745,0,cs),
(424.804,0,o),
(595.326,42.947,o),
(595.326,177.539,c),
(586.196,312.031,o),
(455.626,331.64,o),
(327.531,350.096,cs)
);
}
);
width = 648;
}
);
leftKerningGroup = S2;
rightKerningGroup = S;
unicode = 83;
},
{
glyphname = T;
layers = (
{
hints = (
{
origin = (0,4);
target = (0,9);
type = Stem;
},
{
horizontal = 1;
place = (612,28);
type = Stem;
},
{
horizontal = 1;
origin = (0,5);
target = up;
type = BottomGhost;
}
);
layerId = "FF4B10EE-E0A2-40F6-A8A2-E17FFC9F153D";
shapes = (
{
closed = 1;
nodes = (
(41,640,ls,{name = .at01;}),
(26,640,o),
(13,627,o),
(13,612,c,{name = .sv01;}),
(239,612,l,{name = .dh01;}),
(239,0,l,{name = .ab01;}),
(254,0,o),
(267,13,o),
(267,28,cs),
(267,612,l,{name = .sv02;}),
(465,612,ls,{name = .sv03;}),
(480,612,o),
(493,624,o),
(493,640,c)
);
}
);
width = 505;
},
{
hints = (
{
origin = (0,4);
target = (0,9);
type = Stem;
},
{
horizontal = 1;
place = (583,57);
type = Stem;
},
{
horizontal = 1;
origin = (0,5);
target = up;
type = BottomGhost;
}
);
layerId = "70A4CCFB-79CB-4069-A047-BEFA4B9EF1C4";
shapes = (
{
closed = 1;
nodes = (
(55.078,640,ls),
(32.746,640,o),
(13.391,613.681,o),
(13.391,583.312,c),
(228.797,583.312,l),
(228.797,0,l),
(259.165,0,o),
(285.484,19.355,o),
(285.484,41.688,cs),
(285.484,583.312,l),
(459.203,583.312,ls),
(481.536,583.312,o),
(500.891,607.607,o),
(500.891,640,c)
);
}
);
width = 513;
}
);
unicode = 84;
},
{
glyphname = U.alt1;
layers = (
{
hints = (
{
origin = (0,6);
target = (0,3);
type = Stem;
},
{
origin = (1,13);
target = (1,10);
type = Stem;
},
{
horizontal = 1;
origin = (1,10);
target = down;
type = TopGhost;
},
{
horizontal = 1;
origin = (1,6);
target = up;
type = BottomGhost;
}
);
layerId = "FF4B10EE-E0A2-40F6-A8A2-E17FFC9F153D";
shapes = (
{
closed = 1;
nodes = (
(156.362,76.63,o),
(108.219,153.781,o),
(108.219,238.383,cs),
(108.219,614.491,ls,{name = .sh01;}),
(108.219,630.082,o),
(95.577,642.71,o),
(80,642.71,c,{name = .at01;}),
(80,238.397,ls),
(80,132.814,o),
(146.612,37.532,o),
(245.746,1.312,c,{name = .ab01;}),
(251.066,15.873,o),
(244.237,31.676,o),
(230.423,38.731,cs)
);
},
{
closed = 1;
nodes = (
(556.456,238.397,ls),
(556.456,152.215,o),
(507.058,74.414,o),
(431.105,37.137,cs),
(417.207,30.308,o),
(410.138,14.618,o),
(415.218,0,c,{name = .ab02;}),
(516.582,35.232,o),
(584.675,131.037,o),
(584.675,238.397,cs),
(584.675,642.71,l,{name = .at02;}),
(569.098,642.71,o),
(556.456,630.082,o),
(556.456,614.49,c,{name = .sh02;})
);
}
);
width = 665;
},
{
hints = (
{
origin = (0,6);
target = (0,3);
type = Stem;
},
{
origin = (1,16);
target = (1,13);
type = Stem;
},
{
horizontal = 1;
origin = (0,6);
target = down;
type = TopGhost;
},
{
horizontal = 1;
origin = (1,9);
target = up;
type = BottomGhost;
}
);
layerId = "70A4CCFB-79CB-4069-A047-BEFA4B9EF1C4";
shapes = (
{
closed = 1;
nodes = (
(181.206,99.293,o),
(137.146,168.17,o),
(137.146,242.209,cs),
(137.146,600.687,ls),
(137.146,623.834,o),
(111.657,642.583,o),
(80.25,642.583,c),
(80.25,242.222,ls),
(80.25,135.315,o),
(153.361,36.768,o),
(262.168,-2.986,c),
(267.445,11.457,o),
(269.948,20.984,o),
(269.948,25.907,cs),
(269.948,42.19,o),
(260.657,57.505,o),
(245.455,65.269,cs)
);
},
{
closed = 1;
nodes = (
(534.372,242.222,ls),
(534.372,165.845,o),
(490.595,96.896,o),
(423.285,63.86,cs),
(407.759,56.231,o),
(398.186,40.748,o),
(398.186,24.228,cs),
(398.186,19.527,o),
(400.544,10.197,o),
(405.51,-4.094,c),
(516.625,34.528,o),
(591.268,133.515,o),
(591.268,242.222,cs),
(591.268,642.583,l),
(559.861,642.583,o),
(534.372,623.835,o),
(534.372,600.686,cs)
);
}
);
width = 672;
}
);
},
{
glyphname = V;
layers = (
{
hints = (
{
horizontal = 1;
origin = (0,12);
target = down;
type = TopGhost;
},
{
horizontal = 1;
origin = (0,8);
target = down;
type = TopGhost;
}
);
layerId = "FF4B10EE-E0A2-40F6-A8A2-E17FFC9F153D";
shapes = (
{
closed = 1;
nodes = (
(327.06,47.266,l,{name = .iv01;}),
(61.488,611.639,ls),
(53.375,628.867,o),
(36.048,639.873,o),
(17,639.873,c,{name = .at01;}),
(314.291,8.126,ls),
(316.621,3.175,o),
(321.6,0.027,o),
(327.06,0.027,cs,{name = .ab01;}),
(332.521,0.027,o),
(337.504,3.186,o),
(339.829,8.126,cs,{name = .iv02;}),
(637.134,639.873,l,{name = .at02;}),
(618.086,639.873,o),
(600.76,628.881,o),
(592.647,611.639,cs)
);
}
);
width = 655;
},
{
hints = (
{
horizontal = 1;
origin = (0,12);
target = down;
type = TopGhost;
},
{
horizontal = 1;
origin = (0,8);
target = down;
type = TopGhost;
}
);
layerId = "70A4CCFB-79CB-4069-A047-BEFA4B9EF1C4";
shapes = (
{
closed = 1;
nodes = (
(336.729,95.279,l),
(97.177,604.357,ls),
(86.97,626.032,o),
(55.967,639.879,o),
(17.566,639.879,c),
(310.986,16.358,ls),
(315.685,6.374,o),
(325.723,0.026,o),
(336.729,0.026,cs),
(347.737,0.026,o),
(357.784,6.397,o),
(362.472,16.358,cs),
(655.906,639.879,l),
(617.509,639.879,o),
(586.502,626.049,o),
(576.294,604.355,cs)
);
}
);
width = 673;
}
);
unicode = 86;
},
{
glyphname = W;
layers = (
{
hints = (
{
horizontal = 1;
origin = (0,28);
target = down;
type = TopGhost;
},
{
horizontal = 1;
origin = (0,16);
target = up;
type = BottomGhost;
}
);
layerId = "FF4B10EE-E0A2-40F6-A8A2-E17FFC9F153D";
shapes = (
{
closed = 1;
nodes = (
(496,55,l,{name = .iv01;}),
(370,530,ls),
(368,538,o),
(361,543,o),
(353,543,cs),
(345,543,o),
(338,538,o),
(336,530,cs),
(211,55,l,{name = .iv02;}),
(65,612,l),
(60,628,o),
(45,640,o),
(28,640,c,{name = .at01;}),
(193,14,ls),
(195,6,o),
(203,0,o),
(211,0,cs,{name = .ab01;}),
(220,0,o),
(227,6,o),
(230,14,c),
(353,484,l,{name = .iv03;}),
(477,14,ls),
(479,6,o),
(487,0,o),
(496,0,cs,{name = .ab02;}),
(504,0,o),
(511.898,6.026,o),
(514,14,cs),
(679,640,l,{name = .at02;}),
(662,640,o),
(647,628,o),
(642,612,c)
);
}
);
width = 707;
},
{
hints = (
{
horizontal = 1;
origin = (0,12);
target = down;
type = TopGhost;
},
{
horizontal = 1;
origin = (0,16);
target = up;
type = BottomGhost;
}
);
layerId = "70A4CCFB-79CB-4069-A047-BEFA4B9EF1C4";
shapes = (
{
closed = 1;
nodes = (
(493.664,126.251,l),
(388.208,523.794,ls),
(384.554,538.411,o),
(371.892,547.547,o),
(357.453,547.547,cs),
(343.014,547.547,o),
(330.352,538.411,o),
(326.744,523.974,cs),
(222.138,126.472,l),
(97.367,602.451,l),
(90.661,623.908,o),
(62.77,640,o),
(28.222,640,c),
(190.401,24.706,ls),
(194.11,10.634,o),
(208.023,0,o),
(222.109,0,cs),
(237.492,0,o),
(249.435,10.2,o),
(254.535,23.8,c),
(357.512,417.29,l),
(461.088,24.706,ls),
(464.618,10.588,o),
(478.372,0,o),
(493.75,0,cs),
(507.837,0,o),
(521.73,10.555,o),
(525.411,24.521,cs),
(687.638,640,l),
(653.09,640,o),
(625.198,623.908,o),
(618.493,602.451,c)
);
}
);
width = 716;
}
);
unicode = 87;
},
{
glyphname = X;
layers = (
{
hints = (
{
horizontal = 1;
origin = (0,1);
target = down;
type = TopGhost;
},
{
horizontal = 1;
origin = (0,11);
target = down;
type = TopGhost;
}
);
layerId = "FF4B10EE-E0A2-40F6-A8A2-E17FFC9F153D";
shapes = (
{
closed = 1;
nodes = (
(309.606,319.936,l),
(558.473,639.887,l,{name = .at01;}),
(535.926,639.887,o),
(514.634,629.474,o),
(500.792,611.668,cs),
(291.743,342.907,l),
(82.695,611.668,ls),
(68.853,629.474,o),
(47.561,639.887,o),
(25.014,639.887,c,{name = .at02;}),
(273.881,319.936,l),
(25,-0.029,l,{name = .ab01;}),
(47.561,-0.029,o),
(68.853,10.384,o),
(82.694,28.19,cs),
(291.743,296.951,l),
(500.792,28.19,ls),
(514.634,10.384,o),
(535.94,-0.029,o),
(558.487,-0.029,c,{name = .ab02;})
);
}
);
width = 584;
},
{
hints = (
{
horizontal = 1;
origin = (0,1);
target = down;
type = TopGhost;
},
{
horizontal = 1;
origin = (0,11);
target = down;
type = TopGhost;
}
);
layerId = "70A4CCFB-79CB-4069-A047-BEFA4B9EF1C4";
shapes = (
{
closed = 1;
nodes = (
(346.097,319.939,l),
(594.965,639.892,l),
(549.499,639.892,o),
(513.51,627.829,o),
(497.475,607.202,cs),
(310.068,366.265,l),
(122.659,607.205,ls),
(106.626,627.829,o),
(70.637,639.892,o),
(25.171,639.892,c),
(274.039,319.939,l),
(25.157,-0.028,l),
(70.642,-0.028,o),
(106.626,12.035,o),
(122.661,32.663,cs),
(310.068,273.6,l),
(497.477,32.659,ls),
(513.51,12.035,o),
(549.522,-0.028,o),
(594.979,-0.028,c)
);
}
);
width = 620;
}
);
unicode = 88;
},
{
glyphname = Y;
layers = (
{
hints = (
{
origin = (0,5);
target = (0,10);
type = Stem;
},
{
horizontal = 1;
origin = (0,4);
target = down;
type = TopGhost;
},
{
horizontal = 1;
origin = (0,6);
target = up;
type = BottomGhost;
}
);
layerId = "FF4B10EE-E0A2-40F6-A8A2-E17FFC9F153D";
shapes = (
{
closed = 1;
nodes = (
(263,344,l,{name = .iv01;}),
(67,612,ls),
(55,629,o),
(34,640,o),
(12,640,c,{name = .at01;}),
(248,316,l,{name = .dh01;}),
(248,0,l,{name = .ab01;}),
(264,0,o),
(276,13,o),
(276,28,cs),
(276,314,l,{name = .dh02;}),
(513,640,l,{name = .at02;}),
(491,640,o),
(471,629,o),
(458,612,cs)
);
}
);
width = 526;
},
{
hints = (
{
origin = (0,5);
target = (0,10);
type = Stem;
},
{
horizontal = 1;
origin = (0,4);
target = down;
type = TopGhost;
},
{
horizontal = 1;
origin = (0,6);
target = up;
type = BottomGhost;
}
);
layerId = "70A4CCFB-79CB-4069-A047-BEFA4B9EF1C4";
shapes = (
{
closed = 1;
nodes = (
(281.641,368.327,l),
(107.114,606.963,ls),
(92.955,627.021,o),
(57.184,640,o),
(12.954,640,c),
(252.375,311.304,l),
(252.375,0,l),
(284.768,0,o),
(309.062,19.355,o),
(309.062,41.688,cs),
(309.062,309.405,l),
(549.403,640,l),
(504.291,640,o),
(470.7,627.146,o),
(455.509,607.281,cs)
);
}
);
width = 563;
}
);
leftKerningGroup = Y2;
rightKerningGroup = Y;
unicode = 89;
},
{
glyphname = Z;
layers = (
{
hints = (
{
horizontal = 1;
origin = (0,14);
target = (0,18);
type = Stem;
},
{
horizontal = 1;
origin = (0,6);
target = (0,3);
type = Stem;
}
);
layerId = "FF4B10EE-E0A2-40F6-A8A2-E17FFC9F153D";
shapes = (
{
closed = 1;
nodes = (
(524,638,o),
(519,641,o),
(514,641,cs,{name = .at02;}),
(67,641,ls),
(52,641,o),
(39,628,o),
(39,613,c,{name = .sv01;}),
(485,613,l),
(28,21.467,ls),
(25,17.733,o),
(24,12.133,o),
(26,7.467,c,{name = .ab01;}),
(29,2.8,o),
(34,-0.01,o),
(39,0,cs,{name = .ab02;}),
(519,0.933,l),
(519,15.867,o),
(506,28.066,o),
(491,28,cs,{name = .sv02;}),
(68,26.133,l),
(525,618,l),
(528,623,o),
(529,628,o),
(527,633,c,{name = .at01;})
);
}
);
width = 554;
},
{
hints = (
{
horizontal = 1;
origin = (0,19);
target = (0,22);
type = Stem;
},
{
horizontal = 1;
origin = (0,7);
target = (0,4);
type = Stem;
}
);
layerId = "70A4CCFB-79CB-4069-A047-BEFA4B9EF1C4";
shapes = (
{
closed = 1;
nodes = (
(531.778,625.015,l),
(525.801,634.976,o),
(515.85,640.953,o),
(505.906,640.953,cs),
(79.859,640.953,ls),
(57.527,640.953,o),
(38.172,614.634,o),
(38.172,584.266,c),
(447.722,584.266,l),
(30.995,44.856,l),
(27.261,40.209,o),
(25.024,33.135,o),
(24.79,27.06,c),
(24.917,23.769,o),
(25.797,19.002,o),
(27.487,15.058,c),
(33.537,5.647,o),
(43.424,-0.019,o),
(53.201,0,cs),
(525.672,0.919,l),
(525.672,31.649,o),
(506.286,56.786,o),
(483.918,56.687,cs),
(111.45,55.044,l),
(528.801,595.56,l),
(532.103,601.064,o),
(534.081,607.623,o),
(534.289,613.264,c),
(534.169,616.476,o),
(533.489,620.736,o),
(532.224,623.899,cs)
);
}
);
width = 560;
}
);
leftKerningGroup = Z2;
rightKerningGroup = Z;
unicode = 90;
},
{
glyphname = bracketleft;
layers = (
{
hints = (
{
origin = (0,6);
target = (0,18);
type = Stem;
},
{
horizontal = 1;
origin = (0,3);
target = down;
type = TopGhost;
},
{
horizontal = 1;
origin = (0,10);
target = up;
type = BottomGhost;
}
);
layerId = "FF4B10EE-E0A2-40F6-A8A2-E17FFC9F153D";
shapes = (
{
closed = 1;
nodes = (
(163.813,612.473,o),
(173.097,623.732,o),
(173.097,637.362,cs),
(173.097,639.944,l,{name = .at01;}),
(121.216,639.944,o),
(79,599.309,o),
(79,549.36,cs,{name = .dh01;}),
(79,90.584,ls),
(79,40.636,o),
(121.216,0,o),
(173.112,0,c,{name = .ab01;}),
(173.112,2.582,ls),
(173.112,16.212,o),
(163.813,27.472,o),
(150.917,31.86,cs),
(125.477,40.509,o),
(107.233,63.564,o),
(107.233,90.584,cs),
(107.233,549.36,ls,{name = .dh02;}),
(107.233,576.38,o),
(125.477,599.436,o),
(150.903,608.085,cs)
);
}
);
width = 244;
},
{
hints = (
{
origin = (0,6);
target = (0,18);
type = Stem;
},
{
horizontal = 1;
origin = (0,3);
target = down;
type = TopGhost;
},
{
horizontal = 1;
origin = (0,10);
target = up;
type = BottomGhost;
}
);
layerId = "70A4CCFB-79CB-4069-A047-BEFA4B9EF1C4";
shapes = (
{
closed = 1;
nodes = (
(185.879,586.573,o),
(198.983,602.756,o),
(198.983,622.486,cs),
(198.983,639.947,l),
(132.993,639.947,o),
(79.297,594.488,o),
(79.297,538.609,cs),
(79.297,101.338,ls),
(79.297,45.46,o),
(132.991,0,o),
(198.997,0,c),
(198.997,17.461,ls),
(198.997,37.19,o),
(185.873,53.375,o),
(167.673,59.568,cs),
(149.348,65.798,o),
(136.206,82.201,o),
(136.206,101.338,cs),
(136.206,538.609,ls),
(136.206,557.746,o),
(149.347,574.151,o),
(167.66,580.38,cs)
);
}
);
width = 269;
}
);
unicode = 91;
},
{
glyphname = backslash;
layers = (
{
layerId = "FF4B10EE-E0A2-40F6-A8A2-E17FFC9F153D";
shapes = (
{
closed = 1;
nodes = (
(98.23,613.408,ls),
(94.449,628.519,o),
(79.126,637.719,o),
(64,633.937,c),
(217.132,21.38,ls),
(220.914,6.254,o),
(236.237,-2.931,o),
(251.362,0.85,c)
);
}
);
width = 316;
},
{
hints = (
{
horizontal = 1;
origin = (0,10);
target = up;
type = BottomGhost;
},
{
horizontal = 1;
origin = (0,3);
target = down;
type = TopGhost;
}
);
layerId = "70A4CCFB-79CB-4069-A047-BEFA4B9EF1C4";
shapes = (
{
closed = 1;
nodes = (
(130.177,603.294,ls),
(125.417,622.318,o),
(108.329,635.031,o),
(89.546,635.031,cs),
(86.179,635.031,o),
(78.055,633.447,o),
(64.81,630.135,c),
(214.402,31.74,ls),
(219.163,12.699,o),
(236.248,0,o),
(255.029,0,cs),
(258.397,0,o),
(266.523,1.584,o),
(279.769,4.896,c)
);
}
);
width = 344;
}
);
unicode = 92;
},
{
glyphname = bracketright;
layers = (
{
hints = (
{
origin = (0,6);
target = (0,18);
type = Stem;
},
{
horizontal = 1;
origin = (0,14);
target = up;
type = BottomGhost;
},
{
horizontal = 1;
origin = (0,21);
target = down;
type = TopGhost;
}
);
layerId = "FF4B10EE-E0A2-40F6-A8A2-E17FFC9F153D";
shapes = (
{
closed = 1;
nodes = (
(70,637.362,ls),
(70,623.732,o),
(79.298,612.473,o),
(92.195,608.085,cs),
(117.634,599.45,o),
(135.878,576.38,o),
(135.878,549.36,cs,{name = .dh01;}),
(135.878,90.584,ls),
(135.878,63.564,o),
(117.634,40.509,o),
(92.195,31.86,cs),
(79.284,27.472,o),
(70,16.212,o),
(70,2.582,cs),
(70,0,l,{name = .ab01;}),
(121.895,0,o),
(164.112,40.636,o),
(164.112,90.584,cs),
(164.112,549.36,ls,{name = .dh02;}),
(164.112,599.309,o),
(121.895,639.944,o),
(70,639.944,c,{name = .at01;})
);
}
);
width = 244;
},
{
hints = (
{
origin = (0,6);
target = (0,18);
type = Stem;
},
{
horizontal = 1;
origin = (0,14);
target = up;
type = BottomGhost;
},
{
horizontal = 1;
origin = (0,21);
target = down;
type = TopGhost;
}
);
layerId = "70A4CCFB-79CB-4069-A047-BEFA4B9EF1C4";
shapes = (
{
closed = 1;
nodes = (
(70.719,622.486,ls),
(70.719,602.756,o),
(83.843,586.572,o),
(102.047,580.379,cs),
(120.369,574.16,o),
(133.509,557.746,o),
(133.509,538.609,cs),
(133.509,101.338,ls),
(133.509,82.201,o),
(120.368,65.798,o),
(102.045,59.568,cs),
(83.823,53.375,o),
(70.719,37.19,o),
(70.719,17.461,cs),
(70.719,0,l),
(136.724,0,o),
(190.419,45.46,o),
(190.419,101.338,cs),
(190.419,538.609,ls),
(190.419,594.488,o),
(136.724,639.947,o),
(70.719,639.947,c)
);
}
);
width = 270;
}
);
unicode = 93;
},
{
glyphname = asciicircum;
layers = (
{
hints = (
{
horizontal = 1;
origin = (0,4);
target = up;
type = BottomGhost;
}
);
layerId = "FF4B10EE-E0A2-40F6-A8A2-E17FFC9F153D";
shapes = (
{
closed = 1;
nodes = (
(181.03,511.94,l),
(264.39,345.22,ls),
(273.04,327.92,o),
(290.72,317,o),
(310.05,317,c,{name = .av01;}),
(193.66,549.81,ls),
(188.872,559.386,o),
(173.22,559.38,o),
(168.42,549.81,cs),
(52,317,l,{name = .av02;}),
(71.33,317,o),
(89.01,327.92,o),
(97.66,345.22,c)
);
}
);
width = 363;
},
{
hints = (
{
horizontal = 1;
origin = (0,12);
target = down;
type = TopGhost;
},
{
horizontal = 1;
origin = (0,8);
target = down;
type = TopGhost;
}
);
layerId = "70A4CCFB-79CB-4069-A047-BEFA4B9EF1C4";
shapes = (
{
closed = 1;
nodes = (
(199.543,469.403,l),
(265.58,337.33,ls),
(276.366,315.757,o),
(307.813,302.141,o),
(346.786,302.141,c),
(224.999,545.745,ls),
(219.954,555.837,o),
(209.683,560.881,o),
(199.561,560.881,cs),
(189.444,560.881,o),
(179.158,555.843,o),
(174.113,545.755,cs),
(52.291,302.141,l),
(91.265,302.141,o),
(122.712,315.757,o),
(133.499,337.33,cs)
);
}
);
width = 399;
}
);
unicode = 94;
},
{
glyphname = underscore;
layers = (
{
hints = (
{
horizontal = 1;
place = (0,28);
type = Stem;
}
);
layerId = "FF4B10EE-E0A2-40F6-A8A2-E17FFC9F153D";
shapes = (
{
closed = 1;
nodes = (
(64.22,28.22,ls,{name = .sv01;}),
(48.64,28.22,o),
(36,15.59,o),
(36,0,c,{name = .ab01;}),
(487.74,0,ls),
(503.31,0,o),
(515.95,12.64,o),
(515.95,28.22,c)
);
}
);
width = 552;
},
{
hints = (
{
horizontal = 1;
place = (0,57);
type = Stem;
}
);
layerId = "70A4CCFB-79CB-4069-A047-BEFA4B9EF1C4";
shapes = (
{
closed = 1;
nodes = (
(78.21,56.897,ls),
(55.079,56.897,o),
(36.312,31.433,o),
(36.312,0,c),
(481.877,0,ls),
(504.996,0,o),
(523.765,25.485,o),
(523.765,56.897,c)
);
}
);
width = 560;
}
);
unicode = 95;
},
{
glyphname = grave;
layers = (
{
layerId = "FF4B10EE-E0A2-40F6-A8A2-E17FFC9F153D";
shapes = (
{
closed = 1;
nodes = (
(85,88,ls),
(74,99,o),
(56,99,o),
(45,88,c),
(185,-52,ls),
(196,-63,o),
(214,-63,o),
(225,-52,c)
);
}
);
width = 218;
},
{
hints = (
{
horizontal = 1;
origin = (0,10);
target = up;
type = BottomGhost;
},
{
horizontal = 1;
origin = (0,3);
target = down;
type = TopGhost;
}
);
layerId = "70A4CCFB-79CB-4069-A047-BEFA4B9EF1C4";
shapes = (
{
closed = 1;
nodes = (
(115.622,109.482,ls),
(107.451,117.653,o),
(96.697,121.738,o),
(85.953,121.738,cs),
(75.209,121.738,o),
(60.92,114.117,o),
(45.677,98.875,c),
(189.722,-45.169,ls),
(197.893,-53.34,o),
(208.647,-57.426,o),
(219.391,-57.426,cs),
(230.134,-57.426,o),
(244.424,-49.805,o),
(259.666,-34.562,c)
);
}
);
width = 253;
}
);
unicode = 96;
},
{
glyphname = a;
layers = (
{
hints = (
{
origin = (0,20);
target = (0,17);
type = Stem;
},
{
horizontal = 1;
origin = (0,9);
target = (0,16);
type = Stem;
},
{
horizontal = 1;
origin = (1,5);
target = (0,3);
type = Stem;
}
);
layerId = "FF4B10EE-E0A2-40F6-A8A2-E17FFC9F153D";
shapes = (
{
closed = 1;
nodes = (
(499,353.467,l,{name = .iv01;}),
(458,429.108,o),
(379,480,o),
(287,480,c,{name = .at01;}),
(145,480,o),
(33,357.448,o),
(49,214.127,cs),
(61,104.646,o),
(149.994,14.872,o),
(260,2,cs,{name = .ab01;}),
(362.994,-10.051,o),
(454,45.925,o),
(499,128.533,c,{name = .iv02;}),
(499,0,l,{name = .ab02;}),
(514,0,o),
(527,13.846,o),
(527,30,cs),
(527,480,l,{name = .at02;}),
(511,480,o),
(499,467,o),
(499,452,c,{name = .dh01;})
);
},
{
closed = 1;
nodes = (
(176,24.615,o),
(75,121.566,o),
(75,241,cs),
(75,357.448,o),
(170,452,o),
(287,452,cs,{name = .sv02;}),
(407,452,o),
(504,351.476,o),
(499,231.047,cs,{name = .sh01;}),
(493,123.557,o),
(405,34.976,o),
(297,30,cs,{name = .sv01;})
);
}
);
width = 599;
},
{
hints = (
{
origin = (0,6);
target = (1,5);
type = Stem;
},
{
origin = (1,11);
target = (0,16);
type = Stem;
},
{
horizontal = 1;
origin = (0,13);
target = (1,2);
type = Stem;
},
{
horizontal = 1;
origin = (1,8);
target = (0,3);
type = Stem;
}
);
layerId = "70A4CCFB-79CB-4069-A047-BEFA4B9EF1C4";
shapes = (
{
closed = 1;
nodes = (
(470.812,394.794,l),
(426.652,447.942,o),
(361.796,480,o),
(287.062,480,cs),
(154.144,480,o),
(47.508,372.61,o),
(47.508,241.306,cs),
(47.508,111.695,o),
(158.566,0.346,o),
(287.836,0.346,cs),
(362.113,0.346,o),
(426.765,33.729,o),
(470.813,87.065,c),
(470.813,0,l),
(500.946,0,o),
(527.063,19.904,o),
(527.063,43.125,cs),
(527.063,480,l),
(494.92,480,o),
(470.813,460.848,o),
(470.813,438.75,cs)
);
},
{
closed = 1;
nodes = (
(292.752,57.976,o),
(290.419,57.924,o),
(287.432,57.924,cs),
(186.274,57.924,o),
(103.313,140.201,o),
(103.313,240.938,cs),
(103.313,341.829,o),
(185.653,423.75,o),
(287.063,423.75,cs),
(388.505,423.75,o),
(470.986,340.879,o),
(470.986,239.953,cs),
(470.986,146.294,o),
(388.556,62.386,o),
(295.768,58.11,cs)
);
}
);
width = 600;
}
);
leftKerningGroup = a2;
rightKerningGroup = a;
unicode = 97;
},
{
glyphname = b;
layers = (
{
hints = (
{
origin = (0,6);
target = (0,3);
type = Stem;
},
{
origin = (1,8);
target = (0,17);
type = Stem;
},
{
horizontal = 1;
origin = (0,7);
target = (0,10);
type = Stem;
},
{
horizontal = 1;
place = (452,28);
type = Stem;
},
{
horizontal = 1;
origin = (0,3);
target = down;
type = TopGhost;
}
);
layerId = "FF4B10EE-E0A2-40F6-A8A2-E17FFC9F153D";
shapes = (
{
closed = 1;
nodes = (
(220.25,480.6,o),
(140.6,429.1,o),
(100.22,353.47,c,{name = .iv01;}),
(100.22,639.92,l,{name = .at01;}),
(84.64,639.92,o),
(72,627.29,o),
(72,611.7,cs,{name = .sh01;}),
(72,0.64,l,{name = .ab01;}),
(87.58,0.64,o),
(100.22,13.27,o),
(100.22,28.86,cs,{name = .sh02;}),
(100.22,127.77,l,{name = .iv02;}),
(140.6,52.14,o),
(220.25,0.64,o),
(311.98,0.64,cs,{name = .ab02;}),
(444.51,0.64,o),
(551.95,108.09,o),
(551.95,240.62,cs,{name = .sh03;}),
(551.95,373.15,o),
(444.51,480.6,o),
(311.98,480.6,c,{name = .at02;})
);
},
{
closed = 1;
nodes = (
(195.22,28.86,o),
(100.22,123.85,o),
(100.22,240.62,cs,{name = .sh04;}),
(100.22,357.39,o),
(195.22,452.38,o),
(311.98,452.38,cs,{name = .sv02;}),
(428.73,452.38,o),
(523.74,357.39,o),
(523.74,240.62,cs,{name = .sh05;}),
(523.74,123.85,o),
(428.75,28.86,o),
(311.98,28.86,cs,{name = .sv01;})
);
}
);
width = 599;
},
{
hints = (
{
origin = (0,6);
target = (0,3);
type = Stem;
},
{
origin = (1,8);
target = (0,17);
type = Stem;
},
{
horizontal = 1;
place = (1,56);
type = Stem;
},
{
horizontal = 1;
place = (424,56);
type = Stem;
},
{
horizontal = 1;
origin = (0,3);
target = down;
type = TopGhost;
}
);
layerId = "70A4CCFB-79CB-4069-A047-BEFA4B9EF1C4";
shapes = (
{
closed = 1;
nodes = (
(237.949,480.562,o),
(172.951,448.421,o),
(128.956,395.11,c),
(128.956,629.925,l),
(97.787,629.925,o),
(72.5,611.371,o),
(72.5,588.469,cs),
(72.5,0.6,l),
(103.669,0.6,o),
(128.956,19.154,o),
(128.956,42.056,cs),
(128.956,86.052,l),
(172.951,32.741,o),
(237.949,0.6,o),
(312.481,0.6,cs),
(445.012,0.6,o),
(552.453,108.051,o),
(552.453,240.581,cs),
(552.453,373.112,o),
(445.012,480.562,o),
(312.481,480.562,cs)
);
},
{
closed = 1;
nodes = (
(211.289,57.056,o),
(128.956,139.381,o),
(128.956,240.581,cs),
(128.956,341.782,o),
(211.289,424.106,o),
(312.481,424.106,cs),
(413.664,424.106,o),
(496.006,341.782,o),
(496.006,240.581,cs),
(496.006,139.381,o),
(413.682,57.056,o),
(312.481,57.056,cs)
);
}
);
width = 600;
}
);
unicode = 98;
},
{
glyphname = c;
layers = (
{
hints = (
{
horizontal = 1;
origin = (0,23);
target = (0,2);
type = Stem;
}
);
layerId = "FF4B10EE-E0A2-40F6-A8A2-E17FFC9F153D";
shapes = (
{
closed = 1;
nodes = (
(389,47,o),
(339,28,o),
(288,28,cs,{name = .sv01;}),
(169,28,o),
(73,126,o),
(75,244,cs),
(77,353,o),
(164,444,o),
(272,452,cs),
(332,457,o),
(390,436,o),
(433,396,cs),
(444,385,o),
(461,384,o),
(473,394,c),
(418,460,o),
(333,493,o),
(246,478,cs),
(139,459,o),
(57,369,o),
(48,261,cs),
(36,119,o),
(148,0,o),
(288,0,cs,{name = .ab01;}),
(356,0,o),
(421,29,o),
(467,80,c),
(466,81,l),
(455,91,o),
(439,91,o),
(428,81,cs)
);
}
);
width = 508;
},
{
hints = (
{
origin = (0,25);
target = (0,5);
type = Stem;
},
{
horizontal = 1;
origin = (0,28);
target = (0,2);
type = Stem;
},
{
horizontal = 1;
origin = (0,9);
target = (0,22);
type = Stem;
}
);
layerId = "70A4CCFB-79CB-4069-A047-BEFA4B9EF1C4";
shapes = (
{
closed = 1;
nodes = (
(375.655,73.358,o),
(331.641,56.25,o),
(288,56.25,cs),
(187.15,56.25,o),
(105.313,141.16,o),
(103.284,240.338,c),
(103.311,243.5,l),
(107.072,342.687,o),
(189.919,424.432,o),
(289.377,424.432,cs),
(335.876,424.432,o),
(380.085,406.557,o),
(413.721,375.267,c),
(413.331,375.643,l),
(421.759,367.216,o),
(432.717,362.892,o),
(443.766,362.892,cs),
(453.39,362.892,o),
(466.8,369.318,o),
(482.564,382.454,c),
(430.341,445.121,o),
(359.5,481.477,o),
(287.587,481.477,cs),
(157.003,481.477,o),
(47.173,370.214,o),
(47.173,240.155,cs),
(47.173,107.545,o),
(154.937,0,o),
(288,0,cs),
(355.996,0,o),
(424.437,32.818,o),
(476.493,90.533,c),
(465.223,101.79,l),
(457.026,109.243,o),
(447.024,112.969,o),
(437.062,112.969,cs),
(427.093,112.969,o),
(417.177,109.325,o),
(409.31,102.173,c)
);
}
);
width = 518;
}
);
leftKerningGroup = a2;
unicode = 99;
},
{
glyphname = d;
layers = (
{
hints = (
{
origin = (0,6);
target = (1,2);
type = Stem;
},
{
origin = (1,8);
target = (0,16);
type = Stem;
},
{
horizontal = 1;
place = (0,28);
type = Stem;
},
{
horizontal = 1;
origin = (1,5);
target = (0,3);
type = Stem;
},
{
horizontal = 1;
origin = (0,17);
target = down;
type = TopGhost;
}
);
layerId = "FF4B10EE-E0A2-40F6-A8A2-E17FFC9F153D";
shapes = (
{
closed = 1;
nodes = (
(499,353,l,{name = .iv01;}),
(458,428,o),
(379,480,o),
(287,480,cs,{name = .at02;}),
(154,480,o),
(47,373,o),
(47,240,cs,{name = .sh02;}),
(47,107,o),
(154,0,o),
(287,0,cs,{name = .ab01;}),
(379,0,o),
(458,52,o),
(499,127,c,{name = .iv02;}),
(499,0,l,{name = .ab02;}),
(514,0,o),
(527,13,o),
(527,28,cs),
(527,640,l,{name = .at01;}),
(511,640,o),
(499,627,o),
(499,612,cs,{name = .sh01;})
);
},
{
closed = 1;
nodes = (
(170,28,o),
(75,123,o),
(75,240,cs,{name = .sh03;}),
(75,357,o),
(170,452,o),
(287,452,cs,{name = .sv02;}),
(404,452,o),
(499,357,o),
(499,240,cs,{name = .sh04;}),
(499,123,o),
(404,28,o),
(287,28,cs,{name = .sv01;})
);
}
);
width = 599;
},
{
hints = (
{
origin = (0,6);
target = (1,2);
type = Stem;
},
{
place = (0,527);
type = Stem;
},
{
horizontal = 1;
place = (0,56);
type = Stem;
},
{
horizontal = 1;
origin = (1,5);
target = (0,3);
type = Stem;
},
{
horizontal = 1;
origin = (0,17);
target = down;
type = TopGhost;
}
);
layerId = "70A4CCFB-79CB-4069-A047-BEFA4B9EF1C4";
shapes = (
{
closed = 1;
nodes = (
(470.812,394.167,l),
(426.668,447.213,o),
(361.804,480,o),
(287.062,480,cs),
(154.062,480,o),
(47.062,373,o),
(47.062,240,cs),
(47.062,107,o),
(154.062,0,o),
(287.062,0,cs),
(361.804,0,o),
(426.668,32.787,o),
(470.812,85.833,c),
(470.812,0,l),
(500.946,0,o),
(527.062,19.152,o),
(527.062,41.25,cs),
(527.062,630,l),
(494.92,630,o),
(470.812,610.848,o),
(470.812,588.75,cs)
);
},
{
closed = 1;
nodes = (
(185.653,56.25,o),
(103.312,138.591,o),
(103.312,240,cs),
(103.312,341.409,o),
(185.653,423.75,o),
(287.062,423.75,cs),
(388.472,423.75,o),
(470.812,341.409,o),
(470.812,240,cs),
(470.812,138.591,o),
(388.472,56.25,o),
(287.062,56.25,cs)
);
}
);
width = 600;
}
);
rightKerningGroup = H;
unicode = 100;
},
{
glyphname = e;
layers = (
{
hints = (
{
origin = (1,6);
target = (0,3);
type = Stem;
},
{
horizontal = 1;
origin = (0,12);
target = (0,21);
type = Stem;
},
{
horizontal = 1;
place = (226,28);
type = Stem;
},
{
horizontal = 1;
origin = (1,3);
target = (0,6);
type = Stem;
}
);
layerId = "FF4B10EE-E0A2-40F6-A8A2-E17FFC9F153D";
shapes = (
{
closed = 1;
nodes = (
(526,226,l,{name = .sh01;}),
(527,231,o),
(527,236,o),
(527,240,cs,{name = .dh02;}),
(527,381,o),
(403.951,495.435,o),
(260,479,cs,{name = .at01;}),
(149.949,466.435,o),
(61,377,o),
(49,268,cs),
(33,122.477,o),
(145,0,o),
(287,0,cs,{name = .ab01;}),
(391,0,o),
(480,66.193,o),
(512,159.665,c,{name = .iv01;}),
(495,159.665,o),
(479,149.614,o),
(471,134.538,c),
(433,69.208,o),
(362.012,25.466,o),
(281,28,cs,{name = .sv01;}),
(173.011,31.378,o),
(83,118.457,o),
(76,226,c,{name = .dv01;})
);
},
{
closed = 1;
nodes = (
(76,254,l,{name = .dv02;}),
(83,364,o),
(175,451,o),
(287,451,cs,{name = .sv02;}),
(399,451,o),
(491,364,o),
(498,254,c,{name = .dh01;})
);
}
);
width = 572;
},
{
hints = (
{
horizontal = 1;
origin = (0,12);
target = (0,22);
type = Stem;
},
{
horizontal = 1;
place = (212,56);
type = Stem;
},
{
horizontal = 1;
origin = (1,3);
target = (0,6);
type = Stem;
}
);
layerId = "70A4CCFB-79CB-4069-A047-BEFA4B9EF1C4";
shapes = (
{
closed = 1;
nodes = (
(523.422,211.875,l),
(527.062,230.077,o),
(527.062,235.59,o),
(527.062,240,cs),
(527.062,371.893,o),
(419.347,480.539,o),
(287.573,480.539,cs),
(154.646,480.539,o),
(48.064,372.106,o),
(47.508,240.317,cs),
(50.128,109.588,o),
(155.806,0,o),
(287.063,0,cs),
(391.107,0,o),
(482.977,74.493,o),
(518.99,179.686,c),
(484.612,179.686,o),
(456.35,167.076,o),
(446.312,148.16,c),
(446.596,148.671,l),
(414.939,94.246,o),
(354.467,57.073,o),
(287.763,56.153,c),
(281.854,56.245,l),
(194.993,60.656,o),
(119.333,126.99,o),
(106.045,211.875,c)
);
},
{
closed = 1;
nodes = (
(105.97,268.125,l),
(119.714,355.34,o),
(195.769,422.812,o),
(287.063,422.812,cs),
(378.356,422.812,o),
(454.411,355.34,o),
(468.155,268.125,c)
);
}
);
width = 573;
}
);
leftKerningGroup = a2;
rightKerningGroup = e;
unicode = 101;
},
{
glyphname = f;
layers = (
{
hints = (
{
origin = (0,17);
target = (0,22);
type = Stem;
},
{
horizontal = 1;
origin = (0,16);
target = (0,13);
type = Stem;
},
{
horizontal = 1;
origin = (0,3);
target = (0,8);
type = Stem;
},
{
horizontal = 1;
origin = (0,18);
target = up;
type = BottomGhost;
}
);
layerId = "FF4B10EE-E0A2-40F6-A8A2-E17FFC9F153D";
shapes = (
{
closed = 1;
nodes = (
(125,506,ls,{name = .dh00;}),
(125,564,o),
(172,612,o),
(231,612,cs,{name = .sv00;}),
(243,612,ls),
(258,612,o),
(271,624,o),
(271,640,c,{name = .at00;}),
(231,640,ls),
(157,640,o),
(97,580,o),
(97,506,cs,{name = .dh03;}),
(97,480,l,{name = .at04;}),
(59,480,ls),
(44,480,o),
(31,467,o),
(31,452,c,{name = .sv05;}),
(97,452,l,{name = .sh00;}),
(97,0,l,{name = .ab00;}),
(112,0,o),
(125,13,o),
(125,28,cs,{name = .sh03;}),
(125,452,l,{name = .sv06;}),
(243,452,ls,{name = .sv07;}),
(258,452,o),
(271,464,o),
(271,480,c,{name = .at05;}),
(125,480,l)
);
}
);
width = 290;
},
{
hints = (
{
place = (93,56);
type = Stem;
},
{
horizontal = 1;
origin = (0,16);
target = (0,13);
type = Stem;
},
{
horizontal = 1;
origin = (0,3);
target = (0,8);
type = Stem;
},
{
horizontal = 1;
origin = (0,18);
target = up;
type = BottomGhost;
}
);
layerId = "70A4CCFB-79CB-4069-A047-BEFA4B9EF1C4";
shapes = (
{
closed = 1;
nodes = (
(149.188,489.375,ls),
(149.188,535.542,o),
(186.599,573.75,o),
(233.562,573.75,cs),
(244.812,573.75,ls),
(266.911,573.75,o),
(286.062,597.857,o),
(286.062,630,c),
(233.562,630,ls),
(155.904,630,o),
(92.937,567.034,o),
(92.937,489.375,cs),
(92.937,480,l),
(72.312,480,ls),
(50.214,480,o),
(31.062,453.884,o),
(31.062,423.75,c),
(92.937,423.75,l),
(92.937,0,l),
(123.071,0,o),
(149.187,19.152,o),
(149.187,41.25,cs),
(149.187,423.75,l),
(244.812,423.75,ls),
(266.911,423.75,o),
(286.062,447.857,o),
(286.062,480,c),
(149.187,480,l)
);
}
);
width = 306;
}
);
unicode = 102;
},
{
glyphname = g;
layers = (
{
hints = (
{
place = (56,28);
type = Stem;
},
{
origin = (1,5);
target = (0,6);
type = Stem;
},
{
horizontal = 1;
origin = (0,32);
target = (2,2);
type = Stem;
},
{
horizontal = 1;
origin = (2,8);
target = (0,38);
type = Stem;
},
{
horizontal = 1;
origin = (0,3);
target = (0,20);
type = Stem;
},
{
horizontal = 1;
origin = (0,9);
target = (0,13);
type = Stem;
}
);
layerId = "FF4B10EE-E0A2-40F6-A8A2-E17FFC9F153D";
shapes = (
{
closed = 1;
nodes = (
(293,160,l),
(294,160,o),
(295,160,o),
(296,160,c,{name = .dv03;}),
(429,160,o),
(536,232,o),
(536,320,cs,{name = .sh01;}),
(536,375,o),
(495,423,o),
(432,452,c,{name = .sv02;}),
(508,452,ls,{name = .sh05;}),
(523,452,o),
(536,464,o),
(536,480,c,{name = .at01;}),
(296,480,ls),
(163,480,o),
(56,408,o),
(56,320,cs,{name = .sh02;}),
(56,265,o),
(97,217,o),
(160,188,c,{name = .dv04;}),
(102,186,o),
(56,138,o),
(56,80,cs,{name = .sh06;}),
(56,27,o),
(95,-18,o),
(146,-26,c,{name = .sv03;}),
(91,-48,o),
(56,-82,o),
(56,-120,cs,{name = .sh07;}),
(56,-186,o),
(163,-240,o),
(296,-240,cs,{name = .ab01;}),
(429,-240,o),
(536,-186,o),
(536,-120,cs,{name = .sh03;}),
(536,-54,o),
(429,0,o),
(296,0,cs,{name = .dv02;}),
(164,0,ls),
(120,0,o),
(84,36,o),
(84,80,cs,{name = .sh09;}),
(84,124,o),
(120,160,o),
(164,160,c,{name = .sv01;})
);
},
{
closed = 1;
nodes = (
(84,391,o),
(181,452,o),
(296,452,cs,{name = .sv04;}),
(411,452,o),
(508,391,o),
(508,320,cs,{name = .sh04;}),
(508,249,o),
(411,188,o),
(296,188,c,{name = .sv05;}),
(293,188,l),
(180,189,o),
(84,249,o),
(84,320,c,{name = .sh08;})
);
},
{
closed = 1;
nodes = (
(508,-173,o),
(396,-212,o),
(296,-212,cs,{name = .sv06;}),
(196,-212,o),
(84,-173,o),
(84,-120,cs,{name = .sh11;}),
(84,-67,o),
(196,-28,o),
(296,-28,cs,{name = .dv01;}),
(396,-28,o),
(508,-67,o),
(508,-120,cs,{name = .sh10;})
);
}
);
width = 577;
},
{
hints = (
{
place = (57,56);
type = Stem;
},
{
origin = (1,5);
target = (0,3);
type = Stem;
},
{
horizontal = 1;
origin = (0,29);
target = (2,2);
type = Stem;
},
{
horizontal = 1;
origin = (2,8);
target = (0,35);
type = Stem;
},
{
horizontal = 1;
place = (0,206);
type = Stem;
},
{
horizontal = 1;
origin = (0,6);
target = (0,10);
type = Stem;
}
);
layerId = "70A4CCFB-79CB-4069-A047-BEFA4B9EF1C4";
shapes = (
{
closed = 1;
nodes = (
(296.5,150,ls),
(429.5,150,o),
(536.5,224.25,o),
(536.5,315,cs),
(536.5,357.66,o),
(515.425,394.677,o),
(477.654,423.75,c),
(495.25,423.75,ls),
(517.348,423.75,o),
(536.5,447.857,o),
(536.5,480,c),
(296.5,480,ls),
(163.5,480,o),
(56.5,405.75,o),
(56.5,315,cs),
(56.5,268.002,o),
(82.792,227.159,o),
(127.675,197.263,c),
(86.31,179.356,o),
(56.5,137.599,o),
(56.5,90,cs),
(56.5,46.113,o),
(80.513,7.789,o),
(116.993,-11.727,c),
(78.844,-34.197,o),
(56.5,-63.941,o),
(56.5,-97.5,cs),
(56.5,-167.625,o),
(163.5,-225,o),
(296.5,-225,cs),
(429.5,-225,o),
(536.5,-167.625,o),
(536.5,-97.5,cs),
(536.5,-27.375,o),
(429.5,30,o),
(296.5,30,cs),
(172.75,30,ls),
(139.75,30,o),
(112.75,57,o),
(112.75,90,cs),
(112.75,123,o),
(139.75,150,o),
(172.75,150,cs)
);
},
{
closed = 1;
nodes = (
(112.75,373.494,o),
(196.824,423.75,o),
(296.5,423.75,cs),
(396.176,423.75,o),
(480.25,373.494,o),
(480.25,315,cs),
(480.25,256.506,o),
(396.176,206.25,o),
(296.5,206.25,cs),
(293.793,206.25,l),
(197.491,208.298,o),
(112.75,257.279,o),
(112.75,315,cs)
);
},
{
closed = 1;
nodes = (
(480.25,-138.546,o),
(383.175,-168.75,o),
(296.5,-168.75,cs),
(209.825,-168.75,o),
(112.75,-138.546,o),
(112.75,-97.5,cs),
(112.75,-56.454,o),
(209.825,-26.25,o),
(296.5,-26.25,cs),
(383.175,-26.25,o),
(480.25,-56.454,o),
(480.25,-97.5,cs)
);
}
);
width = 578;
}
);
unicode = 103;
},
{
glyphname = h;
layers = (
{
hints = (
{
origin = (0,6);
target = (0,3);
type = Stem;
},
{
origin = (0,17);
target = (0,22);
type = Stem;
},
{
horizontal = 1;
place = (451,29);
type = Stem;
},
{
horizontal = 1;
origin = (0,7);
target = up;
type = BottomGhost;
},
{
horizontal = 1;
origin = (0,3);
target = down;
type = TopGhost;
}
);
layerId = "FF4B10EE-E0A2-40F6-A8A2-E17FFC9F153D";
shapes = (
{
closed = 1;
nodes = (
(199,476,o),
(135,431,o),
(100,368,c,{name = .iv01;}),
(100,640,l,{name = .at01;}),
(85,640,o),
(72,627,o),
(72,612,cs,{name = .sh01;}),
(72,0,l,{name = .ab01;}),
(88,0,o),
(100,13,o),
(100,28,cs,{name = .sh02;}),
(100,266,ls),
(100,371,o),
(188.984,456.714,o),
(296,451,cs,{name = .sv01;}),
(394.985,445.714,o),
(472,360,o),
(472,260,cs,{name = .sh04;}),
(472,0,l,{name = .ab02;}),
(488,0,o),
(500,13,o),
(500,28,cs),
(500,266,ls,{name = .sh03;}),
(500,387,o),
(398,486,o),
(275,480,cs,{name = .at02;})
);
}
);
width = 563;
},
{
hints = (
{
origin = (0,6);
target = (0,3);
type = Stem;
},
{
origin = (0,17);
target = (0,22);
type = Stem;
},
{
horizontal = 1;
place = (423,57);
type = Stem;
},
{
horizontal = 1;
origin = (0,7);
target = up;
type = BottomGhost;
},
{
horizontal = 1;
origin = (0,3);
target = down;
type = TopGhost;
}
);
layerId = "70A4CCFB-79CB-4069-A047-BEFA4B9EF1C4";
shapes = (
{
closed = 1;
nodes = (
(218.574,476.915,o),
(165.474,447.93,o),
(128.75,407.154,c),
(128.75,630,l),
(98.616,630,o),
(72.5,610.848,o),
(72.5,588.75,cs),
(72.5,0,l),
(104.643,0,o),
(128.75,19.152,o),
(128.75,41.25,cs),
(128.75,264.375,ls),
(128.75,351.465,o),
(200.244,423.066,o),
(288.028,423.066,cs),
(377.523,423.066,o),
(447.5,346.964,o),
(447.5,258.75,cs),
(447.5,0,l),
(479.643,0,o),
(503.75,19.152,o),
(503.75,41.25,cs),
(503.75,264.375,ls),
(503.75,382.76,o),
(406.843,480.243,o),
(287.759,480.243,cs),
(284.461,480.243,o),
(280.414,480.157,o),
(277.053,479.981,cs)
);
}
);
width = 567;
}
);
unicode = 104;
},
{
glyphname = i;
layers = (
{
hints = (
{
origin = (1,8);
target = (1,2);
type = Stem;
},
{
origin = (0,7);
target = (0,4);
type = Stem;
},
{
horizontal = 1;
place = (0,640);
type = Stem;
},
{
horizontal = 1;
place = (0,21);
target = up;
type = BottomGhost;
},
{
horizontal = 1;
origin = (0,4);
target = down;
type = TopGhost;
}
);
layerId = "FF4B10EE-E0A2-40F6-A8A2-E17FFC9F153D";
shapes = (
{
closed = 1;
nodes = (
(72,0,l,{name = .ab02;}),
(88,0,o),
(101,13,o),
(101,28,cs),
(101,480,l,{name = .at06;}),
(85,480,o),
(72,467,o),
(72,452,cs,{name = .ih01;})
);
},
{
closed = 1;
nodes = (
(104,580,o),
(117,594,o),
(117,610,cs,{name = .dh04;}),
(117,627,o),
(104,640,o),
(87,640,cs,{name = .at07;}),
(70,640,o),
(57,627,o),
(57,610,cs,{name = .dh05;}),
(57,594,o),
(70,580,o),
(87,580,cs,{name = .sv08;})
);
}
);
width = 173;
},
{
hints = (
{
origin = (1,8);
target = (1,2);
type = Stem;
},
{
place = (0,129);
type = Stem;
},
{
horizontal = 1;
place = (0,630);
type = Stem;
},
{
horizontal = 1;
place = (0,21);
target = up;
type = BottomGhost;
}
);
layerId = "70A4CCFB-79CB-4069-A047-BEFA4B9EF1C4";
shapes = (
{
closed = 1;
nodes = (
(71.5,0,l),
(103.052,0,o),
(128.688,19.152,o),
(128.688,41.25,cs),
(128.688,480,l),
(97.136,480,o),
(71.5,460.848,o),
(71.5,438.75,cs)
);
},
{
closed = 1;
nodes = (
(125,543.75,o),
(143.688,563.875,o),
(143.688,586.875,cs),
(143.688,611.312,o),
(125,630,o),
(100.562,630,cs),
(76.125,630,o),
(57.438,611.312,o),
(57.438,586.875,cs),
(57.438,563.875,o),
(76.125,543.75,o),
(100.562,543.75,cs)
);
}
);
width = 200;
}
);
rightKerningGroup = i;
unicode = 105;
},
{
glyphname = j;
layers = (
{
hints = (
{
origin = (1,8);
target = (1,2);
type = Stem;
},
{
origin = (0,13);
target = (0,10);
type = Stem;
},
{
horizontal = 1;
place = (0,640);
type = Stem;
},
{
horizontal = 1;
origin = (0,6);
target = up;
type = BottomGhost;
},
{
horizontal = 1;
origin = (0,10);
target = down;
type = TopGhost;
}
);
layerId = "FF4B10EE-E0A2-40F6-A8A2-E17FFC9F153D";
shapes = (
{
closed = 1;
nodes = (
(73,-66,ls),
(73,-138,o),
(20,-198,o),
(-48,-210,c),
(-63,-212,o),
(-73,-225,o),
(-73,-240,c,{name = .ab00;}),
(23,-240,o),
(101,-162,o),
(101,-66,cs),
(101,480,l,{name = .at00;}),
(86,480,o),
(73,467,o),
(73,452,c,{name = .ih00;})
);
},
{
closed = 1;
nodes = (
(104,580,o),
(117,594,o),
(117,610,cs,{name = .dh00;}),
(117,627,o),
(104,640,o),
(87,640,cs,{name = .at03;}),
(70,640,o),
(57,627,o),
(57,610,cs,{name = .dh03;}),
(57,594,o),
(70,580,o),
(87,580,cs,{name = .sv00;})
);
}
);
width = 174;
},
{
hints = (
{
origin = (1,8);
target = (1,2);
type = Stem;
},
{
origin = (0,14);
target = (0,11);
type = Stem;
},
{
horizontal = 1;
place = (0,630);
type = Stem;
},
{
horizontal = 1;
origin = (0,7);
target = up;
type = BottomGhost;
}
);
layerId = "70A4CCFB-79CB-4069-A047-BEFA4B9EF1C4";
shapes = (
{
closed = 1;
nodes = (
(64.438,-46.875,ls),
(64.438,-106.987,o),
(20.178,-157.082,o),
(-36.607,-167.103,c),
(-35.982,-167.007,l),
(-57.856,-169.923,o),
(-72.438,-195.113,o),
(-72.438,-225,c),
(34.114,-225,o),
(120.687,-145.151,o),
(120.687,-46.875,cs),
(120.687,480,l),
(90.554,480,o),
(64.437,460.848,o),
(64.437,438.75,cs)
);
},
{
closed = 1;
nodes = (
(117,543.75,o),
(135.688,563.875,o),
(135.688,586.875,cs),
(135.688,611.312,o),
(117,630,o),
(92.562,630,cs),
(68.125,630,o),
(49.438,611.312,o),
(49.438,586.875,cs),
(49.438,563.875,o),
(68.125,543.75,o),
(92.562,543.75,cs)
);
}
);
width = 193;
}
);
rightKerningGroup = i;
unicode = 106;
},
{
glyphname = k;
layers = (
{
hints = (
{
origin = (0,8);
target = (0,5);
type = Stem;
},
{
horizontal = 1;
origin = (0,9);
target = up;
type = BottomGhost;
},
{
horizontal = 1;
origin = (0,5);
target = down;
type = TopGhost;
}
);
layerId = "FF4B10EE-E0A2-40F6-A8A2-E17FFC9F153D";
shapes = (
{
closed = 1;
nodes = (
(416,469,l),
(406,481,o),
(388,482,o),
(377,472,cs),
(101,231,l,{name = .iv01;}),
(101,640,l,{name = .at01;}),
(86,640,o),
(73,629,o),
(73,613,cs,{name = .dh01;}),
(73,0,l,{name = .ab01;}),
(89,0,o),
(101,13,o),
(101,28,cs,{name = .sh01;}),
(101,175,l,{name = .iv02;}),
(376,3,ls,{name = .ab02;}),
(389,-5,o),
(406,-1,o),
(415,12,c),
(111,202,l,{name = .iv03;})
);
}
);
width = 444;
},
{
hints = (
{
origin = (0,11);
target = (0,8);
type = Stem;
},
{
horizontal = 1;
origin = (0,8);
target = down;
type = TopGhost;
},
{
horizontal = 1;
origin = (0,20);
target = down;
type = TopGhost;
}
);
layerId = "70A4CCFB-79CB-4069-A047-BEFA4B9EF1C4";
shapes = (
{
closed = 1;
nodes = (
(430.895,453.044,l),
(416.535,470.276,o),
(401.783,478.892,o),
(390.247,478.892,cs),
(380.563,478.892,o),
(370.896,475.461,o),
(363.572,468.799,c),
(129.687,264.574,l),
(129.687,630,l),
(99.554,630,o),
(73.437,613.576,o),
(73.437,589.688,cs),
(73.437,0,l),
(105.58,0,o),
(129.687,19.152,o),
(129.687,41.25,cs),
(129.687,151.988,l),
(364.592,5.066,ls),
(371.319,0.927,o),
(378.749,-1.049,o),
(386.133,-1.049,cs),
(399.657,-1.049,o),
(416.182,10.181,o),
(430.344,30.638,c),
(149.138,206.391,l)
);
}
);
width = 459;
}
);
unicode = 107;
},
{
glyphname = l;
layers = (
{
hints = (
{
origin = (0,7);
target = (0,4);
type = Stem;
},
{
horizontal = 1;
place = (0,21);
target = up;
type = BottomGhost;
},
{
horizontal = 1;
origin = (0,4);
target = down;
type = TopGhost;
}
);
layerId = "FF4B10EE-E0A2-40F6-A8A2-E17FFC9F153D";
shapes = (
{
closed = 1;
nodes = (
(73,0,l,{name = .ab02;}),
(89,0,o),
(101,13,o),
(101,28,cs),
(101,640,l,{name = .at06;}),
(86,640,o),
(73,627,o),
(73,612,cs,{name = .dh04;})
);
}
);
width = 175;
},
{
hints = (
{
place = (0,130);
type = Stem;
},
{
horizontal = 1;
place = (0,21);
target = up;
type = BottomGhost;
},
{
horizontal = 1;
origin = (0,4);
target = down;
type = TopGhost;
}
);
layerId = "70A4CCFB-79CB-4069-A047-BEFA4B9EF1C4";
shapes = (
{
closed = 1;
nodes = (
(73.438,0,l),
(105.58,0,o),
(129.688,19.152,o),
(129.688,41.25,cs),
(129.688,630,l),
(99.554,630,o),
(73.438,610.848,o),
(73.438,588.75,cs)
);
}
);
width = 204;
}
);
rightKerningGroup = H;
unicode = 108;
},
{
glyphname = m;
layers = (
{
hints = (
{
origin = (0,12);
target = (0,9);
type = Stem;
},
{
origin = (0,26);
target = (0,31);
type = Stem;
},
{
origin = (0,37);
target = (0,42);
type = Stem;
},
{
horizontal = 1;
place = (451,29);
type = Stem;
},
{
horizontal = 1;
origin = (0,16);
target = down;
type = TopGhost;
}
);
layerId = "FF4B10EE-E0A2-40F6-A8A2-E17FFC9F153D";
shapes = (
{
closed = 1;
nodes = (
(546.485,479.987,o),
(477.3,429.538,o),
(447.76,356.19,c,{name = .iv01;}),
(419.432,428.703,o),
(348.914,479.99,o),
(266.446,479.99,cs,{name = .at02;}),
(197.512,479.99,o),
(135.99,442.384,o),
(101.22,383.3,c,{name = .iv02;}),
(101.22,479.95,l,{name = .at03;}),
(85.65,479.95,o),
(73,467.32,o),
(73,451.73,c,{name = .dh01;}),
(73,436.298,o),
(73,297.406,o),
(73,280.27,c,{name = .sh01;}),
(73,-0.01,l,{name = .ab01;}),
(88.58,-0.01,o),
(101.22,12.62,o),
(101.22,28.21,cs,{name = .sh02;}),
(101.22,286.15,l),
(101.38,382.77,o),
(184.54,460.28,o),
(281.494,451.156,cs,{name = .sv01;}),
(369.01,442.92,o),
(432.96,367.37,o),
(432.96,281.03,cs,{name = .dh02;}),
(432.96,0.04,l,{name = .ab02;}),
(448.53,0.04,o),
(461.16,12.68,o),
(461.16,28.25,cs),
(461.16,285.88,ls,{name = .dh03;}),
(461.16,382.62,o),
(544.41,460.28,o),
(641.455,451.147,cs,{name = .sv02;}),
(728.98,442.91,o),
(792.92,367.35,o),
(792.92,281.02,cs,{name = .dh04;}),
(792.92,0.02,l,{name = .ab03;}),
(808.5,0.02,o),
(821.14,12.65,o),
(821.14,28.24,cs),
(821.14,285.87,ls,{name = .dh05;}),
(821.14,393.176,o),
(733.612,479.987,o),
(627.43,479.987,cs,{name = .at01;})
);
}
);
width = 886;
},
{
hints = (
{
origin = (0,12);
target = (0,8);
type = Stem;
},
{
origin = (0,23);
target = (0,28);
type = Stem;
},
{
origin = (0,34);
target = (0,39);
type = Stem;
},
{
horizontal = 1;
origin = (0,20);
target = (0,5);
type = Stem;
},
{
horizontal = 1;
origin = (0,13);
target = down;
type = TopGhost;
}
);
layerId = "70A4CCFB-79CB-4069-A047-BEFA4B9EF1C4";
shapes = (
{
closed = 1;
nodes = (
(537.956,478.895,o),
(474.786,440.926,o),
(439.945,382.716,c),
(405.674,441.262,o),
(342.48,479.991,o),
(269.793,479.991,cs),
(216.354,479.991,o),
(165.795,456.21,o),
(129.894,419.121,c),
(129.894,479.953,l),
(98.745,479.953,o),
(73.438,461.399,o),
(73.438,438.497,cs),
(73.438,-0.009,l),
(104.606,-0.009,o),
(129.894,18.545,o),
(129.894,41.447,cs),
(129.894,283.242,l),
(131.566,359.357,o),
(194.006,423.644,o),
(269.357,423.644,cs),
(347.014,423.644,o),
(410.9,355.24,o),
(410.9,278.466,cs),
(410.9,0.037,l),
(442.061,0.037,o),
(467.338,18.609,o),
(467.338,41.484,cs),
(467.338,283.013,ls),
(467.338,360.56,o),
(530.436,423.636,o),
(606.818,423.636,cs),
(684.476,423.636,o),
(748.363,355.231,o),
(748.363,278.456,cs),
(748.363,0.019,l),
(779.532,0.019,o),
(804.819,18.573,o),
(804.819,41.475,cs),
(804.819,283.003,ls),
(804.819,391.894,o),
(715.984,479.988,o),
(608.216,479.988,cs)
);
}
);
width = 869;
}
);
leftKerningGroup = m2;
rightKerningGroup = m;
unicode = 109;
},
{
glyphname = n;
layers = (
{
hints = (
{
origin = (0,6);
target = (0,3);
type = Stem;
},
{
origin = (0,17);
target = (0,22);
type = Stem;
},
{
horizontal = 1;
place = (451,28);
type = Stem;
},
{
horizontal = 1;
origin = (0,7);
target = up;
type = BottomGhost;
}
);
layerId = "FF4B10EE-E0A2-40F6-A8A2-E17FFC9F153D";
shapes = (
{
closed = 1;
nodes = (
(208,479,o),
(139,435,o),
(101,367,c,{name = .iv01;}),
(101,480,l,{name = .at02;}),
(86,480,o),
(73,467,o),
(73,452,cs,{name = .sh01;}),
(73,0,l,{name = .ab01;}),
(89,0,o),
(101,13,o),
(101,28,cs,{name = .sh02;}),
(101,265,ls),
(101,367,o),
(184,451,o),
(286,451,cs,{name = .sv01;}),
(390,451,o),
(473,363,o),
(473,259,cs,{name = .sh04;}),
(473,0,l,{name = .ab02;}),
(489,0,o),
(501,13,o),
(501,28,cs),
(501,265,ls,{name = .sh03;}),
(501,383,o),
(404,479,o),
(286,479,cs,{name = .at01;})
);
}
);
width = 564;
},
{
hints = (
{
origin = (0,6);
target = (0,2);
type = Stem;
},
{
origin = (0,17);
target = (0,22);
type = Stem;
},
{
horizontal = 1;
place = (423,56);
type = Stem;
},
{
horizontal = 1;
origin = (0,7);
target = up;
type = BottomGhost;
}
);
layerId = "70A4CCFB-79CB-4069-A047-BEFA4B9EF1C4";
shapes = (
{
closed = 1;
nodes = (
(225.631,479.062,o),
(169.545,451.869,o),
(129.688,406.151,c),
(129.688,480,l),
(99.554,480,o),
(73.438,460.848,o),
(73.438,438.75,cs),
(73.438,0,l),
(105.58,0,o),
(129.688,19.152,o),
(129.688,41.25,cs),
(129.688,263.438,ls),
(129.688,350.837,o),
(200.77,422.812,o),
(288.125,422.812,cs),
(377.283,422.812,o),
(448.438,347.188,o),
(448.438,257.812,cs),
(448.438,0,l),
(480.58,0,o),
(504.688,19.152,o),
(504.688,41.25,cs),
(504.688,263.438,ls),
(504.688,382.334,o),
(406.983,479.062,o),
(288.125,479.062,cs)
);
}
);
width = 568;
}
);
leftKerningGroup = m2;
rightKerningGroup = m;
unicode = 110;
},
{
glyphname = o;
layers = (
{
hints = (
{
origin = (0,2);
target = (1,2);
type = Stem;
},
{
origin = (1,8);
target = (0,8);
type = Stem;
},
{
horizontal = 1;
place = (0,28);
type = Stem;
},
{
horizontal = 1;
place = (452,28);
type = Stem;
}
);
layerId = "FF4B10EE-E0A2-40F6-A8A2-E17FFC9F153D";
shapes = (
{
closed = 1;
nodes = (
(154,480,o),
(47,372,o),
(47,240,cs,{name = .sh01;}),
(47,107,o),
(154,0,o),
(287,0,cs,{name = .ab01;}),
(420,0,o),
(527,107,o),
(527,240,cs,{name = .sh02;}),
(527,372,o),
(420,480,o),
(287,480,cs,{name = .at01;})
);
},
{
closed = 1;
nodes = (
(170,28,o),
(75,123,o),
(75,240,cs,{name = .sh03;}),
(75,357,o),
(170,452,o),
(287,452,cs,{name = .sv02;}),
(404,452,o),
(499,357,o),
(499,240,cs,{name = .sh04;}),
(499,123,o),
(404,28,o),
(287,28,cs,{name = .sv01;})
);
}
);
width = 574;
},
{
hints = (
{
origin = (0,2);
target = (1,2);
type = Stem;
},
{
origin = (1,8);
target = (0,8);
type = Stem;
},
{
horizontal = 1;
place = (0,56);
type = Stem;
},
{
horizontal = 1;
place = (424,56);
type = Stem;
}
);
layerId = "70A4CCFB-79CB-4069-A047-BEFA4B9EF1C4";
shapes = (
{
closed = 1;
nodes = (
(154.062,480,o),
(47.062,372,o),
(47.062,240,cs),
(47.062,107,o),
(154.062,0,o),
(287.062,0,cs),
(420.062,0,o),
(527.062,107,o),
(527.062,240,cs),
(527.062,372,o),
(420.062,480,o),
(287.062,480,cs)
);
},
{
closed = 1;
nodes = (
(185.653,56.25,o),
(103.312,138.591,o),
(103.312,240,cs),
(103.312,341.409,o),
(185.653,423.75,o),
(287.062,423.75,cs),
(388.472,423.75,o),
(470.812,341.409,o),
(470.812,240,cs),
(470.812,138.591,o),
(388.472,56.25,o),
(287.062,56.25,cs)
);
}
);
width = 575;
}
);
leftKerningGroup = a2;
rightKerningGroup = o;
unicode = 111;
},
{
glyphname = p;
layers = (
{
hints = (
{
origin = (0,6);
target = (0,3);
type = Stem;
},
{
origin = (1,8);
target = (0,17);
type = Stem;
},
{
horizontal = 1;
place = (0,28);
type = Stem;
},
{
horizontal = 1;
place = (452,28);
type = Stem;
},
{
horizontal = 1;
origin = (0,7);
target = down;
type = TopGhost;
}
);
layerId = "FF4B10EE-E0A2-40F6-A8A2-E17FFC9F153D";
shapes = (
{
closed = 1;
nodes = (
(221.25,479.972,o),
(141.6,428.48,o),
(101.22,352.85,c,{name = .iv01;}),
(101.22,479.95,l,{name = .at02;}),
(85.64,479.95,o),
(73,467.32,o),
(73,451.73,cs,{name = .sh01;}),
(73,-239.97,l,{name = .ab01;}),
(88.58,-239.97,o),
(101.22,-227.34,o),
(101.22,-211.75,cs,{name = .sh02;}),
(101.22,127.18,l,{name = .iv02;}),
(141.6,51.55,o),
(221.25,0.05,o),
(312.98,0.05,cs,{name = .ab02;}),
(445.51,0.05,o),
(552.95,107.49,o),
(552.95,240.03,cs,{name = .sh03;}),
(552.95,372.56,o),
(445.51,479.992,o),
(312.98,479.98,cs,{name = .at01;})
);
},
{
closed = 1;
nodes = (
(196.22,28.24,o),
(101.22,123.23,o),
(101.22,240,cs,{name = .sh04;}),
(101.22,356.77,o),
(196.22,451.76,o),
(312.98,451.76,cs,{name = .sv02;}),
(429.73,451.76,o),
(524.74,356.77,o),
(524.74,240,cs,{name = .sh05;}),
(524.74,123.23,o),
(429.75,28.24,o),
(312.98,28.24,cs,{name = .sv01;})
);
}
);
width = 600;
},
{
hints = (
{
origin = (0,6);
target = (0,3);
type = Stem;
},
{
origin = (1,8);
target = (0,17);
type = Stem;
},
{
horizontal = 1;
place = (0,56);
type = Stem;
},
{
horizontal = 1;
place = (424,56);
type = Stem;
},
{
horizontal = 1;
origin = (0,7);
target = down;
type = TopGhost;
}
);
layerId = "70A4CCFB-79CB-4069-A047-BEFA4B9EF1C4";
shapes = (
{
closed = 1;
nodes = (
(238.886,479.975,o),
(173.889,447.838,o),
(129.894,394.528,c),
(129.894,479.953,l),
(98.725,479.953,o),
(73.437,461.399,o),
(73.437,438.497,cs),
(73.437,-224.972,l),
(104.606,-224.972,o),
(129.894,-206.418,o),
(129.894,-183.516,cs),
(129.894,85.499,l),
(173.889,32.188,o),
(238.887,0.047,o),
(313.419,0.047,cs),
(445.95,0.047,o),
(553.391,107.487,o),
(553.391,240.028,cs),
(553.391,372.56,o),
(445.949,479.993,o),
(313.417,479.981,cs)
);
},
{
closed = 1;
nodes = (
(213.967,58.498,o),
(129.894,140.065,o),
(129.894,240,cs),
(129.894,341.2,o),
(212.227,423.525,o),
(313.419,423.525,cs),
(414.602,423.525,o),
(496.944,341.2,o),
(496.944,240,cs),
(496.944,138.8,o),
(414.619,56.475,o),
(313.419,56.475,c)
);
}
);
width = 601;
}
);
leftKerningGroup = m2;
rightKerningGroup = o;
unicode = 112;
},
{
glyphname = q;
layers = (
{
hints = (
{
origin = (0,6);
target = (1,2);
type = Stem;
},
{
origin = (0,20);
target = (0,17);
type = Stem;
},
{
horizontal = 1;
place = (0,28);
type = Stem;
},
{
horizontal = 1;
origin = (1,5);
target = (0,3);
type = Stem;
},
{
horizontal = 1;
origin = (0,16);
target = up;
type = BottomGhost;
}
);
layerId = "FF4B10EE-E0A2-40F6-A8A2-E17FFC9F153D";
shapes = (
{
closed = 1;
nodes = (
(498.735,352.832,l,{name = .iv01;}),
(458.339,428.474,o),
(378.704,479.974,o),
(286.977,479.974,cs,{name = .at02;}),
(154.445,479.974,o),
(47,372.529,o),
(47,239.997,cs,{name = .sh02;}),
(47,107.465,o),
(154.445,0.02,o),
(286.977,0.02,cs,{name = .ab02;}),
(378.704,0.02,o),
(458.354,51.52,o),
(498.735,127.148,c,{name = .iv02;}),
(498.735,-211.781,ls),
(498.735,-227.358,o),
(511.364,-240,o),
(526.955,-240,c,{name = .ab01;}),
(526.955,451.713,ls,{name = .sh01;}),
(526.955,467.304,o),
(514.312,479.932,o),
(498.735,479.932,c,{name = .at01;})
);
},
{
closed = 1;
nodes = (
(170.22,28.239,o),
(75.219,123.225,o),
(75.219,239.997,cs,{name = .sh03;}),
(75.219,356.769,o),
(170.206,451.755,o),
(286.977,451.755,cs,{name = .sv02;}),
(403.749,451.755,o),
(498.735,356.755,o),
(498.735,239.997,cs,{name = .sh04;}),
(498.735,123.239,o),
(403.735,28.239,o),
(286.977,28.239,cs,{name = .sv01;})
);
}
);
width = 600;
},
{
hints = (
{
origin = (0,6);
target = (1,2);
type = Stem;
},
{
origin = (0,12);
target = (0,16);
type = Stem;
},
{
horizontal = 1;
place = (0,56);
type = Stem;
},
{
horizontal = 1;
origin = (1,5);
target = (0,3);
type = Stem;
},
{
horizontal = 1;
origin = (0,16);
target = up;
type = BottomGhost;
}
);
layerId = "70A4CCFB-79CB-4069-A047-BEFA4B9EF1C4";
shapes = (
{
closed = 1;
nodes = (
(470.564,394.511,l),
(426.565,447.827,o),
(361.571,479.976,o),
(287.041,479.976,cs),
(154.508,479.976,o),
(47.063,372.53,o),
(47.063,239.997,cs),
(47.063,107.464,o),
(154.508,0.019,o),
(287.041,0.019,cs),
(361.571,0.019,o),
(426.569,32.161,o),
(470.564,85.471,c),
(470.564,-183.545,ls),
(470.564,-206.428,o),
(495.829,-225,o),
(527.02,-225,c),
(527.02,438.481,ls),
(527.02,461.385,o),
(501.727,479.936,o),
(470.564,479.936,c)
);
},
{
closed = 1;
nodes = (
(185.852,56.474,o),
(103.518,138.795,o),
(103.518,239.997,cs),
(103.518,341.199,o),
(185.84,423.52,o),
(287.041,423.52,cs),
(388.243,423.52,o),
(470.564,341.187,o),
(470.564,239.997,cs),
(470.564,138.807,o),
(388.231,56.474,o),
(287.041,56.474,cs)
);
}
);
width = 601;
}
);
leftKerningGroup = a2;
rightKerningGroup = a;
unicode = 113;
},
{
glyphname = r;
layers = (
{
hints = (
{
origin = (0,6);
target = (0,3);
type = Stem;
},
{
horizontal = 1;
origin = (0,7);
target = up;
type = BottomGhost;
},
{
horizontal = 1;
origin = (0,3);
target = down;
type = TopGhost;
}
);
layerId = "FF4B10EE-E0A2-40F6-A8A2-E17FFC9F153D";
shapes = (
{
closed = 1;
nodes = (
(134,441,o),
(115,421,o),
(101,399,c,{name = .iv01;}),
(101,480,l,{name = .at01;}),
(86,480,o),
(73,467,o),
(73,452,cs,{name = .dh01;}),
(73,0,l,{name = .ab01;}),
(89,0,o),
(101,13,o),
(101,28,cs,{name = .sh01;}),
(101,302,ls),
(101,354,o),
(127,404,o),
(172,431,cs),
(212,454,o),
(258,457,o),
(298,443,c),
(311,437,o),
(327,444,o),
(334,456,c),
(281,487,o),
(214,489,o),
(157,455,cs)
);
}
);
width = 355;
},
{
hints = (
{
origin = (0,6);
target = (0,2);
type = Stem;
},
{
horizontal = 1;
origin = (0,14);
target = (0,3);
type = Stem;
},
{
horizontal = 1;
origin = (0,7);
target = up;
type = BottomGhost;
}
);
layerId = "70A4CCFB-79CB-4069-A047-BEFA4B9EF1C4";
shapes = (
{
closed = 1;
nodes = (
(148.547,447.776,o),
(138.709,440.022,o),
(129.688,431.219,c),
(129.688,480,l),
(99.554,480,o),
(73.438,460.848,o),
(73.438,438.75,cs),
(73.438,0,l),
(105.58,0,o),
(129.688,19.152,o),
(129.688,41.25,cs),
(129.688,298.125,ls),
(129.688,367.764,o),
(183.326,423.233,o),
(252.66,423.233,cs),
(266.6,423.233,o),
(281.029,420.714,o),
(294.066,416.275,c),
(298.874,414.218,o),
(303.874,413.262,o),
(308.867,413.262,cs),
(323.757,413.262,o),
(341.663,427.367,o),
(353.631,447.883,c),
(317.841,468.817,o),
(282.389,479.884,o),
(250.903,479.884,cs),
(219.892,479.884,o),
(188.424,471.696,o),
(159.446,454.41,cs)
);
}
);
width = 375;
}
);
leftKerningGroup = m2;
unicode = 114;
},
{
glyphname = s;
layers = (
{
hints = (
{
origin = (0,30);
target = (0,48);
type = Stem;
},
{
horizontal = 1;
place = (228,28);
type = Stem;
},
{
horizontal = 1;
origin = (0,45);
target = up;
type = BottomGhost;
}
);
layerId = "FF4B10EE-E0A2-40F6-A8A2-E17FFC9F153D";
shapes = (
{
closed = 1;
nodes = (
(172,269,o),
(84,281,o),
(78,354,c),
(78,380,o),
(93,402,o),
(124,419,c),
(197,462,o),
(335,463,o),
(407,421,cs),
(427,410,o),
(440,396,o),
(445,381,c),
(451,367,o),
(462,358,o),
(475,358,c),
(478,358,l,{name = .sh01;}),
(478,394,o),
(458,424,o),
(421,446,cs),
(340,492,o),
(192,491,o),
(110,444,cs),
(71,421,o),
(50,390,o),
(50,353,c),
(57,256,o),
(160.998,241.985,o),
(262,228,cs,{name = .dv01;}),
(355.998,214.985,o),
(445,202,o),
(450,128,c,{name = .dh01;}),
(450,102,o),
(434,79,o),
(403,61,cs),
(330,18,o),
(193,17,o),
(122,59,cs),
(102,70,o),
(88,84,o),
(83,99,c),
(77,113,o),
(66,122,o),
(50,122,c),
(50,25,o),
(185,0,o),
(258,0,c,{name = .ab01;}),
(335,0,o),
(478,28,o),
(478,129,c,{name = .dh02;}),
(471,227,o),
(367,242,o),
(265,256,cs,{name = .dv02;})
);
}
);
width = 530;
},
{
hints = (
{
origin = (0,18);
target = (0,2);
type = Stem;
},
{
origin = (0,24);
target = (0,39);
type = Stem;
},
{
horizontal = 1;
origin = (0,36);
target = (0,27);
type = Stem;
},
{
horizontal = 1;
place = (214,56);
type = Stem;
},
{
horizontal = 1;
origin = (0,5);
target = (0,15);
type = Stem;
}
);
layerId = "70A4CCFB-79CB-4069-A047-BEFA4B9EF1C4";
shapes = (
{
closed = 1;
nodes = (
(190.532,280.785,o),
(113.46,293.624,o),
(107.139,347.556,c),
(108.36,408.292,o),
(228.232,423.642,o),
(270.869,423.642,cs),
(308.745,423.642,o),
(407.151,411.863,o),
(422.155,366.852,c),
(430.301,347.844,o),
(445.742,335.625,o),
(464.313,335.625,cs),
(482.125,335.625,l),
(482.125,451.022,o),
(365.366,479.891,o),
(270.86,479.891,cs),
(189.165,479.891,o),
(50.894,450.446,o),
(50.894,345.398,c),
(58.374,241.754,o),
(161.962,227.822,o),
(262.568,213.892,cs),
(343.457,202.692,o),
(420.231,189.904,o),
(425.863,134.44,c),
(424.57,72.361,o),
(305.634,56.358,o),
(261.798,56.358,cs),
(224.752,56.358,o),
(125.553,69.024,o),
(110.846,113.148,c),
(102.699,132.156,o),
(83.084,144.375,o),
(50.875,144.375,c),
(50.875,29.585,o),
(187.173,0,o),
(260.875,0,cs),
(338.306,0,o),
(482.106,29.622,o),
(482.106,136.472,c),
(474.645,240.927,o),
(371.048,255.806,o),
(269.496,269.858,cs)
);
}
);
width = 535;
}
);
unicode = 115;
},
{
glyphname = t;
layers = (
{
hints = (
{
origin = (0,19);
target = (0,4);
type = Stem;
},
{
horizontal = 1;
place = (0,28);
type = Stem;
},
{
horizontal = 1;
origin = (0,4);
target = (0,9);
type = Stem;
},
{
horizontal = 1;
origin = (0,10);
target = down;
type = TopGhost;
}
);
layerId = "FF4B10EE-E0A2-40F6-A8A2-E17FFC9F153D";
shapes = (
{
closed = 1;
nodes = (
(230,28,ls),
(171,28,o),
(124,76,o),
(124,134,cs,{name = .sh00;}),
(124,452,l,{name = .sv02;}),
(242,452,ls,{name = .sv03;}),
(257,452,o),
(270,464,o),
(270,480,c,{name = .at02;}),
(124,480,l),
(124,640,l,{name = .at00;}),
(109,640,o),
(96,627,o),
(96,612,cs,{name = .dh01;}),
(96,480,l,{name = .at03;}),
(58,480,ls),
(43,480,o),
(30,467,o),
(30,452,c,{name = .sv04;}),
(96,452,l,{name = .sv05;}),
(96,134,ls),
(96,60,o),
(156,0,o),
(230,0,cs,{name = .ab00;}),
(270,0,l),
(270,16,o),
(257,28,o),
(242,28,c,{name = .sv00;})
);
}
);
width = 297;
},
{
hints = (
{
origin = (0,13);
target = (0,10);
type = Stem;
},
{
horizontal = 1;
place = (0,56);
type = Stem;
},
{
horizontal = 1;
origin = (0,4);
target = (0,9);
type = Stem;
},
{
horizontal = 1;
origin = (0,10);
target = down;
type = TopGhost;
}
);
layerId = "70A4CCFB-79CB-4069-A047-BEFA4B9EF1C4";
shapes = (
{
closed = 1;
nodes = (
(232.625,56.25,ls),
(185.662,56.25,o),
(148.25,94.458,o),
(148.25,140.625,cs),
(148.25,423.75,l),
(243.875,423.75,ls),
(265.973,423.75,o),
(285.125,447.857,o),
(285.125,480,c),
(148.25,480,l),
(148.25,630,l),
(118.116,630,o),
(92,610.848,o),
(92,588.75,cs),
(92,480,l),
(71.375,480,ls),
(49.277,480,o),
(30.125,453.884,o),
(30.125,423.75,c),
(92,423.75,l),
(92,140.625,ls),
(92,62.966,o),
(154.966,0,o),
(232.625,0,cs),
(285.125,0,l),
(285.125,32.143,o),
(265.973,56.25,o),
(243.875,56.25,cs)
);
}
);
width = 313;
}
);
unicode = 116;
},
{
glyphname = u;
layers = (
{
hints = (
{
origin = (0,10);
target = (0,7);
type = Stem;
},
{
origin = (0,25);
target = (0,22);
type = Stem;
},
{
horizontal = 1;
origin = (0,14);
target = (0,3);
type = Stem;
},
{
horizontal = 1;
origin = (0,7);
target = down;
type = TopGhost;
}
);
layerId = "FF4B10EE-E0A2-40F6-A8A2-E17FFC9F153D";
shapes = (
{
closed = 1;
nodes = (
(461,214,ls),
(461,104,o),
(365.964,16.671,o),
(255,29,cs,{name = .sv01;}),
(158.963,39.671,o),
(89,124,o),
(89,219,cs),
(89,480,l,{name = .at02;}),
(74,480,o),
(61,467,o),
(61,452,cs,{name = .sh02;}),
(61,220,ls),
(61,110,o),
(140.98,13.831,o),
(252,1,cs,{name = .ab01;}),
(339.981,-9.169,o),
(420,37,o),
(461,108,c,{name = .iv01;}),
(461,0,l,{name = .ab02;}),
(477,0,o),
(489,13,o),
(489,28,cs),
(489,452,ls,{name = .sh01;}),
(489,467,o),
(477,480,o),
(461,480,c,{name = .at01;})
);
}
);
width = 562;
},
{
hints = (
{
origin = (0,10);
target = (0,7);
type = Stem;
},
{
origin = (0,17);
target = (0,21);
type = Stem;
},
{
horizontal = 1;
origin = (0,18);
target = (0,3);
type = Stem;
},
{
horizontal = 1;
origin = (0,7);
target = down;
type = TopGhost;
}
);
layerId = "70A4CCFB-79CB-4069-A047-BEFA4B9EF1C4";
shapes = (
{
closed = 1;
nodes = (
(436.188,215.625,ls),
(436.188,127.34,o),
(364.788,56.097,o),
(277.653,56.097,cs),
(187.85,56.097,o),
(117.438,131.195,o),
(117.438,220.312,cs),
(117.438,480,l),
(87.304,480,o),
(61.188,460.848,o),
(61.188,438.75,cs),
(61.188,221.25,ls),
(61.188,100.622,o),
(156.524,-0.376,o),
(277.96,-0.376,cs),
(340.59,-0.376,o),
(396.638,26.565,o),
(436.188,70.503,c),
(436.188,0,l),
(468.33,0,o),
(492.438,19.152,o),
(492.438,41.25,cs),
(492.438,438.75,ls),
(492.438,460.848,o),
(468.33,480,o),
(436.188,480,c)
);
}
);
width = 566;
}
);
rightKerningGroup = a;
unicode = 117;
},
{
glyphname = v;
layers = (
{
hints = (
{
horizontal = 1;
origin = (0,4);
target = down;
type = TopGhost;
},
{
horizontal = 1;
origin = (0,8);
target = down;
type = TopGhost;
}
);
layerId = "FF4B10EE-E0A2-40F6-A8A2-E17FFC9F153D";
shapes = (
{
closed = 1;
nodes = (
(233.35,50.86,l,{name = .iv01;}),
(66.33,451.73,ls),
(59.2,468.82,o),
(42.51,479.95,o),
(24,479.95,c,{name = .at01;}),
(220.34,8.74,ls),
(222.526,3.493,o),
(227.67,0.06,o),
(233.36,0.06,cs,{name = .ab01;}),
(239.05,0.06,o),
(244.2,3.49,o),
(246.38,8.74,cs),
(442.72,479.95,l,{name = .at02;}),
(424.21,479.95,o),
(407.52,468.82,o),
(400.36,451.73,cs)
);
}
);
width = 467;
},
{
hints = (
{
horizontal = 1;
origin = (0,4);
target = down;
type = TopGhost;
},
{
horizontal = 1;
origin = (0,8);
target = down;
type = TopGhost;
}
);
layerId = "70A4CCFB-79CB-4069-A047-BEFA4B9EF1C4";
shapes = (
{
closed = 1;
nodes = (
(243.765,101.684,l),
(101.029,444.269,ls),
(92.013,465.879,o),
(62.037,479.953,o),
(25,479.953,c),
(217.723,17.424,ls),
(222.097,6.926,o),
(232.39,0.056,o),
(243.775,0.056,cs),
(255.16,0.056,o),
(265.468,6.926,o),
(269.834,17.441,cs),
(462.55,479.953,l),
(425.51,479.953,o),
(395.548,465.883,o),
(386.497,444.279,cs)
);
}
);
width = 487;
}
);
leftKerningGroup = v2;
rightKerningGroup = v;
unicode = 118;
},
{
glyphname = w;
layers = (
{
hints = (
{
horizontal = 1;
place = (0,-20);
target = down;
type = TopGhost;
},
{
horizontal = 1;
place = (0,21);
target = up;
type = BottomGhost;
}
);
layerId = "FF4B10EE-E0A2-40F6-A8A2-E17FFC9F153D";
shapes = (
{
closed = 1;
nodes = (
(719.49,450.7,l),
(553.48,52.23,l),
(412.5,379.19,ls),
(409.26,386.68,o),
(401.89,391.54,o),
(393.72,391.54,cs),
(385.55,391.54,o),
(378.17,386.68,o),
(374.94,379.19,cs),
(233.95,52.23,l),
(67.94,450.7,ls),
(60.56,468.43,o),
(43.22,479.99,o),
(24,479.99,c),
(220.2,9.07,ls),
(222.45,3.65,o),
(227.74,0.09,o),
(233.61,0.05,c),
(233.71,0.05,l),
(239.55,0.05,o),
(244.84,3.53,o),
(247.16,8.9,cs),
(393.7,348.74,l),
(540.24,8.9,ls),
(542.56,3.53,o),
(547.85,0.05,o),
(553.69,0.05,c),
(553.79,0.05,l),
(559.66,0.09,o),
(564.95,3.65,o),
(567.21,9.07,cs),
(763.4,479.99,l),
(744.19,479.99,o),
(726.86,468.43,o),
(719.47,450.7,c)
);
}
);
width = 788;
},
{
hints = (
{
horizontal = 1;
origin = (0,28);
target = down;
type = TopGhost;
},
{
horizontal = 1;
origin = (0,16);
target = down;
type = TopGhost;
}
);
layerId = "70A4CCFB-79CB-4069-A047-BEFA4B9EF1C4";
shapes = (
{
closed = 1;
nodes = (
(542.65,102.4,l),
(424.489,376.438,ls),
(419.077,388.95,o),
(406.763,397.069,o),
(393.113,397.069,cs),
(379.462,397.069,o),
(367.13,388.947,o),
(361.732,376.43,cs),
(243.566,102.399,l),
(101.54,443.3,ls),
(92.296,465.508,o),
(61.697,479.991,o),
(24,479.991,c),
(216.59,17.734,ls),
(221,7.114,o),
(231.404,0.087,o),
(243.103,0.047,cs),
(254.559,0.008,o),
(264.935,6.87,o),
(269.484,17.4,cs),
(393.094,304.061,l),
(516.703,17.4,ls),
(521.252,6.87,o),
(531.628,0.047,o),
(543.229,0.047,cs),
(554.777,0.126,o),
(565.177,7.104,o),
(569.605,17.732,cs),
(762.186,479.991,l),
(724.499,479.991,o),
(693.906,465.505,o),
(684.673,443.294,cs)
);
}
);
width = 787;
}
);
leftKerningGroup = v2;
rightKerningGroup = v;
unicode = 119;
},
{
glyphname = x;
layers = (
{
hints = (
{
horizontal = 1;
place = (0,-20);
target = down;
type = TopGhost;
},
{
horizontal = 1;
origin = (0,10);
target = up;
type = BottomGhost;
}
);
layerId = "FF4B10EE-E0A2-40F6-A8A2-E17FFC9F153D";
shapes = (
{
closed = 1;
nodes = (
(543,480,l,{name = .at01;}),
(517,480,o),
(493,470,o),
(475,452,cs),
(283,260,l),
(91,452,ls),
(73,470,o),
(49,480,o),
(23,480,c,{name = .at02;}),
(263,240,l),
(23,0,l,{name = .ab01;}),
(49,0,o),
(73,10,o),
(91,28,cs),
(283,220,l),
(475,28,ls),
(493,10,o),
(517,0,o),
(543,0,c,{name = .ab02;}),
(303,240,l)
);
}
);
width = 566;
},
{
hints = (
{
horizontal = 1;
place = (0,-20);
target = down;
type = TopGhost;
},
{
horizontal = 1;
origin = (0,10);
target = up;
type = BottomGhost;
}
);
layerId = "70A4CCFB-79CB-4069-A047-BEFA4B9EF1C4";
shapes = (
{
closed = 1;
nodes = (
(583.276,480,l),
(531.324,480,o),
(492.405,469.056,o),
(472.706,449.357,cs),
(303.312,279.963,l),
(133.919,449.357,ls),
(114.307,468.581,o),
(74.968,480,o),
(23.349,480,c),
(263.349,240,l),
(23.349,0,l),
(75.301,0,o),
(114.22,10.944,o),
(133.919,30.643,cs),
(303.312,200.037,l),
(472.706,30.643,ls),
(492.405,10.944,o),
(531.324,0,o),
(583.276,0,c),
(343.276,240,l)
);
}
);
width = 607;
}
);
unicode = 120;
},
{
glyphname = y;
layers = (
{
hints = (
{
horizontal = 1;
origin = (0,12);
target = up;
type = BottomGhost;
}
);
layerId = "FF4B10EE-E0A2-40F6-A8A2-E17FFC9F153D";
shapes = (
{
closed = 1;
nodes = (
(238,48,l),
(62,459,ls),
(56,473,o),
(39,480,o),
(25,473,c),
(223,10,l),
(165,-127,ls),
(147,-170,o),
(108,-201,o),
(63,-209,cs),
(49,-212,o),
(38,-225,o),
(38,-240,c,{name = .ab01;}),
(105,-240,o),
(165,-200,o),
(191,-138,cs),
(451,473,l),
(437,480,o),
(420,473,o),
(414,459,cs)
);
}
);
width = 476;
},
{
hints = (
{
horizontal = 1;
origin = (0,15);
target = up;
type = BottomGhost;
},
{
horizontal = 1;
origin = (0,4);
target = down;
type = TopGhost;
}
);
layerId = "70A4CCFB-79CB-4069-A047-BEFA4B9EF1C4";
shapes = (
{
closed = 1;
nodes = (
(244.125,98.105,l),
(92.913,451.219,ls),
(86.41,466.393,o),
(71.175,476.012,o),
(55.341,476.012,cs),
(49.416,476.012,o),
(39.402,472.691,o),
(25.089,465.534,c),
(213.761,24.345,l),
(161.863,-98.243,ls),
(146.947,-133.874,o),
(114.568,-159.573,o),
(77.178,-166.22,c),
(57.268,-170.486,o),
(41.625,-195.073,o),
(41.625,-225,c),
(119.619,-225,o),
(187.176,-183.893,o),
(213.895,-120.176,cs),
(463.139,465.545,l),
(449.287,472.471,o),
(438.896,475.811,o),
(432.909,476.012,c),
(417.449,475.605,o),
(401.698,466.063,o),
(395.337,451.219,cs)
);
}
);
width = 489;
}
);
leftKerningGroup = v2;
rightKerningGroup = v;
unicode = 121;
},
{
glyphname = z;
layers = (
{
hints = (
{
horizontal = 1;
origin = (0,15);
target = (0,19);
type = Stem;
},
{
horizontal = 1;
origin = (0,6);
target = (0,3);
type = Stem;
}
);
layerId = "FF4B10EE-E0A2-40F6-A8A2-E17FFC9F153D";
shapes = (
{
closed = 1;
nodes = (
(529,477,o),
(524,480,o),
(518,480,cs,{name = .at01;}),
(71,480,ls),
(56,480,o),
(43,468,o),
(43,452,c,{name = .sv01;}),
(483,452,l),
(33,23.172,ls),
(29,19.31,o),
(28,13.517,o),
(30,8.69,cs,{name = .ab01;}),
(32,3.862,o),
(37,-0.013,o),
(43,0,cs,{name = .ab02;}),
(495,0.965,ls),
(510,0.998,o),
(523,13.517,o),
(523,28,c,{name = .sv02;}),
(78,27.035,l),
(528,456,ls),
(532.095,459.903,o),
(533,466,o),
(531,471,cs)
);
}
);
width = 563;
},
{
hints = (
{
horizontal = 1;
origin = (0,16);
target = (0,20);
type = Stem;
},
{
horizontal = 1;
origin = (0,7);
target = (0,4);
type = Stem;
}
);
layerId = "70A4CCFB-79CB-4069-A047-BEFA4B9EF1C4";
shapes = (
{
closed = 1;
nodes = (
(529.043,461.306,l),
(524.888,473.769,o),
(514.737,480,o),
(502.625,480,cs),
(83.562,480,ls),
(61.464,480,o),
(42.312,455.893,o),
(42.312,423.75,c),
(432.329,423.75,l),
(37.554,47.549,ls),
(31.976,42.164,o),
(29.187,35.011,o),
(29.187,27.874,cs),
(29.187,12.646,o),
(42.294,0.575,o),
(57.345,0,c),
(481.095,0.905,ls),
(503.176,0.952,o),
(522.312,26.598,o),
(522.312,56.283,c),
(127.686,55.426,l),
(522.35,431.643,ls),
(528.02,437.048,o),
(530.77,444.335,o),
(530.77,451.567,cs),
(530.77,455.162,o),
(530.086,458.768,o),
(528.74,462.133,c)
);
}
);
width = 561;
}
);
unicode = 122;
},
{
glyphname = braceleft;
layers = (
{
hints = (
{
origin = (0,22);
target = (0,13);
type = Stem;
},
{
horizontal = 1;
origin = (0,19);
target = down;
type = TopGhost;
},
{
horizontal = 1;
place = (0,21);
target = up;
type = BottomGhost;
}
);
layerId = "FF4B10EE-E0A2-40F6-A8A2-E17FFC9F153D";
shapes = (
{
closed = 1;
nodes = (
(230.194,14.307,o),
(221.079,27.443,o),
(207.308,31.323,cs),
(182.235,38.378,o),
(164.316,56.156,o),
(164.316,77.575,cs,{name = .sh01;}),
(164.316,229.099,ls),
(164.316,266.193,o),
(142.164,299.774,o),
(105.465,319.824,c,{name = .iv01;}),
(142.164,339.874,o),
(164.316,373.455,o),
(164.316,410.563,cs),
(164.316,561.692,ls,{name = .dh02;}),
(164.316,583.111,o),
(182.235,601.425,o),
(207.308,608.48,cs),
(221.079,612.36,o),
(230.194,625.496,o),
(230.194,639.803,c,{name = .at01;}),
(178.299,639.803,o),
(136.097,604.769,o),
(136.097,561.692,cs,{name = .dh01;}),
(136.097,410.563,ls),
(136.097,380.213,o),
(114.326,352.657,o),
(79.291,338.66,cs),
(71.221,335.429,o),
(66,328.064,o),
(66,319.852,cs),
(66,311.64,o),
(71.206,304.233,o),
(79.305,300.988,cs),
(114.326,286.977,o),
(136.097,259.421,o),
(136.097,229.099,cs,{name = .sh02;}),
(136.097,77.575,ls),
(136.097,34.526,o),
(178.299,0,o),
(230.194,0,c,{name = .ab01;})
);
}
);
width = 297;
},
{
hints = (
{
horizontal = 1;
origin = (0,20);
target = down;
type = TopGhost;
},
{
horizontal = 1;
place = (0,21);
target = up;
type = BottomGhost;
}
);
layerId = "70A4CCFB-79CB-4069-A047-BEFA4B9EF1C4";
shapes = (
{
closed = 1;
nodes = (
(253.404,0,l),
(253.404,28.796,o),
(240.361,53.741,o),
(220.656,59.293,cs),
(203.135,64.223,o),
(190.614,75.649,o),
(190.614,88.939,cs),
(190.614,233.36,ls),
(190.614,266.664,o),
(173.97,297.855,o),
(146.642,319.832,c),
(173.97,341.809,o),
(190.614,373.002,o),
(190.614,406.318,cs),
(190.614,550.363,ls),
(190.614,563.763,o),
(203.135,575.589,o),
(220.656,580.519,cs),
(240.361,586.071,o),
(253.404,611.016,o),
(253.404,639.812,c),
(187.396,639.812,o),
(133.717,599.693,o),
(133.717,550.363,cs),
(133.717,406.318,ls),
(133.717,383.657,o),
(116.581,362.73,o),
(89.004,351.713,cs),
(75.587,346.341,o),
(66.906,333.868,o),
(66.906,319.859,cs),
(66.906,305.873,o),
(75.556,293.345,o),
(89.012,287.954,cs),
(116.58,276.925,o),
(133.717,255.998,o),
(133.717,233.36,cs),
(133.717,88.939,ls),
(133.717,39.584,o),
(180.669,0,o),
(238.404,0,cs)
);
}
);
width = 320;
}
);
unicode = 123;
},
{
glyphname = verticalbar;
layers = (
{
hints = (
{
place = (80,28);
type = Stem;
},
{
horizontal = 1;
origin = (0,3);
target = down;
type = TopGhost;
},
{
horizontal = 1;
origin = (0,7);
target = up;
type = BottomGhost;
}
);
layerId = "FF4B10EE-E0A2-40F6-A8A2-E17FFC9F153D";
shapes = (
{
closed = 1;
nodes = (
(108.219,611.711,ls,{name = .dh01;}),
(108.219,627.302,o),
(95.591,639.93,o),
(80,639.93,c,{name = .at01;}),
(80,28.219,ls),
(80,12.628,o),
(92.628,0,o),
(108.219,0,c,{name = .ab01;})
);
}
);
width = 189;
},
{
hints = (
{
place = (80,57);
type = Stem;
},
{
horizontal = 1;
origin = (0,3);
target = down;
type = TopGhost;
},
{
horizontal = 1;
origin = (0,7);
target = up;
type = BottomGhost;
}
);
layerId = "70A4CCFB-79CB-4069-A047-BEFA4B9EF1C4";
shapes = (
{
closed = 1;
nodes = (
(137.146,598.037,ls),
(137.146,621.185,o),
(111.685,639.933,o),
(80.25,639.933,c),
(80.25,41.896,ls),
(80.25,18.749,o),
(105.711,0,o),
(137.146,0,c)
);
}
);
width = 218;
}
);
unicode = 124;
},
{
glyphname = braceright;
layers = (
{
hints = (
{
origin = (0,5);
target = (0,36);
type = Stem;
},
{
horizontal = 1;
origin = (0,19);
target = up;
type = BottomGhost;
},
{
horizontal = 1;
place = (0,-20);
target = down;
type = TopGhost;
}
);
layerId = "FF4B10EE-E0A2-40F6-A8A2-E17FFC9F153D";
shapes = (
{
closed = 1;
nodes = (
(66,625.496,o),
(75.115,612.36,o),
(93.633,607.147,cs),
(113.959,601.425,o),
(131.878,583.647,o),
(131.878,562.228,cs,{name = .dh01;}),
(131.878,410.704,ls),
(131.878,373.61,o),
(154.03,340.029,o),
(190.73,319.979,c,{name = .iv01;}),
(154.03,299.929,o),
(131.878,266.348,o),
(131.878,229.24,cs,{name = .sh01;}),
(131.878,78.111,ls),
(131.878,56.693,o),
(113.959,38.378,o),
(93.434,32.6,cs),
(75.115,27.443,o),
(66,14.307,o),
(66,0,c,{name = .ab01;}),
(117.895,0,o),
(160.097,35.034,o),
(160.097,78.111,cs,{name = .sh02;}),
(160.097,229.24,ls),
(160.097,259.59,o),
(181.869,287.146,o),
(210.058,298.413,cs),
(224.974,304.374,o),
(230.194,311.739,o),
(230.194,319.951,cs),
(230.194,328.163,o),
(224.988,335.57,o),
(210.023,341.559,cs),
(181.869,352.827,o),
(160.097,380.383,o),
(160.097,410.704,cs),
(160.097,562.228,ls,{name = .dh02;}),
(160.097,605.277,o),
(117.895,639.803,o),
(66,639.803,c,{name = .at01;})
);
}
);
width = 297;
},
{
hints = (
{
horizontal = 1;
origin = (0,20);
target = up;
type = BottomGhost;
},
{
horizontal = 1;
origin = (0,40);
target = down;
type = TopGhost;
}
);
layerId = "70A4CCFB-79CB-4069-A047-BEFA4B9EF1C4";
shapes = (
{
closed = 1;
nodes = (
(66.906,639.812,l),
(66.906,611.016,o),
(79.201,586.28,o),
(104.179,579.248,cs),
(117.741,575.43,o),
(129.696,564.164,o),
(129.696,550.874,cs),
(129.696,406.452,ls),
(129.696,373.148,o),
(146.34,341.957,o),
(173.669,319.98,c),
(146.34,298.003,o),
(129.696,266.81,o),
(129.696,233.494,cs),
(129.696,89.45,ls),
(129.696,76.05,o),
(117.714,64.374,o),
(103.99,60.511,cs),
(79.227,53.54,o),
(66.906,28.796,o),
(66.906,0,c),
(132.914,0,o),
(186.592,40.12,o),
(186.592,89.45,cs),
(186.592,233.494,ls),
(186.592,256.156,o),
(203.233,276.885,o),
(224.779,285.496,cs),
(245.983,293.97,o),
(253.404,305.942,o),
(253.404,319.953,cs),
(253.404,333.941,o),
(246.009,345.967,o),
(224.751,354.475,cs),
(203.233,363.087,o),
(186.592,383.815,o),
(186.592,406.452,cs),
(186.592,550.874,ls),
(186.592,600.229,o),
(139.641,639.812,o),
(81.906,639.812,cs)
);
}
);
width = 320;
}
);
unicode = 125;
},
{
glyphname = asciitilde;
layers = (
{
hints = (
{
horizontal = 1;
place = (0,21);
target = up;
type = BottomGhost;
}
);
layerId = "FF4B10EE-E0A2-40F6-A8A2-E17FFC9F153D";
shapes = (
{
closed = 1;
nodes = (
(443.35,220.014,o),
(480.57,233.69,o),
(520.84,271.63,c),
(510.46,282.63,o),
(493.44,284.14,o),
(481.29,275.11,cs),
(411.03,222.86,o),
(355.53,256.05,o),
(292.15,294.01,cs),
(223.03,335.37,o),
(144.64,382.32,o),
(49,292.16,c),
(59.37,281.14,o),
(76.4,279.63,o),
(88.55,288.66,cs),
(158.84,340.93,o),
(214.29,307.72,o),
(277.68,269.76,cs),
(317.7,245.81,o),
(360.81,220.004,o),
(408.6,220.01,cs,{name = .av01;})
);
}
);
width = 569;
},
{
hints = (
{
horizontal = 1;
place = (0,266);
type = Stem;
},
{
horizontal = 1;
origin = (0,29);
target = (0,17);
type = Stem;
}
);
layerId = "70A4CCFB-79CB-4069-A047-BEFA4B9EF1C4";
shapes = (
{
closed = 1;
nodes = (
(450.17,209.702,o),
(492.039,226.545,o),
(541.638,273.274,c),
(526.346,289.479,o),
(511.305,297.826,o),
(499.693,297.826,cs),
(490.635,297.826,o),
(481.529,295.011,o),
(473.78,289.252,cs),
(451.819,272.92,o),
(431.91,266.486,o),
(412.972,266.486,cs),
(379.667,266.486,o),
(346.329,286.436,o),
(310.16,308.098,cs),
(270.305,331.947,o),
(227.357,357.661,o),
(177.668,357.661,cs),
(140.949,357.661,o),
(99.096,340.846,o),
(49.509,294.1,c),
(64.779,277.872,o),
(79.818,269.519,o),
(91.441,269.519,cs),
(100.497,269.519,o),
(109.603,272.334,o),
(117.348,278.091,cs),
(139.319,294.429,o),
(159.228,300.866,o),
(178.162,300.866,cs),
(211.459,300.866,o),
(244.783,280.908,o),
(280.959,259.245,cs),
(320.817,235.392,o),
(363.751,209.691,o),
(413.449,209.697,cs)
);
}
);
width = 590;
}
);
unicode = 126;
},
{
glyphname = exclamdown;
layers = (
{
hints = (
{
origin = (0,2);
target = (0,8);
type = Stem;
},
{
origin = (1,7);
target = (1,4);
type = Stem;
},
{
horizontal = 1;
place = (520,60);
type = Stem;
},
{
horizontal = 1;
place = (0,21);
target = up;
type = BottomGhost;
}
);
layerId = "FF4B10EE-E0A2-40F6-A8A2-E17FFC9F153D";
shapes = (
{
closed = 1;
nodes = (
(84.432,580.41,o),
(71,566.978,o),
(71,550.413,cs,{name = .dh01;}),
(71,533.848,o),
(84.432,520.416,o),
(100.997,520.416,cs,{name = .dv01;}),
(117.562,520.416,o),
(130.994,533.848,o),
(130.994,550.413,cs,{name = .dh02;}),
(130.994,566.978,o),
(117.562,580.41,o),
(100.997,580.41,cs,{name = .dv02;})
);
},
{
closed = 1;
nodes = (
(86.902,-60,l,{name = .av01;}),
(102.479,-60,o),
(115.121,-47.372,o),
(115.121,-31.781,cs),
(115.121,419.955,l,{name = .sh01;}),
(99.53,419.955,o),
(86.902,407.312,o),
(86.902,391.735,c,{name = .ih01;})
);
}
);
width = 202;
},
{
hints = (
{
origin = (0,2);
target = (0,8);
type = Stem;
},
{
origin = (1,7);
target = (1,4);
type = Stem;
},
{
horizontal = 1;
place = (496,87);
type = Stem;
},
{
horizontal = 1;
place = (0,21);
target = up;
type = BottomGhost;
}
);
layerId = "70A4CCFB-79CB-4069-A047-BEFA4B9EF1C4";
shapes = (
{
closed = 1;
nodes = (
(91.191,583.203,o),
(71.672,563.684,o),
(71.672,539.612,cs),
(71.672,515.541,o),
(91.191,496.021,o),
(115.263,496.021,cs),
(139.335,496.021,o),
(158.854,515.541,o),
(158.854,539.612,cs),
(158.854,563.684,o),
(139.335,583.203,o),
(115.263,583.203,cs)
);
},
{
closed = 1;
nodes = (
(86.828,-57.188,l),
(118.235,-57.188,o),
(143.725,-38.439,o),
(143.725,-15.291,cs),
(143.725,430.27,l),
(112.29,430.27,o),
(86.828,411.499,o),
(86.828,388.372,cs)
);
}
);
width = 230;
}
);
unicode = 161;
},
{
glyphname = cent;
layers = (
{
hints = (
{
place = (69,28);
type = Stem;
},
{
horizontal = 1;
origin = (0,37);
target = (0,5);
type = Stem;
},
{
horizontal = 1;
origin = (1,2);
target = (0,23);
type = Stem;
}
);
layerId = "FF4B10EE-E0A2-40F6-A8A2-E17FFC9F153D";
shapes = (
{
closed = 1;
nodes = (
(365.868,145.608,o),
(349.938,150.941,o),
(328.991,141.873,cs),
(315.651,136.098,o),
(293.471,131.456,o),
(270.994,131.456,cs,{name = .dv04;}),
(243.579,131.456,o),
(217.73,138.468,o),
(194.647,150.617,c),
(288.843,502.173,l,{name = .sv01;}),
(305.168,500.381,o),
(321.154,496.177,o),
(330.378,492.182,cs),
(349.952,483.704,o),
(365.882,489.051,o),
(373.797,501.651,c),
(350.037,516.579,o),
(323.595,526.047,o),
(296.222,529.687,c,{name = .sv02;}),
(324.061,633.647,l),
(309.006,637.683,o),
(293.539,628.752,o),
(289.506,613.696,cs),
(267.41,531.211,l,{name = .dv02;}),
(157.693,529.165,o),
(69,434.094,o),
(69,317.308,cs,{name = .dh01;}),
(69,241.864,o),
(106.094,175.548,o),
(161.884,137.41,c),
(125.326,0.969,l),
(140.381,-3.066,o),
(155.845,5.865,o),
(159.88,20.921,cs),
(187.169,122.764,l),
(212.735,110.334,o),
(241.053,103.222,o),
(270.98,103.222,cs,{name = .dv03;}),
(307.228,103.222,o),
(342.784,113.508,o),
(373.797,132.994,c)
);
},
{
closed = 1;
nodes = (
(97.219,415.737,o),
(169.165,496.318,o),
(259.735,502.583,c,{name = .dv01;}),
(169.701,166.589,l),
(125.89,200.367,o),
(97.219,255.268,o),
(97.219,317.308,c,{name = .dh02;})
);
}
);
width = 438;
},
{
hints = (
{
place = (70,57);
type = Stem;
},
{
horizontal = 1;
origin = (0,50);
target = (0,9);
type = Stem;
},
{
horizontal = 1;
origin = (0,29);
target = down;
type = TopGhost;
},
{
horizontal = 1;
origin = (0,43);
target = up;
type = BottomGhost;
}
);
layerId = "70A4CCFB-79CB-4069-A047-BEFA4B9EF1C4";
shapes = (
{
closed = 1;
nodes = (
(395.959,137.041,l),
(383.357,157.088,o),
(367.677,169.546,o),
(351.366,169.546,cs),
(343.761,169.546,o),
(335.443,167.812,o),
(326.61,163.988,cs),
(315.477,159.168,o),
(296.656,155.294,o),
(277.291,155.294,cs),
(257.89,155.294,o),
(239.286,159.431,o),
(222.239,166.72,c),
(305.323,476.802,l),
(314.23,475.048,o),
(322.754,472.588,o),
(327.93,470.347,cs),
(335.728,466.969,o),
(344.226,465.332,o),
(351.219,465.191,c),
(366.794,465.543,o),
(383.422,477.905,o),
(395.955,497.858,c),
(369.21,514.662,o),
(343.878,525.903,o),
(320.005,531.584,c),
(346.239,629.55,l),
(332.812,633.15,o),
(324.482,634.869,o),
(320.888,634.869,cs),
(302.385,634.869,o),
(285.46,622.528,o),
(280.446,603.81,cs),
(262.208,535.728,l),
(154.39,527.998,o),
(69.766,433.192,o),
(69.766,317.434,cs),
(69.766,245.211,o),
(104.913,179.762,o),
(156.133,139.871,c),
(120.081,5.318,l),
(133.509,1.719,o),
(141.839,0,o),
(145.432,0,cs),
(163.936,0,o),
(180.858,12.341,o),
(185.874,31.058,cs),
(207.389,111.351,l),
(229.05,103.165,o),
(252.949,98.384,o),
(277.278,98.384,cs),
(314.652,98.384,o),
(351.301,108.982,o),
(383.256,129.059,cs)
);
},
{
closed = 1;
nodes = (
(126.662,395.816,o),
(177.402,460.912,o),
(246.17,475.883,c),
(172.575,201.239,l),
(144.417,230.694,o),
(126.662,271.952,o),
(126.662,317.434,cs)
);
}
);
width = 460;
}
);
unicode = 162;
},
{
glyphname = sterling;
layers = (
{
hints = (
{
origin = (0,17);
target = (0,9);
type = Stem;
},
{
horizontal = 1;
origin = (0,9);
target = (0,14);
type = Stem;
},
{
horizontal = 1;
origin = (0,26);
target = (0,41);
type = Stem;
}
);
layerId = "FF4B10EE-E0A2-40F6-A8A2-E17FFC9F153D";
shapes = (
{
closed = 1;
nodes = (
(508.72,67.05,l),
(437.87,10.91,o),
(376.07,31.37,o),
(310.96,52.93,cs),
(257.17,70.73,o),
(198.02,90.3,o),
(133.64,62.61,c),
(190.14,148.65,o),
(205.22,205.97,o),
(202.23,251.55,c,{name = .dv01;}),
(381.72,251.55,l),
(381.72,267.13,o),
(369.07,279.77,o),
(353.5,279.77,cs),
(197.98,279.77,l,{name = .dv02;}),
(192.67,302.16,o),
(183.534,322.182,o),
(174.23,342.49,cs,{name = .dh01;}),
(170.734,350.122,o),
(167.21,357.81,o),
(163.88,365.74,cs),
(140.31,421.77,o),
(146.04,485.45,o),
(179.2,536.07,cs),
(211.06,584.72,o),
(262.321,612.958,o),
(319.8,613.79,cs,{name = .sv01;}),
(378.371,614.638,o),
(435.95,591.52,o),
(474.46,552.23,cs),
(502.72,523.39,o),
(519.34,487.52,o),
(523.25,447.39,cs),
(524.7,432.6,o),
(537.39,421.43,o),
(552.25,420.94,c),
(554.19,479.28,o),
(534.27,531.51,o),
(494.61,571.98,cs),
(450.78,616.69,o),
(385.68,642.875,o),
(319.41,642.02,cs,{name = .at01;}),
(252.39,641.155,o),
(192.66,608.17,o),
(155.57,551.54,cs),
(117.26,493.04,o),
(110.63,419.5,o),
(137.83,354.8,cs),
(141.29,346.59,o),
(144.93,338.63,o),
(148.55,330.72,cs),
(156.3,313.83,o),
(163.76,297.49,o),
(168.6,279.77,c,{name = .sv02;}),
(67,279.77,l),
(67,264.18,o),
(79.64,251.55,o),
(95.22,251.55,cs,{name = .sv03;}),
(173.61,251.55,l,{name = .sh01;}),
(177.54,201.76,o),
(156.7,136.67,o),
(72.05,24.41,cs),
(67.41,18.26,o),
(68.16,9.53,o),
(73.91,4.4,cs),
(74.72,3.68,ls),
(80.4,-1.38,o),
(88.87,-1.14,o),
(94.58,3.9,cs),
(169.53,70.03,o),
(234,48.69,o),
(302.08,26.15,cs),
(374.45,2.2,o),
(456.47,-24.97,o),
(547.96,64.12,c),
(546.97,65.12,ls),
(536.68,75.67,o),
(520.26,76.21,o),
(508.7,67.05,c)
);
}
);
width = 620;
},
{
hints = (
{
origin = (0,49);
target = (0,29);
type = Stem;
},
{
horizontal = 1;
origin = (0,89);
target = (0,2);
type = Stem;
},
{
horizontal = 1;
origin = (0,83);
target = (0,8);
type = Stem;
},
{
horizontal = 1;
origin = (0,18);
target = (0,23);
type = Stem;
},
{
horizontal = 1;
origin = (0,32);
target = (0,45);
type = Stem;
},
{
horizontal = 1;
origin = (0,77);
target = up;
type = BottomGhost;
}
);
layerId = "70A4CCFB-79CB-4069-A047-BEFA4B9EF1C4";
shapes = (
{
closed = 1;
nodes = (
(465.603,68.056,o),
(437.531,59.361,o),
(411.293,59.361,cs),
(381.491,59.361,o),
(351.205,69.388,o),
(320.098,79.689,cs),
(286.188,90.91,o),
(250.116,102.845,o),
(210.753,102.845,cs),
(200.773,102.845,o),
(190.074,101.971,o),
(179.815,100.223,c),
(213.859,159.793,o),
(227.092,207.071,o),
(227.092,244.282,cs),
(227.092,247.849,o),
(226.943,252.32,o),
(226.718,255.74,c),
(211.75,239.759,l),
(397.827,239.759,l),
(397.827,271.171,o),
(379.046,296.656,o),
(355.93,296.656,cs),
(219.19,296.656,l),
(213.783,314.592,o),
(206.251,331.202,o),
(198.7,347.683,cs),
(185.752,375.946,o),
(176.526,398.818,o),
(176.526,431.182,cs),
(176.526,513.914,o),
(239.87,582.793,o),
(324.006,585.02,c),
(326.802,585.04,l),
(411.949,584.194,o),
(494.144,528.732,o),
(502.794,439.96,cs),
(504.918,418.288,o),
(529.91,401.71,o),
(559.857,400.722,c),
(559.939,403.195,o),
(560.486,421.142,o),
(560.486,423.592,cs),
(560.486,552.44,o),
(451.022,642.749,o),
(326.392,641.944,cs),
(323.292,641.924,l),
(207.611,640.432,o),
(119.6,544.575,o),
(119.6,431.172,cs),
(119.6,390.828,o),
(130.654,359.577,o),
(146.95,323.969,cs),
(151.133,314.853,o),
(155.319,305.663,o),
(158.852,296.656,c),
(67.859,296.656,l),
(67.859,265.223,o),
(86.625,239.759,o),
(109.757,239.759,cs),
(184.472,239.759,l),
(169.519,253.578,l),
(169.799,250.023,o),
(169.901,247.567,o),
(169.901,243.836,cs),
(169.901,200.775,o),
(148.013,143.202,o),
(75.696,47.297,cs),
(71.956,42.34,o),
(69.992,35.489,o),
(69.787,29.657,c),
(70.07,22.028,o),
(73.351,13.45,o),
(79.47,7.992,cs),
(80.252,7.296,ls),
(85.751,2.397,o),
(92.579,0,o),
(99.441,0,cs),
(106.456,0,o),
(113.479,2.533,o),
(119.073,7.471,cs),
(151.788,36.336,o),
(181.854,46.014,o),
(210.989,46.014,cs),
(240.798,46.014,o),
(271.092,35.985,o),
(302.206,25.684,cs),
(336.116,14.461,o),
(372.176,2.522,o),
(411.532,2.522,cs),
(455.851,2.522,o),
(505.279,20.126,o),
(562.575,75.919,c),
(551.069,87.54,ls),
(542.906,95.909,o),
(532.171,100.059,o),
(521.32,100.059,cs),
(511.898,100.059,o),
(502.408,96.906,o),
(494.556,90.662,cs)
);
}
);
width = 630;
}
);
unicode = 163;
},
{
glyphname = currency;
layers = (
{
hints = (
{
origin = (0,25);
target = (1,2);
type = Stem;
},
{
origin = (1,8);
target = (0,3);
type = Stem;
},
{
horizontal = 1;
place = (168,28);
type = Stem;
},
{
horizontal = 1;
origin = (1,5);
target = (0,14);
type = Stem;
}
);
layerId = "FF4B10EE-E0A2-40F6-A8A2-E17FFC9F153D";
shapes = (
{
closed = 1;
nodes = (
(354.59,225.11,l),
(377.89,252.91,o),
(391.95,288.69,o),
(391.95,327.79,cs,{name = .sh01;}),
(391.95,366.89,o),
(377.89,402.67,o),
(354.59,430.46,c),
(401.93,477.8,l),
(390.91,488.82,o),
(373.05,488.82,o),
(362.03,477.8,cs,{name = .sh03;}),
(334.64,450.42,l),
(306.86,473.71,o),
(271.06,487.78,o),
(231.97,487.78,cs,{name = .dv02;}),
(192.87,487.78,o),
(157.09,473.71,o),
(129.29,450.42,c),
(101.9,477.8,ls,{name = .sh06;}),
(90.88,488.82,o),
(73.02,488.82,o),
(62,477.8,c),
(109.34,430.46,l),
(86.04,402.68,o),
(71.99,366.89,o),
(71.99,327.79,cs,{name = .sh04;}),
(71.99,288.69,o),
(86.06,252.91,o),
(109.35,225.11,c),
(62,177.79,l),
(73.02,166.77,o),
(90.88,166.77,o),
(101.9,177.79,cs,{name = .sh07;}),
(129.27,205.16,l),
(157.06,181.87,o),
(192.85,167.81,o),
(231.95,167.81,cs,{name = .dv03;}),
(271.05,167.81,o),
(306.83,181.88,o),
(334.63,205.16,c),
(371.52,168.26,ls),
(382.54,157.25,o),
(400.41,157.25,o),
(411.43,168.26,c)
);
},
{
closed = 1;
nodes = (
(159.223,196,o),
(100.315,254.681,o),
(100.21,327.79,cs,{name = .sh05;}),
(100.105,400.389,o),
(159.275,459.31,o),
(231.98,459.54,cs,{name = .dv01;}),
(304.567,459.77,o),
(363.75,399.833,o),
(363.75,327.79,cs,{name = .sh02;}),
(363.75,296.54,o),
(352.76,267.81,o),
(334.5,245.19,c),
(311.478,213.469,o),
(269.888,196.03,o),
(230.856,196.019,cs,{name = .dv04;})
);
}
);
width = 474;
},
{
hints = (
{
origin = (0,31);
target = (1,2);
type = Stem;
},
{
origin = (1,8);
target = (0,3);
type = Stem;
},
{
horizontal = 1;
place = (160,57);
type = Stem;
},
{
horizontal = 1;
origin = (1,5);
target = (0,17);
type = Stem;
},
{
horizontal = 1;
origin = (0,52);
target = down;
type = TopGhost;
}
);
layerId = "70A4CCFB-79CB-4069-A047-BEFA4B9EF1C4";
shapes = (
{
closed = 1;
nodes = (
(382.886,230.852,l),
(402.547,258.296,o),
(413.577,291.093,o),
(413.577,327.425,cs),
(413.577,363.758,o),
(402.549,396.551,o),
(382.888,423.988,c),
(429.303,470.403,l),
(414.051,485.655,o),
(399.795,493.281,o),
(389.075,493.281,cs),
(378.354,493.281,o),
(367.634,489.19,o),
(359.453,481.01,cs),
(342.661,464.224,l),
(315.228,483.88,o),
(282.42,494.915,o),
(246.096,494.915,cs),
(209.764,494.915,o),
(176.967,483.876,o),
(149.524,464.222,c),
(132.728,481.012,ls),
(124.549,489.19,o),
(113.829,493.281,o),
(103.109,493.281,cs),
(92.388,493.281,o),
(78.132,485.655,o),
(62.881,470.403,c),
(109.294,423.989,l),
(89.634,396.556,o),
(78.615,363.757,o),
(78.615,327.425,cs),
(78.615,291.093,o),
(89.651,258.301,o),
(109.305,230.858,c),
(62.877,184.459,l),
(78.131,169.205,o),
(92.388,161.579,o),
(103.109,161.579,cs),
(113.829,161.579,o),
(124.549,165.669,o),
(132.73,173.849,cs),
(149.506,190.626,l),
(176.945,170.972,o),
(209.746,159.944,o),
(246.077,159.944,cs),
(282.409,159.944,o),
(315.203,170.981,o),
(342.644,190.627,c),
(368.5,164.765,ls),
(376.682,156.59,o),
(387.404,152.502,o),
(398.125,152.502,cs),
(408.845,152.502,o),
(423.104,160.124,o),
(438.361,175.367,c)
);
},
{
closed = 1;
nodes = (
(185.993,217.405,o),
(135.6,266.842,o),
(135.513,327.447,cs),
(135.426,387.604,o),
(186.155,436.599,o),
(246.503,438,c),
(306.196,436.766,o),
(356.699,387.019,o),
(356.699,327.425,cs),
(356.699,265.46,o),
(307.067,216.227,o),
(245.031,216.831,cs)
);
}
);
width = 501;
}
);
unicode = 164;
},
{
glyphname = yen;
layers = (
{
hints = (
{
origin = (0,19);
target = (0,36);
type = Stem;
},
{
horizontal = 1;
origin = (0,24);
target = (0,21);
type = Stem;
},
{
horizontal = 1;
origin = (0,18);
target = (0,15);
type = Stem;
},
{
horizontal = 1;
origin = (0,5);
target = down;
type = TopGhost;
},
{
horizontal = 1;
origin = (0,26);
target = up;
type = BottomGhost;
}
);
layerId = "FF4B10EE-E0A2-40F6-A8A2-E17FFC9F153D";
shapes = (
{
closed = 1;
nodes = (
(435.836,300.409,l,{name = .dv01;}),
(451.413,300.409,o),
(464.055,313.051,o),
(464.055,328.628,c,{name = .dv02;}),
(328.461,328.628,l),
(555.373,639.93,l,{name = .at01;}),
(533.433,639.93,o),
(512.833,629.447,o),
(499.908,611.725,cs),
(304.687,343.909,l,{name = .iv01;}),
(109.465,611.725,ls),
(96.541,629.447,o),
(75.926,639.93,o),
(54,639.93,c,{name = .at02;}),
(280.912,328.628,l,{name = .sv01;}),
(172.31,328.628,ls),
(156.733,328.628,o),
(144.09,316,o),
(144.09,300.409,c,{name = .sv02;}),
(289.956,300.409,l,{name = .dh01;}),
(289.956,248.64,l),
(172.31,248.64,ls,{name = .dv04;}),
(156.733,248.64,o),
(144.09,236.012,o),
(144.09,220.421,c,{name = .dv03;}),
(289.956,220.421,l,{name = .sh01;}),
(289.956,0,l,{name = .ab01;}),
(305.533,0,o),
(318.175,12.628,o),
(318.175,28.219,cs,{name = .sh02;}),
(318.175,220.421,l,{name = .sv03;}),
(435.822,220.421,ls),
(451.399,220.421,o),
(464.041,233.064,o),
(464.041,248.641,c,{name = .sv04;}),
(318.175,248.641,l),
(318.175,300.409,l,{name = .dh02;})
);
}
);
width = 610;
},
{
hints = (
{
origin = (0,25);
target = (0,30);
type = Stem;
},
{
horizontal = 1;
origin = (0,30);
target = (0,35);
type = Stem;
},
{
horizontal = 1;
origin = (0,36);
target = (0,4);
type = Stem;
},
{
horizontal = 1;
origin = (0,5);
target = down;
type = TopGhost;
},
{
horizontal = 1;
origin = (0,26);
target = up;
type = BottomGhost;
}
);
layerId = "70A4CCFB-79CB-4069-A047-BEFA4B9EF1C4";
shapes = (
{
closed = 1;
nodes = (
(448.406,286.327,ls),
(471.533,286.327,o),
(490.302,311.817,o),
(490.302,343.224,c),
(375.56,343.224,l),
(591.836,639.933,l),
(547.584,639.933,o),
(512.498,627.651,o),
(497.354,606.888,cs),
(323.405,368.253,l),
(149.454,606.887,ls),
(134.312,627.651,o),
(99.196,639.933,o),
(54.973,639.933,c),
(271.249,343.224,l),
(197.233,343.224,ls),
(174.106,343.224,o),
(155.336,317.763,o),
(155.336,286.327,c),
(294.364,286.327,l),
(294.364,248.122,l),
(197.233,248.122,ls),
(174.106,248.122,o),
(155.336,222.661,o),
(155.336,191.225,c),
(294.364,191.225,l),
(294.364,0,l),
(325.771,0,o),
(351.261,18.749,o),
(351.261,41.896,cs),
(351.261,191.225,l),
(448.393,191.225,ls),
(471.52,191.225,o),
(490.289,216.716,o),
(490.289,248.123,c),
(351.261,248.123,l),
(351.261,286.327,l)
);
}
);
width = 646;
}
);
unicode = 165;
},
